<?xml version="1.0" standalone="no"?>
<!DOCTYPE svg PUBLIC "-//W3C//DTD SVG 1.1//EN" "http://www.w3.org/Graphics/SVG/1.1/DTD/svg11.dtd" >
<svg xmlns="http://www.w3.org/2000/svg">
<metadata>
Created by FontPrep 20130207 at Thu Jun  5 09:55:38 2014
 By Athan Reines
Copyright (c) 2011 by Pablo Impallari. www.impallari.com Igino Marini. www.ikern.com. All rights reserved.
</metadata>
<defs>
<font id="03b7cdb03c5d941a277e854dd5779786" horiz-adv-x='1024' >
  <font-face 
    font-family="Cabin-Italic"
    font-weight="400"
    font-style="italic"
    font-stretch="normal"
    units-per-em="2048"
    panose-1="2 11 8 3 5 2 2 2 0 4"
    ascent="1638"
    descent="-410"
    x-height="1004"
    cap-height="1434"
    bbox="-223 -512 2132 1976"
    underline-thickness="102"
    underline-position="-102"
    unicode-range="U+0020-2122"
  />
<missing-glyph horiz-adv-x="460" 
d="M213 512l39 225h186l-39 -225h-186z" />
    <glyph glyph-name=".notdef" horiz-adv-x="460" 
d="M213 512l39 225h186l-39 -225h-186z" />
    <glyph glyph-name=".null" horiz-adv-x="0" 
 />
    <glyph glyph-name="nonmarkingreturn" horiz-adv-x="681" 
 />
    <glyph glyph-name="space" unicode=" " horiz-adv-x="460" 
 />
    <glyph glyph-name="exclam" unicode="!" horiz-adv-x="489" 
d="M49 0l31 176h178l-31 -176h-178zM276 410h-131l150 1126h229z" />
    <glyph glyph-name="quotedbl" unicode="&#x22;" horiz-adv-x="765" 
d="M293 922h-117l72 614h190zM696 922h-114l71 614h189z" />
    <glyph glyph-name="numbersign" unicode="#" horiz-adv-x="1320" 
d="M639 866l-129 -252h233l129 252h-233zM1243 866h-213l-129 -252h234l-103 -172h-223l-240 -465h-155l237 465h-233l-240 -465h-155l239 465h-221l102 172h211l127 252h-229l86 172h237l205 396h156l-205 -396h234l204 396h158l-205 -396h207z" />
    <glyph glyph-name="dollar" unicode="$" horiz-adv-x="980" 
d="M899 1020q-167 98 -312 98q-144 0 -183 -48t-39 -91t38.5 -71.5t96 -51t126 -45.5t165 -79t96.5 -202q0 -117 -52.5 -187.5t-135.5 -116.5t-228 -58l-12 -234h-176l71 232q-213 12 -309 78l64 223q43 -47 123 -83t190 -36t171.5 32t61.5 116q0 51 -36.5 83.5t-93 58.5
t-122 48.5t-158.5 74.5t-93 174t96.5 228.5t304.5 128.5l12 240h176l-71 -240q94 -6 171 -28.5t111 -46.5z" />
    <glyph glyph-name="percent" unicode="%" horiz-adv-x="1581" 
d="M1237 627q-89 0 -157 -103.5t-68 -249.5q0 -90 32.5 -143t79.5 -53q93 0 158.5 101.5t65.5 248.5q0 92 -33 145.5t-78 53.5zM1095 -29q-87 0 -144.5 73t-57.5 197q0 227 107.5 359.5t250.5 132.5q98 0 157.5 -73.5t59.5 -195.5t-28.5 -211t-77.5 -151.5t-114.5 -96.5
t-152.5 -34zM493 1337q-88 0 -156.5 -102.5t-68.5 -249.5q0 -90 32 -143.5t80 -53.5q92 0 157 102.5t65 248.5q0 92 -32 145t-77 53zM352 682q-87 0 -146 73t-59 197q0 224 107.5 358t253.5 134q98 0 156.5 -74t58.5 -196t-27.5 -211t-77 -151t-114.5 -96t-152 -34zM348 -25
h-155l1034 1459h153z" />
    <glyph glyph-name="ampersand" unicode="&#x26;" horiz-adv-x="1146" 
d="M213 305q0 -94 49.5 -153.5t151.5 -59.5t164.5 34t113.5 89l-289 426q-80 -59 -135 -150.5t-55 -185.5zM645 1298q-94 0 -155.5 -67t-61.5 -177t53 -223q63 53 112.5 94.5t103 99t53.5 155.5q0 57 -29 87.5t-76 30.5zM400 -47q-192 0 -283.5 85.5t-91.5 226.5
q0 140 78.5 254t232.5 231q-82 172 -82 280q0 191 129 300.5t301 109.5q121 0 176 -60.5t55 -150.5q0 -260 -374 -500l252 -399q45 61 80.5 208.5t41.5 180.5h172q-75 -340 -200 -514l133 -205h-199l-57 94q-92 -80 -176 -110.5t-188 -30.5z" />
    <glyph glyph-name="quotesingle" unicode="'" horiz-adv-x="374" 
d="M305 922h-129l74 614h199z" />
    <glyph glyph-name="parenleft" unicode="(" horiz-adv-x="528" 
d="M66 279q0 539 149.5 825.5t257.5 431.5h166q-198 -280 -307 -562.5t-109 -635.5t94 -617h-163q-88 223 -88 558z" />
    <glyph glyph-name="parenright" unicode=")" horiz-adv-x="528" 
d="M473 979q0 -543 -150.5 -827.5t-256.5 -430.5h-166q196 278 304.5 561t108.5 637t-94 617h166q88 -223 88 -557z" />
    <glyph glyph-name="asterisk" unicode="*" horiz-adv-x="823" 
d="M504 1147l-225 -279l-68 66l250 240l-268 133l71 84l234 -177l18 320h113l-97 -320l297 177l41 -86l-315 -129l172 -236l-94 -66z" />
    <glyph glyph-name="plus" unicode="+" horiz-adv-x="870" 
d="M494 487l-50 -278h-155l47 278h-262l30 177h265l45 262h155l-45 -262h262l-30 -177h-262z" />
    <glyph glyph-name="comma" unicode="," horiz-adv-x="440" 
d="M18 -223l-38 26l94 179l-58 18l31 176h199l-33 -176z" />
    <glyph glyph-name="hyphen" unicode="-" horiz-adv-x="811" 
d="M98 487l31 177h571l-30 -177h-572z" />
    <glyph glyph-name="period" unicode="." horiz-adv-x="425" 
d="M14 0l31 176h186l-30 -176h-187z" />
    <glyph glyph-name="slash" unicode="/" horiz-adv-x="1013" 
d="M115 -174h-205l973 1608h204z" />
    <glyph glyph-name="zero" unicode="0" horiz-adv-x="1366" 
d="M811 1286q-84 0 -168 -50t-193.5 -208t-109.5 -498q0 -193 68 -288t176 -95q214 0 348.5 201t134.5 535q0 199 -72.5 301t-183.5 102zM585 -29q-224 0 -336 149.5t-112 379.5q0 229 59.5 401t158 297t226 194.5t243.5 69.5q211 0 326.5 -156t115.5 -413
q0 -199 -54.5 -368t-149.5 -291.5t-224 -192.5t-253 -70z" />
    <glyph glyph-name="one" unicode="1" horiz-adv-x="702" 
d="M188 0l205 1153q-107 -93 -205 -125l7 182q127 48 200.5 117.5t98.5 106.5h149l-252 -1434h-203z" />
    <glyph glyph-name="two" unicode="2" horiz-adv-x="1001" 
d="M727 1098q0 88 -46.5 135t-116.5 47q-117 0 -191.5 -50.5t-153.5 -139.5l6 174q85 113 203.5 155.5t237 42.5t189.5 -91t71 -234t-114.5 -349t-428.5 -612h426l-31 -176h-772q479 601 585.5 767t121 228t14.5 103z" />
    <glyph glyph-name="three" unicode="3" horiz-adv-x="1044" 
d="M741 795q146 -67 146 -305q0 -108 -50.5 -211t-169.5 -205.5t-341 -102.5q-112 0 -210.5 38.5t-119.5 70.5l80 180q131 -113 269 -113q139 0 237 81t98 270q0 142 -86 173t-158 31h-145l47 156h74q276 0 304.5 111.5t28.5 178.5q0 138 -180 138q-147 0 -258 -84l-6 166
q67 57 161 75.5t174 18.5t199 -49.5t119 -249.5q0 -109 -43 -189.5t-170 -178.5z" />
    <glyph glyph-name="four" unicode="4" horiz-adv-x="1075" 
d="M678 1085l-359 -520h267zM756 389l-70 -389h-201l70 389h-555l778 1045h162l-154 -869h158l-33 -176h-155z" />
    <glyph glyph-name="five" unicode="5" horiz-adv-x="1040" 
d="M96 233q108 -86 250 -86t249 111.5t107 267.5q0 100 -73.5 150.5t-251.5 50.5h-170l203 707h587l-49 -177h-418l-98 -356q252 -4 365.5 -85.5t113.5 -231.5t-52 -260.5t-136 -188.5t-189.5 -121t-183.5 -43q-114 0 -214.5 26t-117.5 54z" />
    <glyph glyph-name="six" unicode="6" horiz-adv-x="1089" 
d="M612 694q-135 0 -225 -97t-90 -239q0 -98 51.5 -157.5t121.5 -59.5q132 0 219 102.5t87 252.5q0 92 -45 145t-119 53zM639 860q158 0 245 -91t87 -227q0 -252 -157.5 -411.5t-385.5 -159.5q-156 0 -241 102.5t-85 310.5t125.5 458.5t301.5 419t309 172.5l116 -78
q-213 -123 -359 -270t-218 -355q104 129 262 129z" />
    <glyph glyph-name="seven" unicode="7" horiz-adv-x="962" 
d="M264 0h-205l697 1257h-557l30 177h840z" />
    <glyph glyph-name="eight" unicode="8" horiz-adv-x="1161" 
d="M287 336q0 -189 205 -189q130 0 219.5 86t89.5 197q0 110 -57.5 172.5t-143.5 89.5q-214 -48 -263.5 -164t-49.5 -192zM866 1149q0 137 -168 137q-117 0 -176 -61t-59 -141q0 -151 151 -222q133 43 192.5 124t59.5 163zM1006 479q0 -84 -35 -174t-150.5 -212t-367.5 -122
q-184 0 -276.5 103t-92.5 248q0 276 307 448q-106 119 -106 277q0 159 107.5 286t346.5 127q169 0 245.5 -78.5t76.5 -198.5q0 -121 -49 -193.5t-215 -196.5q209 -94 209 -314z" />
    <glyph glyph-name="nine" unicode="9" horiz-adv-x="1097" 
d="M533 739q119 0 211 97.5t92 242.5q0 101 -55 157t-127 56q-134 0 -216 -111t-82 -242q0 -132 61.5 -166t115.5 -34zM674 1462q92 0 152.5 -18.5t131 -90.5t70.5 -253t-38 -325t-125 -317.5t-262.5 -315.5t-299.5 -142l-127 78q198 99 296.5 186.5t169.5 187t108 236.5
q-71 -83 -153.5 -100t-113.5 -17q-152 0 -239.5 80t-87.5 244q0 236 112.5 356.5t213 165.5t192.5 45z" />
    <glyph glyph-name="colon" unicode=":" horiz-adv-x="425" 
d="M14 0l31 176h186l-30 -176h-187zM141 725l33 176h184l-30 -176h-187z" />
    <glyph glyph-name="semicolon" unicode=";" horiz-adv-x="448" 
d="M18 -223l-38 26l94 179l-58 18l31 176h199l-33 -178zM143 725l31 176h207l-31 -176h-207z" />
    <glyph glyph-name="less" unicode="&#x3c;" horiz-adv-x="802" 
d="M393 160l-321 422l471 422h205l-472 -422l322 -422h-205z" />
    <glyph glyph-name="equal" unicode="=" horiz-adv-x="960" 
d="M90 328l27 155h682l-27 -155h-682zM147 651l27 156h682l-27 -156h-682z" />
    <glyph glyph-name="greater" unicode="&#x3e;" horiz-adv-x="804" 
d="M256 160h-205l471 422l-321 422h205l321 -422z" />
    <glyph glyph-name="question" unicode="?" horiz-adv-x="856" 
d="M184 0l31 176h188l-32 -176h-187zM678 1215q0 89 -54.5 137.5t-111.5 48.5q-92 0 -165 -45t-111 -94l-25 137q47 57 133 97t177 40q163 0 247 -100t84 -230t-73.5 -232t-127 -162t-135 -159.5t-96.5 -187.5l-10 -55h-123q11 142 49.5 209t81.5 120.5t88 104.5t84 105.5
t63.5 115.5t24.5 150z" />
    <glyph glyph-name="at" unicode="@" horiz-adv-x="1366" 
d="M492 217q-64 0 -64 92t44 173t108.5 142.5t136 98.5t107.5 37t62.5 -6t33.5 -39q-61 -172 -159.5 -288t-161 -163t-107.5 -47zM272 276q0 -90 30 -142t104 -52q137 0 235 90t139 147q-4 -16 -13 -42.5t-9 -68.5t17.5 -82t53.5 -40q59 0 135 38t138 93
q-120 -179 -301.5 -287t-366.5 -108q-186 0 -284.5 108.5t-98.5 326.5t124.5 425t318.5 329t391 122q198 0 295.5 -110.5t97.5 -300.5t-92.5 -359.5t-255.5 -169.5q-29 0 -47.5 11t-18.5 57t15.5 96.5t42 111.5t61.5 136t72 171q-77 109 -205 109q-94 0 -196.5 -57.5
t-186.5 -148.5t-139.5 -202t-55.5 -201z" />
    <glyph glyph-name="A" unicode="A" horiz-adv-x="1163" 
d="M688 1161l-278 -598h346zM840 0l-52 387h-473l-186 -387h-205l715 1434h197l208 -1434h-204z" />
    <glyph glyph-name="B" unicode="B" horiz-adv-x="1157" 
d="M479 176q191 0 279 55.5t88 237.5q0 156 -85 174.5t-128 18.5h-264l-86 -486h196zM621 838q112 0 173.5 52t61.5 226q0 91 -52 117.5t-151 26.5h-180l-74 -422h222zM1051 496q0 -496 -533 -496h-461l252 1434h312q220 0 327 -56.5t107 -208.5q0 -153 -39 -233t-131 -172
q166 -79 166 -268z" />
    <glyph glyph-name="C" unicode="C" horiz-adv-x="1157" 
d="M94 569q0 199 63.5 363t171 281.5t252 183t304.5 65.5q98 0 191 -24.5t155 -59.5l-53 -180q-72 29 -148 58.5t-190 29.5t-215 -58.5t-208.5 -206.5t-107.5 -444t129 -363t222 -67t178.5 29t169.5 57l-13 -180q-177 -82 -383 -82q-110 0 -207.5 42t-204 161.5
t-106.5 394.5z" />
    <glyph glyph-name="D" unicode="D" horiz-adv-x="1376" 
d="M567 176q249 0 393 191.5t144 478.5q0 184 -86 297.5t-260 113.5h-285l-190 -1081h284zM537 0h-480l252 1434h479q246 0 388.5 -154t142.5 -420q0 -197 -61.5 -356.5t-168 -271t-249 -172t-303.5 -60.5z" />
    <glyph glyph-name="E" unicode="E" 
d="M874 0h-817l252 1434h801l-31 -177h-604l-74 -419h476l-31 -176h-475l-86 -486h620z" />
    <glyph glyph-name="F" unicode="F" horiz-adv-x="997" 
d="M473 1257l-74 -419h459l-31 -176h-458l-117 -662h-195l252 1434h791l-31 -177h-596z" />
    <glyph glyph-name="G" unicode="G" horiz-adv-x="1271" 
d="M878 1286q-275 0 -422 -207t-147 -505t140.5 -362.5t208.5 -64.5q145 0 239 39l64 357h-185l31 176h379l-113 -639q-129 -72 -267.5 -90.5t-224.5 -18.5t-181 42t-199.5 164.5t-104.5 393.5q0 197 62.5 361t170 281.5t252 183t296.5 65.5t251 -31.5t132 -50.5l-50 -170
q-181 76 -332 76z" />
    <glyph glyph-name="H" unicode="H" horiz-adv-x="1409" 
d="M942 0l117 657h-690l-117 -657h-195l252 1434h195l-105 -592h693l104 592h195l-254 -1434h-195z" />
    <glyph glyph-name="I" unicode="I" horiz-adv-x="522" 
d="M57 0l252 1434h195l-252 -1434h-195z" />
    <glyph glyph-name="J" unicode="J" horiz-adv-x="524" 
d="M-133 -238q88 0 128.5 54t61.5 178l254 1440h195l-264 -1500q-51 -286 -355 -286h-43l4 114h19z" />
    <glyph glyph-name="K" unicode="K" horiz-adv-x="1120" 
d="M57 0l252 1434h195l-252 -1434h-195zM784 0l-335 760l587 674h211l-588 -674l336 -760h-211z" />
    <glyph glyph-name="L" unicode="L" horiz-adv-x="956" 
d="M57 0l252 1434h195l-221 -1258h573l-33 -176h-766z" />
    <glyph glyph-name="M" unicode="M" horiz-adv-x="1540" 
d="M1126 0l80 1049l-487 -744l-232 744l-288 -1049h-205l416 1434h163l211 -746l473 746h164l-90 -1434h-205z" />
    <glyph glyph-name="N" unicode="N" horiz-adv-x="1337" 
d="M901 0l-448 1133l-201 -1133h-195l252 1434h205l420 -1074l188 1074h197l-254 -1434h-164z" />
    <glyph glyph-name="O" unicode="O" horiz-adv-x="1454" 
d="M828 1286q-106 0 -207 -58.5t-206.5 -207.5t-105.5 -444q0 -296 126.5 -362.5t232.5 -66.5t206.5 58.5t206 210t105.5 444.5t-126 359.5t-232 66.5zM634 -29q-259 0 -399.5 163t-140.5 433q0 199 62.5 363t169 282.5t249.5 184t283 65.5q258 0 399.5 -162t141.5 -434
q0 -199 -62.5 -363.5t-170 -282.5t-250 -183.5t-282.5 -65.5z" />
    <glyph glyph-name="P" unicode="P" horiz-adv-x="1101" 
d="M608 676q165 0 238.5 106.5t73.5 280.5q0 106 -55.5 151.5t-188.5 45.5h-195l-104 -584h231zM709 1434q202 0 308.5 -69t106.5 -252t-52 -299t-129 -184.5t-167 -98t-166 -29.5h-264l-88 -502h-201l252 1434h400z" />
    <glyph glyph-name="Q" unicode="Q" horiz-adv-x="1452" 
d="M828 1286q-108 0 -209 -58.5t-205.5 -208t-104.5 -446.5t124.5 -361.5t198.5 -64.5t143 15.5t134 66.5l-149 172l129 125l149 -190q122 184 140 301t18 210t-21.5 173t-64.5 139.5t-108.5 93t-173.5 33.5zM94 567q0 199 62.5 363t169 282.5t249.5 184t283 65.5
q258 0 399.5 -162t141.5 -434q0 -170 -55.5 -321.5t-176.5 -317.5l95 -100l-129 -121l-103 111q-196 -146 -425 -146t-370 163t-141 433z" />
    <glyph glyph-name="R" unicode="R" horiz-adv-x="1157" 
d="M922 1075q0 201 -222 201h-217l-94 -528h246q200 0 243.5 118.5t43.5 208.5zM745 1434q279 0 331 -116t52 -208q0 -174 -89 -302t-224 -198l191 -610h-207l-181 559h-262l-98 -559h-201l252 1434h436z" />
    <glyph glyph-name="S" unicode="S" horiz-adv-x="1101" 
d="M78 291q125 -144 392 -144q134 0 222 69t88 182t-174.5 199.5t-238.5 121.5t-135.5 95t-71.5 168q0 217 149 348.5t393 131.5q177 0 270 -39t122 -59l-62 -199q-180 121 -348 121q-126 0 -217.5 -69.5t-91.5 -172.5q0 -75 56.5 -116t155.5 -84t170.5 -77t157.5 -103.5
t86 -221.5q0 -471 -581 -471q-129 0 -238.5 26t-169.5 66z" />
    <glyph glyph-name="T" unicode="T" horiz-adv-x="1071" 
d="M745 1257l-221 -1257h-194l221 1257h-373l31 177h940l-31 -177h-373z" />
    <glyph glyph-name="U" unicode="U" horiz-adv-x="1368" 
d="M573 -29q-227 0 -333.5 118t-106.5 329q0 88 19 190l145 826h195l-130 -732q-24 -146 -24 -224q0 -162 61 -246.5t205 -84.5q195 0 294.5 149.5t143.5 405.5l129 732h195l-145 -826q-85 -464 -299 -550.5t-349 -86.5z" />
    <glyph glyph-name="V" unicode="V" horiz-adv-x="1218" 
d="M602 0h-217l-231 1434h204l177 -1211l598 1211h204z" />
    <glyph glyph-name="W" unicode="W" horiz-adv-x="1820" 
d="M1305 0h-197l-92 1176l-514 -1176h-203l-109 1434h205l60 -1192l522 1163h162l106 -1161l488 1190h202z" />
    <glyph glyph-name="X" unicode="X" horiz-adv-x="1150" 
d="M813 0l-252 586l-428 -586h-213l565 715l-305 719h226l221 -560l430 560h211l-572 -695l328 -739h-211z" />
    <glyph glyph-name="Y" unicode="Y" horiz-adv-x="1118" 
d="M664 662l-117 -662h-201l117 662l-303 772h205l229 -596l438 596h205z" />
    <glyph glyph-name="Z" unicode="Z" horiz-adv-x="1024" 
d="M266 176h580l-31 -176h-899l883 1257h-578l31 177h899z" />
    <glyph glyph-name="bracketleft" unicode="[" horiz-adv-x="626" 
d="M465 -276h-473l319 1812h473l-24 -139h-303l-271 -1534h303z" />
    <glyph glyph-name="backslash" unicode="\" horiz-adv-x="999" 
d="M623 -174l-406 1608h197l405 -1608h-196z" />
    <glyph glyph-name="bracketright" unicode="]" horiz-adv-x="626" 
d="M156 1536h473l-320 -1812h-473l25 139h303l270 1534h-303z" />
    <glyph glyph-name="asciicircum" unicode="^" horiz-adv-x="940" 
d="M705 1337l-457 -442l39 217l456 442l301 -442l-36 -217z" />
    <glyph glyph-name="underscore" unicode="_" horiz-adv-x="1046" 
d="M-143 -250l30 176h1033l-31 -176h-1032z" />
    <glyph glyph-name="grave" unicode="`" horiz-adv-x="559" 
d="M346 1352l27 147l309 -194l-14 -84z" />
    <glyph glyph-name="a" unicode="a" horiz-adv-x="1105" 
d="M562 860q-141 0 -233.5 -129t-92.5 -317q0 -189 74.5 -230t129.5 -41t113.5 28t132.5 115t74 261t-59.5 243.5t-138.5 69.5zM571 1024q167 0 234 -127l39 107h164l-121 -711q-8 -49 -8 -89t21.5 -58.5t74.5 -18.5l-51 -147q-106 0 -161 25t-73 122q-61 -72 -146 -109.5
t-164 -37.5q-154 0 -245.5 119.5t-91.5 301.5q0 245 109.5 381t207 189t211.5 53z" />
    <glyph glyph-name="b" unicode="b" horiz-adv-x="1064" 
d="M600 860q-133 0 -229.5 -121t-96.5 -331q0 -137 56.5 -201t134.5 -64q142 0 236 134.5t94 308.5q0 119 -49.5 196.5t-145.5 77.5zM365 895q112 129 278 129q165 0 254.5 -121t89.5 -301q0 -252 -155.5 -437t-370.5 -185q-66 0 -132.5 36.5t-103.5 110.5l-37 -127h-168
l271 1536h186z" />
    <glyph glyph-name="c" unicode="c" horiz-adv-x="856" 
d="M465 141q117 0 246 62l-6 -148q-122 -75 -296 -75t-268 118t-94 301q0 260 148 442.5t403 182.5q172 0 268 -59l-53 -166q-107 61 -209 61q-184 0 -275 -125t-91 -323q0 -123 55 -197t172 -74z" />
    <glyph glyph-name="d" unicode="d" horiz-adv-x="1064" 
d="M563 860q-142 0 -234.5 -129t-92.5 -315t72.5 -229.5t126.5 -43.5t114.5 26t135.5 114t75 299q0 137 -59.5 207.5t-137.5 70.5zM378 -20q-152 0 -243.5 119.5t-91.5 301.5q0 245 109.5 381t206 189t186.5 53t154.5 -24.5t105.5 -102.5l113 639h186l-270 -1536h-170l8 127
q-63 -74 -142 -110.5t-152 -36.5z" />
    <glyph glyph-name="e" unicode="e" horiz-adv-x="937" 
d="M571 860q-208 0 -309 -285q16 -2 27.5 -6t35.5 -9t99 -5q146 0 220.5 57t74.5 126q0 68 -44.5 95t-103.5 27zM502 143q150 0 276 60l-8 -146q-163 -77 -292 -77t-282 66.5t-153 367.5q0 250 155.5 430t391.5 180q147 0 223 -70.5t76 -185.5q0 -220 -165.5 -279
t-279.5 -59t-202 16q0 -244 102 -273.5t158 -29.5z" />
    <glyph glyph-name="f" unicode="f" horiz-adv-x="620" 
d="M380 1458q66 78 172 78q107 0 140 -10t51 -17l-51 -155q-52 18 -93 18q-40 0 -59.5 -9t-37.5 -45.5t-47 -191.5l-23 -122h232l-27 -144h-229l-152 -860h-186l151 860h-147l45 144h127l45 253q23 123 89 201z" />
    <glyph glyph-name="g" unicode="g" horiz-adv-x="940" 
d="M294 -369q153 0 237.5 53.5t84.5 109.5q0 99 -208 140q-77 18 -152 37q-70 -24 -121 -81.5t-51 -115.5t59.5 -100.5t150.5 -42.5zM510 877q-124 0 -192 -90.5t-68 -199.5q0 -214 164 -214q108 0 179 92.5t71 203.5t-43 159.5t-111 48.5zM229 182q0 -35 56.5 -54.5
t145.5 -37.5q181 -38 274.5 -90t93.5 -164q0 -136 -138 -242t-351 -106t-304.5 81t-91.5 188t70.5 171t130.5 88q-68 45 -68 115q0 27 28.5 76t100.5 86q-100 104 -100 279t124 313.5t324 138.5q125 0 211 -74q95 58 221 58h29l-39 -123h-55q-49 0 -92 -15q39 -76 39 -169
q0 -184 -125.5 -327t-319.5 -143q-66 0 -117 19q-47 -33 -47 -68z" />
    <glyph glyph-name="h" unicode="h" horiz-adv-x="1036" 
d="M580 860q-82 0 -138.5 -31.5t-105.5 -99.5l-129 -729h-187l271 1536h188l-114 -641q111 129 267 129q294 0 294 -322q0 -72 -17 -165l-94 -537h-186l94 537q14 75 14 159t-37.5 124t-119.5 40z" />
    <glyph glyph-name="i" unicode="i" horiz-adv-x="438" 
d="M20 0l177 1004h186l-176 -1004h-187zM238 1229l34 205h187l-35 -205h-186z" />
    <glyph glyph-name="j" unicode="j" horiz-adv-x="438" 
d="M238 1229l36 205h187l-37 -205h-186zM-174 -496l6 142q79 8 111 47t51 157l203 1154h186l-215 -1223q-21 -126 -95 -189t-182 -77z" />
    <glyph glyph-name="k" unicode="k" horiz-adv-x="876" 
d="M20 0l271 1536h186l-174 -985l399 453h222l-443 -463l271 -541h-220l-235 510l-90 -510h-187z" />
    <glyph glyph-name="l" unicode="l" horiz-adv-x="479" 
d="M246 -20q-109 0 -153 55t-44 131v20q0 21 4 35l232 1315h186l-213 -1208q-14 -86 -14 -128t25.5 -57.5t88.5 -15.5l-49 -147h-63z" />
    <glyph glyph-name="m" unicode="m" horiz-adv-x="1640" 
d="M344 897q126 127 264 127q108 0 177 -41t104 -160q113 201 356 201q291 0 291 -291q0 -66 -12 -141l-105 -592h-186l104 590q11 80 11 104q0 166 -156 166q-135 0 -193.5 -79t-83.5 -199l-102 -582h-186l98 553q12 76 12 129q0 104 -43 141t-117 37q-154 0 -241 -131
l-129 -729h-187l177 1004h147v-107z" />
    <glyph glyph-name="n" unicode="n" horiz-adv-x="1054" 
d="M758 676q0 184 -168 184t-254 -131l-129 -729h-187l177 1004h157l-6 -107q80 78 152.5 102.5t138.5 24.5q164 0 235.5 -84t71.5 -231q0 -84 -14 -156l-98 -553h-187l98 553q12 70 13 123z" />
    <glyph glyph-name="o" unicode="o" 
d="M584 860q-165 0 -258 -125.5t-93 -324.5q0 -125 53.5 -196t144.5 -71q166 0 258.5 125.5t92.5 325.5q0 125 -53.5 195.5t-144.5 70.5zM432 -20q-194 0 -291.5 117t-97.5 304q0 257 156 440t401 183q175 0 274 -116.5t99 -305.5q0 -257 -114 -389.5t-216.5 -182.5
t-210.5 -50z" />
    <glyph glyph-name="p" unicode="p" horiz-adv-x="1069" 
d="M602 860q-134 0 -231 -121t-97 -329q0 -139 57.5 -203t135.5 -64q143 0 235.5 132t92.5 313q0 119 -48.5 195.5t-144.5 76.5zM641 1024q169 0 257.5 -120t88.5 -300q0 -252 -142 -438t-380 -186q-66 0 -133.5 36.5t-104.5 110.5l-108 -623h-187l265 1500h151l-6 -144
q68 78 137.5 121t161.5 43z" />
    <glyph glyph-name="q" unicode="q" horiz-adv-x="1067" 
d="M563 860q-144 0 -234.5 -131t-90.5 -316t71.5 -227.5t126.5 -42.5t114.5 28t133.5 116.5t74 302.5q0 135 -58.5 202.5t-136.5 67.5zM373 -20q-159 0 -244.5 113t-85.5 294q0 254 107.5 392.5t204 191.5t203.5 53t162.5 -43t96.5 -121l43 144h152l-264 -1500h-187l111 623
q-63 -74 -143 -110.5t-156 -36.5z" />
    <glyph glyph-name="r" unicode="r" horiz-adv-x="628" 
d="M668 1040h28l-73 -202h-68q-84 0 -143.5 -52.5t-73.5 -76.5l-125 -709h-193l177 1004h161l-14 -166q167 202 324 202z" />
    <glyph glyph-name="s" unicode="s" horiz-adv-x="796" 
d="M485 879q-82 0 -138 -38t-56 -105t42.5 -95.5t106.5 -49.5q119 -39 180.5 -93.5t61.5 -167.5q0 -221 -137.5 -285.5t-262.5 -64.5t-198.5 31.5t-103.5 56.5l51 178q65 -65 141 -84t123 -19q192 0 192 148q0 57 -37.5 87.5t-95.5 49.5q-57 18 -98 34.5t-75 43t-55.5 66.5
t-21.5 141t97 206t301 105q148 0 248 -66l-50 -167q-78 88 -215 88z" />
    <glyph glyph-name="t" unicode="t" horiz-adv-x="620" 
d="M303 -20q-111 0 -156 55t-45 131v20q0 19 4 33l113 641h-147l41 144h131l45 247l188 19l-47 -266h227l-26 -144h-228l-92 -528q-16 -82 -16 -131t33.5 -61.5t120.5 -12.5h49l-41 -147h-154z" />
    <glyph glyph-name="u" unicode="u" horiz-adv-x="1011" 
d="M264 336q0 -193 146 -193t229 115l131 746h186l-176 -1004h-170l6 111q-106 -131 -254 -131t-220 70.5t-72 219.5q0 72 14 150l102 584h187l-94 -533q-15 -97 -15 -135z" />
    <glyph glyph-name="v" unicode="v" horiz-adv-x="899" 
d="M432 0h-190l-170 1004h196l105 -801l383 801h198z" />
    <glyph glyph-name="w" unicode="w" horiz-adv-x="1355" 
d="M948 0h-188l-58 741l-321 -741h-186l-95 1004h205l27 -801l321 770h178l52 -770l309 801h205z" />
    <glyph glyph-name="x" unicode="x" horiz-adv-x="899" 
d="M555 0l-156 391l-262 -391h-213l398 504l-216 500h213l136 -390l264 390h219l-416 -517l246 -487h-213z" />
    <glyph glyph-name="y" unicode="y" horiz-adv-x="940" 
d="M172 -496h-199l303 541l-210 959h206l138 -746l381 746h206z" />
    <glyph glyph-name="z" unicode="z" horiz-adv-x="880" 
d="M295 143h444l-26 -143h-772l608 860h-438l24 144h768z" />
    <glyph glyph-name="braceleft" unicode="{" horiz-adv-x="573" 
d="M293 455q0 -45 -11.5 -85t-35 -130t-23.5 -190q0 -99 45 -140t166 -45l-24 -141q-188 6 -269.5 68t-81.5 177q0 48 29 157.5t42 168.5t13 115q0 142 -96 219q155 99 189 285q16 92 23 172.5t18 146.5q24 141 129.5 218t322.5 85l-27 -141q-90 -4 -143 -21.5t-84 -57.5
t-47 -106.5t-30 -136.5t-17.5 -116t-10.5 -84q-15 -80 -48 -131t-129 -113q100 -80 100 -174z" />
    <glyph glyph-name="bar" unicode="|" horiz-adv-x="460" 
d="M-37 -428l346 1964h170l-346 -1964h-170z" />
    <glyph glyph-name="braceright" unicode="}" horiz-adv-x="567" 
d="M287 815q0 31 11 68t34.5 125.5t23.5 193.5q0 106 -45 147.5t-166 45.5l25 141q193 -6 271.5 -71.5t78.5 -176.5q0 -53 -28.5 -158.5t-42 -165t-13.5 -114.5q0 -145 94 -221q-90 -53 -131 -126t-56 -162t-23.5 -170t-18.5 -142q-25 -143 -128 -220t-323 -85l25 141
q170 4 214 61.5t60.5 123.5t30.5 142t19.5 123t12.5 85q14 77 47 124t128 105q-100 80 -100 186z" />
    <glyph glyph-name="asciitilde" unicode="~" horiz-adv-x="888" 
d="M541 473q78 0 139 105l84 -19q-35 -90 -97.5 -141t-123.5 -51t-111.5 35.5t-77 52t-51.5 16.5q-88 0 -135 -100l-90 18q33 94 101 139t118 45q49 0 79 -15t81 -50t84 -35z" />
    <glyph glyph-name="Zcaron" horiz-adv-x="1024" 
d="M266 176h580l-31 -176h-899l883 1257h-578l31 177h899zM711 1659l-236 203l14 84l244 -156l299 156l-14 -84z" />
    <glyph glyph-name="Zcaron" unicode="&#x17d;" horiz-adv-x="1024" 
d="M266 176h580l-31 -176h-899l883 1257h-578l31 177h899zM711 1659l-236 203l14 84l244 -156l299 156l-14 -84z" />
    <glyph glyph-name="zcaron" horiz-adv-x="880" 
d="M295 143h444l-26 -143h-772l608 860h-438l24 144h768zM555 1229l-236 203l15 84l244 -156l299 156l-15 -84z" />
    <glyph glyph-name="zcaron" unicode="&#x17e;" horiz-adv-x="880" 
d="M295 143h444l-26 -143h-772l608 860h-438l24 144h768zM555 1229l-236 203l15 84l244 -156l299 156l-15 -84z" />
    <glyph glyph-name="nonbreakingspace" unicode="&#xa0;" horiz-adv-x="460" 
 />
    <glyph glyph-name="exclamdown" unicode="&#xa1;" horiz-adv-x="483" 
d="M406 1024l-33 -176h-178l30 176h181zM178 614h129l-147 -1126h-230z" />
    <glyph glyph-name="cent" unicode="&#xa2;" horiz-adv-x="901" 
d="M656 1087q-178 0 -275.5 -139t-97.5 -325q0 -129 57 -207t171 -78t239 65l-13 -159q-92 -57 -221 -66l-29 -241h-174l74 245q-143 23 -223 133.5t-80 284.5q0 238 135.5 424t353.5 217l21 291h176l-80 -287q141 -11 213 -65l-45 -160q-103 67 -202 67z" />
    <glyph glyph-name="sterling" unicode="&#xa3;" horiz-adv-x="958" 
d="M764 1462q121 0 187.5 -50t78.5 -126l-147 -121q-27 115 -129 115t-140.5 -62t-64.5 -219l-33 -190h348l-63 -176h-328q-52 -225 -90.5 -307t-73.5 -150h465l-31 -176h-776q124 146 190 279.5t124 353.5h-172l63 176h152l41 235q33 191 122 304.5t277 113.5z" />
    <glyph glyph-name="currency" unicode="&#xa4;" horiz-adv-x="1193" 
d="M670 1106q-68 0 -133.5 -41t-137 -146t-71.5 -304q0 -200 82 -248t150 -48t134 41t137.5 146.5t71.5 305.5t-82.5 247t-150.5 47zM524.5 193q-137.5 0 -239.5 77l-181 -211l-61 50l176 208q-80 129 -80 301q0 260 221 490l-104 209l80 49l104 -211q137 78 268 78t238 -80
l182 213l62 -49l-178 -211q80 -129 80 -280q0 -152 -52.5 -270t-169.5 -241l107 -206l-80 -50l-106 211q-129 -77 -266.5 -77z" />
    <glyph glyph-name="yen" unicode="&#xa5;" horiz-adv-x="1282" 
d="M754 647h309l-62 -110h-278l-23 -127h322l-64 -111h-278l-53 -299h-195l51 299h-319l61 111h279l22 127h-321l61 110h269l-330 787h194l273 -629l493 629h195z" />
    <glyph glyph-name="brokenbar" unicode="&#xa6;" horiz-adv-x="460" 
d="M-33 -430l135 764h162l-135 -764h-162zM154 631l159 905h162l-158 -905h-163z" />
    <glyph glyph-name="section" unicode="&#xa7;" horiz-adv-x="874" 
d="M308 539q66 -54 171 -90q70 26 123 94.5t53 134.5q0 104 -68 152.5t-147 66.5q-56 0 -127 -55t-71 -152t66 -151zM635 227q0 -163 -92.5 -281t-282.5 -118q-80 0 -150.5 22.5t-99.5 57.5l45 129q113 -84 212 -84q100 0 164.5 49t64.5 148t-75 136.5t-203 83.5t-128 234
q0 135 60.5 234.5t187.5 142.5q-70 80 -70 178q0 237 132 307t228 70t165 -26.5t100 -55.5l-43 -129q-118 88 -213 88t-157 -60t-62 -126t28.5 -98.5t72.5 -57t95.5 -48.5t124 -81t72.5 -211t-83 -233.5t-159 -112.5q66 -79 66 -158z" />
    <glyph glyph-name="dieresis" unicode="&#xa8;" horiz-adv-x="778" 
d="M377 1229l37 205h143l-35 -205h-145zM688 1229l37 205h145l-36 -205h-146z" />
    <glyph glyph-name="copyright" unicode="&#xa9;" horiz-adv-x="1366" 
d="M563 710q0 -186 127 -186q67 0 164 41l-8 -121q-80 -41 -185 -41q-106 0 -171.5 73.5t-65.5 181.5q0 197 105 312t257 115q90 0 166 -38l-37 -123q-85 39 -142 39q-102 0 -156 -80.5t-54 -172.5zM790 1327q-118 0 -225.5 -58.5t-219.5 -207t-112 -447.5q0 -200 94.5 -324
t280.5 -124q139 0 247 59.5t219.5 208t111.5 445.5q0 201 -68.5 291t-139 123.5t-188.5 33.5zM610 76q-233 0 -360 146t-127 394q0 176 56.5 323.5t153.5 254t225 166t252 59.5q231 0 358.5 -146t127.5 -392q0 -176 -56 -324.5t-151.5 -255t-225 -166t-253.5 -59.5z" />
    <glyph glyph-name="ordfeminine" unicode="&#xaa;" horiz-adv-x="673" 
d="M373 1004q33 0 80 34l22 129q-47 0 -104.5 -32.5t-57.5 -81.5t60 -49zM459 952q-63 -63 -184 -63q-51 0 -89.5 38.5t-38.5 106.5t69.5 146t275.5 90q0 43 -11.5 64.5t-70.5 21.5t-156 -41l10 123q115 47 217 47q172 0 172 -162q0 -70 -20.5 -136.5t-20.5 -113.5t8.5 -53
t24.5 -6h23l-33 -125h-70q-35 0 -65.5 17.5t-40.5 45.5z" />
    <glyph glyph-name="guillemotleft" unicode="&#xab;" horiz-adv-x="1095" 
d="M242 160l-199 422l348 422h213l-348 -422l199 -422h-213zM721 160l-199 422l348 422h213l-348 -422l201 -422h-215z" />
    <glyph glyph-name="logicalnot" unicode="&#xac;" horiz-adv-x="1128" 
d="M803 309l69 400h-722l22 122h848l-92 -522h-125z" />
    <glyph glyph-name="uni00AD" unicode="&#xad;" horiz-adv-x="813" 
d="M96 471l35 193h571l-34 -193h-572z" />
    <glyph glyph-name="registered" unicode="&#xae;" horiz-adv-x="1366" 
d="M815 913q0 74 -84 74h-67l-37 -203h65q123 0 123 129zM952 932q0 -135 -133 -227l84 -275h-133l-76 240h-88l-41 -240h-131l117 657h223q80 0 129 -32.5t49 -122.5zM233 616q0 -202 95 -327t280 -125q139 0 247 59.5t220.5 211t112.5 444.5q0 203 -94 326.5t-302 123.5
q-118 0 -226.5 -59.5t-220.5 -208t-112 -445.5zM610 76q-233 0 -360 146t-127 394q0 176 56.5 323.5t153.5 254t225 166t252 59.5q231 0 358.5 -146t127.5 -392q0 -176 -56 -324.5t-151.5 -255t-225 -166t-253.5 -59.5z" />
    <glyph glyph-name="degree" unicode="&#xb0;" horiz-adv-x="636" 
d="M465 1493q-74 0 -130 -87.5t-56 -174.5q0 -191 112 -191q83 0 139 86.5t56 173.5t-20.5 125.5t-42 53t-58.5 14.5zM368 987q-83 0 -134.5 64.5t-51.5 145.5q0 153 85.5 251t199.5 98t164.5 -65.5t50.5 -147.5t-21.5 -141t-61.5 -105.5t-94 -73t-137 -26.5z" />
    <glyph glyph-name="plusminus" unicode="&#xb1;" horiz-adv-x="946" 
d="M45 86l25 137h682l-25 -137h-682zM557 670l-53 -295h-135l53 295h-275l25 137h272l52 283h135l-49 -283h272l-25 -137h-272z" />
    <glyph glyph-name="twosuperior" unicode="&#xb2;" horiz-adv-x="585" 
d="M434 1446q92 0 132 -50t40 -106q0 -94 -57 -198t-205 -293h207l-27 -144h-463q253 301 313 390.5t73.5 126t13.5 67.5q0 84 -76 84q-86 0 -135 -54.5t-57 -66.5v133q95 111 241 111z" />
    <glyph glyph-name="threesuperior" unicode="&#xb3;" horiz-adv-x="591" 
d="M575 946q0 -149 -100.5 -228t-224.5 -79q-58 0 -117.5 21t-71.5 40l62 136q8 -23 53.5 -38.5t101.5 -15.5t103 30t47 112q0 96 -100 96h-105l33 113h53q116 0 131 48t15 68q0 72 -87 72t-135 -35l-4 109q23 16 73 33.5t108 17.5q106 0 152 -49.5t46 -122.5
q0 -121 -92 -189q59 -55 59 -139z" />
    <glyph glyph-name="acute" unicode="&#xb4;" horiz-adv-x="557" 
d="M322 1221l14 84l379 194l-25 -147z" />
    <glyph glyph-name="mu" unicode="&#xb5;" horiz-adv-x="1142" 
d="M690 129q-132 -152 -252 -152q-66 0 -106.5 13.5t-87.5 64.5l-97 -551h-184l264 1500h185l-93 -529q-14 -72 -14 -153q0 -82 37 -131.5t117 -49.5t130 28t103 91l131 744h183l-115 -656q-14 -68 -14 -131q0 -90 59 -90h37l-51 -147h-60q-145 0 -172 149z" />
    <glyph glyph-name="paragraph" unicode="&#xb6;" horiz-adv-x="1171" 
d="M129 914q0 83 40 177.5t168 218.5t411 124h479l-25 -138h-135l-229 -1296h-111l227 1296h-161l-230 -1296h-92l88 498q-213 15 -321.5 130.5t-108.5 285.5z" />
    <glyph glyph-name="periodcentered" unicode="&#xb7;" horiz-adv-x="471" 
d="M90 436l47 266h230l-48 -266h-229z" />
    <glyph glyph-name="cedilla" unicode="&#xb8;" horiz-adv-x="557" 
d="M289 -383l-103 -10l174 270l146 12z" />
    <glyph glyph-name="onesuperior" unicode="&#xb9;" horiz-adv-x="430" 
d="M160 655l100 566q-46 -29 -94 -35l14 123q32 5 79.5 41.5t70.5 79.5h116l-135 -775h-151z" />
    <glyph glyph-name="ordmasculine" unicode="&#xba;" horiz-adv-x="714" 
d="M495 1364q-76 0 -121.5 -62t-45.5 -139q0 -151 100 -151q70 0 116 63t46 139t-26 113t-69 37zM230 959.5q-62 70.5 -62 194.5t96.5 227.5t245.5 103.5q115 0 177.5 -71t62.5 -158t-25 -149.5t-99.5 -140t-203.5 -77.5q-130 0 -192 70.5z" />
    <glyph glyph-name="guillemotright" unicode="&#xbb;" horiz-adv-x="1097" 
d="M219 160h-213l350 422l-200 422h213l198 -422zM698 160h-213l349 422l-199 422h211l201 -422z" />
    <glyph glyph-name="onequarter" unicode="&#xbc;" horiz-adv-x="1355" 
d="M190 655l101 566q-46 -29 -94 -35l14 123q34 5 82 42t67 79h117l-135 -775h-152zM195 -174h-205l973 1608h204zM1034 555l-164 -225h125zM1122 213l-37 -211h-149l39 211h-324l445 563h127l-80 -446h92l-21 -117h-92z" />
    <glyph glyph-name="onehalf" unicode="&#xbd;" horiz-adv-x="1372" 
d="M188 655l101 566q-46 -29 -94 -35l14 123q34 5 82 42t67 79h117l-135 -775h-152zM188 -174h-204l972 1608h205zM1266 683q8 -30 8 -86q0 -118 -262 -452h207l-27 -143h-463q257 306 315 393q58 86 71 123t13 68q0 84 -75 84q-62 0 -113 -40t-80 -81v133q92 108 242 111
q130 0 164 -110z" />
    <glyph glyph-name="threequarters" unicode="&#xbe;" horiz-adv-x="1667" 
d="M600 946q0 -148 -100 -227q-100 -80 -226 -80q-62 0 -120 22q-59 22 -68 39l61 136q9 -23 55 -38q46 -16 102 -16t102 30q47 30 47 112q0 96 -101 96h-104l33 113h53q145 0 145 116q0 70 -86 71t-135 -34l-4 109q23 16 73 33q50 18 108 18q106 1 152 -49t46 -123
q0 -119 -92 -189q59 -55 59 -139zM498 -174h-205l973 1608h204zM1341 555l-163 -225h125zM1430 213l-37 -211h-150l39 211h-324l445 563h127l-80 -446h92l-20 -117h-92z" />
    <glyph glyph-name="questiondown" unicode="&#xbf;" horiz-adv-x="854" 
d="M659 1024l-30 -176h-189l31 176h188zM166 -191q0 -89 54 -137.5t112 -48.5q92 0 165 45t111 94l25 -137q-47 -57 -134 -97t-179 -40q-160 0 -244 100t-84 230t73.5 232t127 162t135 159.5t96.5 187.5l10 55h123q-11 -142 -49.5 -209t-81.5 -120.5t-88 -104.5t-84 -105.5
t-63.5 -115.5t-24.5 -150z" />
    <glyph glyph-name="Agrave" unicode="&#xc0;" horiz-adv-x="1163" 
d="M688 1161l-278 -598h346zM840 0l-52 387h-473l-186 -387h-205l715 1434h197l208 -1434h-204zM627 1782l26 147l310 -194l-15 -84z" />
    <glyph glyph-name="Aacute" unicode="&#xc1;" horiz-adv-x="1163" 
d="M688 1161l-278 -598h346zM840 0l-52 387h-473l-186 -387h-205l715 1434h197l208 -1434h-204zM604 1651l14 84l379 194l-24 -147z" />
    <glyph glyph-name="Acircumflex" unicode="&#xc2;" horiz-adv-x="1163" 
d="M688 1161l-278 -598h346zM840 0l-52 387h-473l-186 -387h-205l715 1434h197l208 -1434h-204zM809 1833l-301 -168l12 74l309 217l234 -217l-12 -74z" />
    <glyph glyph-name="Atilde" unicode="&#xc3;" horiz-adv-x="1163" 
d="M688 1161l-278 -598h346zM840 0l-52 387h-473l-186 -387h-205l715 1434h197l208 -1434h-204zM905 1657q-45 0 -118 52q-29 19 -55 35t-50 17q-88 0 -135 -100l-90 18q33 93 99 138t118 46q51 1 81 -15t82 -49q52 -34 83 -36q77 0 139 105l84 -19q-35 -90 -97 -141
t-141 -51z" />
    <glyph glyph-name="Adieresis" unicode="&#xc4;" horiz-adv-x="1163" 
d="M688 1161l-278 -598h346zM840 0l-52 387h-473l-186 -387h-205l715 1434h197l208 -1434h-204zM549 1659l37 205h143l-35 -205h-145zM860 1659l37 205h145l-36 -205h-146z" />
    <glyph glyph-name="Aring" unicode="&#xc5;" horiz-adv-x="1163" 
d="M688 1161l-278 -598h346zM840 0l-52 387h-473l-186 -387h-205l715 1434h197l208 -1434h-204zM698 1778q0 -108 88 -109q40 0 80 40q39 41 39 95q1 54 -23 82t-65 27q-41 0 -80 -40q-39 -39 -39 -95zM754 1610q-68 0 -108 47t-40 96q0 95 64 159t156 64t130 -47t39 -97
q0 -50 -15 -88t-44 -68t-71 -48q-43 -18 -111 -18z" />
    <glyph glyph-name="AE" unicode="&#xc6;" horiz-adv-x="1613" 
d="M854 1251l-416 -694h295zM1438 0h-803l63 369h-381l-229 -369h-194l882 1434h897l-33 -179h-565l-74 -417h437l-31 -176h-436l-86 -486h583z" />
    <glyph glyph-name="Ccedilla" unicode="&#xc7;" horiz-adv-x="1157" 
d="M94 569q0 199 64 363q126 329 423 465q144 66 304 65q98 0 191 -24t155 -60l-53 -180q-72 28 -148 58t-190 30t-214 -58q-101 -58 -172 -156q-145 -199 -145 -495t193 -396q66 -34 158 -34t178 29t170 57l-13 -180q-177 -82 -383 -82q-110 0 -208 42t-166 120
q-144 161 -144 436zM377 -383l-103 -10l175 270l145 12z" />
    <glyph glyph-name="Egrave" unicode="&#xc8;" 
d="M874 0h-817l252 1434h801l-31 -177h-604l-74 -419h476l-31 -176h-475l-86 -486h620zM561 1782l27 147l309 -194l-14 -84z" />
    <glyph glyph-name="Eacute" unicode="&#xc9;" 
d="M874 0h-817l252 1434h801l-31 -177h-604l-74 -419h476l-31 -176h-475l-86 -486h620zM537 1651l14 84l379 194l-25 -147z" />
    <glyph glyph-name="Ecircumflex" unicode="&#xca;" 
d="M874 0h-817l252 1434h801l-31 -177h-604l-74 -419h476l-31 -176h-475l-86 -486h620zM743 1833l-301 -168l13 74l309 217l233 -217l-12 -74z" />
    <glyph glyph-name="Edieresis" unicode="&#xcb;" 
d="M874 0h-817l252 1434h801l-31 -177h-604l-74 -419h476l-31 -176h-475l-86 -486h620zM483 1659l37 205h144l-35 -205h-146zM795 1659l36 205h146l-37 -205h-145z" />
    <glyph glyph-name="Igrave" unicode="&#xcc;" horiz-adv-x="522" 
d="M57 0l252 1434h195l-252 -1434h-195zM301 1782l27 147l309 -194l-14 -84z" />
    <glyph glyph-name="Iacute" unicode="&#xcd;" horiz-adv-x="522" 
d="M57 0l252 1434h195l-252 -1434h-195zM276 1651l15 84l379 194l-25 -147z" />
    <glyph glyph-name="Icircumflex" unicode="&#xce;" horiz-adv-x="522" 
d="M57 0l252 1434h195l-252 -1434h-195zM481 1833l-301 -168l13 74l309 217l233 -217l-12 -74z" />
    <glyph glyph-name="Idieresis" unicode="&#xcf;" horiz-adv-x="522" 
d="M57 0l252 1434h195l-252 -1434h-195zM221 1659l37 205h143l-34 -205h-146zM532 1659l37 205h146l-37 -205h-146z" />
    <glyph glyph-name="Eth" unicode="&#xd0;" horiz-adv-x="1380" 
d="M575 178q250 0 393.5 188.5t143.5 481.5q0 184 -86 296.5t-260 112.5h-287l-86 -485h240l-25 -131h-237l-82 -463h286zM545 0h-475l112 641h-176l23 131h176l117 662h475q240 0 383 -152.5t143 -419.5q0 -199 -61.5 -358.5t-167 -271t-246.5 -172t-303 -60.5z" />
    <glyph glyph-name="Ntilde" unicode="&#xd1;" horiz-adv-x="1337" 
d="M901 0l-448 1133l-201 -1133h-195l252 1434h205l420 -1074l188 1074h197l-254 -1434h-164zM979 1657q-45 0 -118 52q-29 19 -55 35t-50 17q-88 0 -135 -100l-91 18q32 92 99 137t119 47q50 1 80 -15t82 -49q52 -34 83 -36q78 0 140 105l84 -19q-35 -90 -97 -141t-141 -51
z" />
    <glyph glyph-name="Ograve" unicode="&#xd2;" horiz-adv-x="1454" 
d="M1186 850q0 301 -188 402q-64 34 -170 34t-207 -58q-100 -58 -170 -156q-142 -200 -142 -496t188 -395q65 -34 171 -34q106 1 206 59q198 116 275 382q37 127 37 262zM634 -29q-259 0 -399 162q-141 162 -141 434q0 199 63 363q126 332 418 467q143 65 283 65
q260 -1 401 -163q140 -162 140 -433q0 -199 -63 -363q-124 -331 -420 -467q-142 -66 -282 -65zM762 1782l26 147l310 -194l-15 -84z" />
    <glyph glyph-name="Oacute" unicode="&#xd3;" horiz-adv-x="1454" 
d="M1186 850q0 301 -188 402q-64 34 -170 34t-207 -58q-100 -58 -170 -156q-142 -200 -142 -496t188 -395q65 -34 171 -34q106 1 206 59q198 116 275 382q37 127 37 262zM634 -29q-259 0 -399 162q-141 162 -141 434q0 199 63 363q126 332 418 467q143 65 283 65
q260 -1 401 -163q140 -162 140 -433q0 -199 -63 -363q-124 -331 -420 -467q-142 -66 -282 -65zM739 1651l15 84l379 194l-25 -147z" />
    <glyph glyph-name="Ocircumflex" unicode="&#xd4;" horiz-adv-x="1454" 
d="M1186 850q0 301 -188 402q-64 34 -170 34t-207 -58q-100 -58 -170 -156q-142 -200 -142 -496t188 -395q65 -34 171 -34q106 1 206 59q198 116 275 382q37 127 37 262zM634 -29q-259 0 -399 162q-141 162 -141 434q0 199 63 363q126 332 418 467q143 65 283 65
q260 -1 401 -163q140 -162 140 -433q0 -199 -63 -363q-124 -331 -420 -467q-142 -66 -282 -65zM944 1833l-301 -168l12 74l310 217l233 -217l-12 -74z" />
    <glyph glyph-name="Otilde" unicode="&#xd5;" horiz-adv-x="1454" 
d="M1186 850q0 301 -188 402q-64 34 -170 34t-207 -58q-100 -58 -170 -156q-142 -200 -142 -496t188 -395q65 -34 171 -34q106 1 206 59q198 116 275 382q37 127 37 262zM634 -29q-259 0 -399 162q-141 162 -141 434q0 199 63 363q126 332 418 467q143 65 283 65
q260 -1 401 -163q140 -162 140 -433q0 -199 -63 -363q-124 -331 -420 -467q-142 -66 -282 -65zM1178 1708q-62 -51 -124 -51t-133 52q-77 52 -106 52q-88 0 -135 -100l-90 18q33 93 99 138t118 46q51 1 81 -15t82 -49q52 -34 83 -36q77 0 139 105l84 -19q-36 -90 -98 -141z
" />
    <glyph glyph-name="Odieresis" unicode="&#xd6;" horiz-adv-x="1454" 
d="M1186 850q0 301 -188 402q-64 34 -170 34t-207 -58q-100 -58 -170 -156q-142 -200 -142 -496t188 -395q65 -34 171 -34q106 1 206 59q198 116 275 382q37 127 37 262zM634 -29q-259 0 -399 162q-141 162 -141 434q0 199 63 363q126 332 418 467q143 65 283 65
q260 -1 401 -163q140 -162 140 -433q0 -199 -63 -363q-124 -331 -420 -467q-142 -66 -282 -65zM684 1659l37 205h143l-35 -205h-145zM995 1659l37 205h146l-37 -205h-146z" />
    <glyph glyph-name="multiply" unicode="&#xd7;" horiz-adv-x="845" 
d="M575 244l-174 252l-260 -252l-67 73l262 250l-174 250l94 74l172 -252l262 252l68 -74l-262 -250l174 -250z" />
    <glyph glyph-name="Oslash" unicode="&#xd8;" horiz-adv-x="1456" 
d="M832 1280q-113 0 -211.5 -58.5t-202 -205.5t-103.5 -428q0 -129 33 -269l688 904q-91 57 -204 57zM1184 868q0 166 -41 254l-690 -907q89 -59 206 -59t216.5 58t204 208.5t104.5 445.5zM1401 860q0 -197 -62.5 -359.5t-169 -279.5t-250 -181.5t-306.5 -64.5t-298 88
l-94 -124h-196l178 215q-107 170 -107 392t62.5 386t169 281.5t249 183t305.5 65.5t289 -86l70 90h195l-150 -182q115 -171 115 -424z" />
    <glyph glyph-name="Ugrave" unicode="&#xd9;" horiz-adv-x="1368" 
d="M573 -29q-227 0 -333 118t-107 329q0 88 19 190l145 826h195l-130 -732q-24 -146 -24 -224q0 -162 61 -246q61 -85 205 -85q195 0 309 172q85 130 129 383l129 732h195l-145 -826q-85 -464 -404 -593q-109 -44 -244 -44zM717 1782l26 147l310 -194l-15 -84z" />
    <glyph glyph-name="Uacute" unicode="&#xda;" horiz-adv-x="1368" 
d="M573 -29q-227 0 -333 118t-107 329q0 88 19 190l145 826h195l-130 -732q-24 -146 -24 -224q0 -162 61 -246q61 -85 205 -85q195 0 309 172q85 130 129 383l129 732h195l-145 -826q-85 -464 -404 -593q-109 -44 -244 -44zM696 1651l15 84l379 194l-25 -147z" />
    <glyph glyph-name="Ucircumflex" unicode="&#xdb;" horiz-adv-x="1368" 
d="M573 -29q-227 0 -333 118t-107 329q0 88 19 190l145 826h195l-130 -732q-24 -146 -24 -224q0 -162 61 -246q61 -85 205 -85q195 0 309 172q85 130 129 383l129 732h195l-145 -826q-85 -464 -404 -593q-109 -44 -244 -44zM901 1833l-301 -168l12 74l310 217l233 -217
l-12 -74z" />
    <glyph glyph-name="Udieresis" unicode="&#xdc;" horiz-adv-x="1368" 
d="M573 -29q-227 0 -333 118t-107 329q0 88 19 190l145 826h195l-130 -732q-24 -146 -24 -224q0 -162 61 -246q61 -85 205 -85q195 0 309 172q85 130 129 383l129 732h195l-145 -826q-85 -464 -404 -593q-109 -44 -244 -44zM641 1659l37 205h143l-35 -205h-145zM952 1659
l37 205h146l-37 -205h-146z" />
    <glyph glyph-name="Yacute" unicode="&#xdd;" horiz-adv-x="1118" 
d="M664 662l-117 -662h-201l117 662l-303 772h205l229 -596l438 596h205zM580 1651l14 84l379 194l-25 -147z" />
    <glyph glyph-name="Thorn" unicode="&#xde;" horiz-adv-x="1075" 
d="M565 430q164 0 238 106t74 281q0 106 -55.5 151.5t-190.5 45.5h-195l-102 -584h231zM664 1188q204 0 310.5 -68t106.5 -252t-52 -299.5t-129 -184.5t-167 -98.5t-166 -29.5h-264l-45 -256h-201l252 1434h201l-43 -246h197z" />
    <glyph glyph-name="germandbls" unicode="&#xdf;" horiz-adv-x="1044" 
d="M510 -20q-60 0 -81 2t-46 4l29 157q199 0 251 20.5t74.5 58.5t22.5 109t-34 130t-75 109.5t-74.5 93.5t-33.5 85t42 89t92 105t92 130t42 158t-43 113.5t-95 27.5q-102 0 -152 -55t-75 -195l-247 -1401h-187l201 1139h-147l45 144h129l30 178q27 163 148 258.5t257 95.5
q137 0 229.5 -68.5t92.5 -192.5t-38.5 -205t-86 -140.5t-86 -98t-38.5 -62.5t31.5 -59.5t102 -128.5t70.5 -233q0 -188 -107.5 -259t-191 -90t-143.5 -19z" />
    <glyph glyph-name="agrave" unicode="&#xe0;" horiz-adv-x="1105" 
d="M760 592q0 128 -60 198t-138 70q-141 0 -235 -130q-93 -130 -92 -317t111 -248q39 -22 94 -22q56 0 114 28t103 81t74 132t29 208zM571 1024q166 0 234 -127l39 107h164l-121 -711q-8 -49 -8 -89t21 -59q22 -18 75 -18l-51 -147q-106 0 -143 17q-72 33 -91 130
q-61 -72 -146 -110q-168 -75 -304 -6q-197 103 -197 403q0 104 39 217q79 230 277 340q97 53 212 53zM586 1352l26 147l310 -194l-15 -84z" />
    <glyph glyph-name="aacute" unicode="&#xe1;" horiz-adv-x="1105" 
d="M760 592q0 128 -60 198t-138 70q-141 0 -235 -130q-93 -130 -92 -317t111 -248q39 -22 94 -22q56 0 114 28t103 81t74 132t29 208zM571 1024q166 0 234 -127l39 107h164l-121 -711q-8 -49 -8 -89t21 -59q22 -18 75 -18l-51 -147q-106 0 -143 17q-72 33 -91 130
q-61 -72 -146 -110q-168 -75 -304 -6q-197 103 -197 403q0 104 39 217q79 230 277 340q97 53 212 53zM563 1221l15 84l378 194l-24 -147z" />
    <glyph glyph-name="acircumflex" unicode="&#xe2;" horiz-adv-x="1105" 
d="M760 592q0 128 -60 198t-138 70q-141 0 -235 -130q-93 -130 -92 -317t111 -248q39 -22 94 -22q56 0 114 28t103 81t74 132t29 208zM571 1024q166 0 234 -127l39 107h164l-121 -711q-8 -49 -8 -89t21 -59q22 -18 75 -18l-51 -147q-106 0 -143 17q-72 33 -91 130
q-61 -72 -146 -110q-168 -75 -304 -6q-197 103 -197 403q0 104 39 217q79 230 277 340q97 53 212 53zM768 1403l-301 -168l12 74l309 217l234 -217l-12 -74z" />
    <glyph glyph-name="atilde" unicode="&#xe3;" horiz-adv-x="1105" 
d="M760 592q0 128 -60 198t-138 70q-141 0 -235 -130q-93 -130 -92 -317t111 -248q39 -22 94 -22q56 0 114 28t103 81t74 132t29 208zM571 1024q166 0 234 -127l39 107h164l-121 -711q-8 -49 -8 -89t21 -59q22 -18 75 -18l-51 -147q-106 0 -143 17q-72 33 -91 130
q-61 -72 -146 -110q-168 -75 -304 -6q-197 103 -197 403q0 104 39 217q79 230 277 340q97 53 212 53zM856 1227q-45 0 -118 52q-28 19 -54 35t-51 17q-88 0 -135 -100l-90 18q33 93 99 138t118 46q51 1 81 -15t80 -49q50 -34 84 -36q78 0 140 105l84 -19q-36 -90 -98 -141
t-140 -51z" />
    <glyph glyph-name="adieresis" unicode="&#xe4;" horiz-adv-x="1105" 
d="M760 592q0 128 -60 198t-138 70q-141 0 -235 -130q-93 -130 -92 -317t111 -248q39 -22 94 -22q56 0 114 28t103 81t74 132t29 208zM571 1024q166 0 234 -127l39 107h164l-121 -711q-8 -49 -8 -89t21 -59q22 -18 75 -18l-51 -147q-106 0 -143 17q-72 33 -91 130
q-61 -72 -146 -110q-168 -75 -304 -6q-197 103 -197 403q0 104 39 217q79 230 277 340q97 53 212 53zM508 1229l37 205h143l-35 -205h-145zM819 1229l37 205h145l-36 -205h-146z" />
    <glyph glyph-name="aring" unicode="&#xe5;" horiz-adv-x="1105" 
d="M760 592q0 128 -60 198t-138 70q-141 0 -235 -130q-93 -130 -92 -317t111 -248q39 -22 94 -22q56 0 114 28t103 81t74 132t29 208zM571 1024q166 0 234 -127l39 107h164l-121 -711q-8 -49 -8 -89t21 -59q22 -18 75 -18l-51 -147q-106 0 -143 17q-72 33 -91 130
q-61 -72 -146 -110q-168 -75 -304 -6q-197 103 -197 403q0 104 39 217q79 230 277 340q97 53 212 53zM657 1348q1 -108 89 -109q40 0 79 40t39 94t-23 82q-24 28 -65 28t-80 -40q-39 -39 -39 -95zM714 1180q-68 0 -109 47q-40 47 -40 96q1 95 65 159t156 64t130 -47t38 -97
t-15 -88t-44 -68t-71 -48t-110 -18z" />
    <glyph glyph-name="ae" unicode="&#xe6;" horiz-adv-x="1490" 
d="M180 229q0 -102 115 -102q178 0 232.5 135.5t66.5 239.5q-152 0 -283 -67t-131 -206zM1268 707q0 153 -158 153q-195 0 -283 -231h433q8 39 8 78zM784 406q0 -141 64.5 -210t170.5 -69t271 76v-142q-162 -81 -307 -81t-228 53t-112 178q-143 -240 -416 -240
q-123 0 -183 59.5t-60 153.5t29.5 161t129.5 163t459 121q2 14 2 17v34q0 96 -37 138t-131 42t-239 -59l8 143q172 80 295 80t171 -36t71.5 -84t23.5 -126q54 126 155.5 186t231.5 60q129 0 208 -83t79 -239q0 -85 -39 -200h-608q-9 -61 -9 -96z" />
    <glyph glyph-name="ccedilla" unicode="&#xe7;" horiz-adv-x="856" 
d="M465 141q117 0 246 62l-6 -148q-122 -75 -295 -75q-174 0 -269 118q-94 118 -94 301q0 260 148 442q148 183 403 183q176 0 268 -59l-53 -166q-107 61 -209 61q-268 0 -344 -270q-22 -82 -22 -192t55 -183q55 -74 172 -74zM285 -383l-103 -10l174 270l146 12z" />
    <glyph glyph-name="egrave" unicode="&#xe8;" horiz-adv-x="937" 
d="M571 860q-208 0 -309 -285q16 -2 42 -11t110 -9q159 0 232 58t73 125q0 122 -148 122zM43 414q0 250 156 430t391 180q147 0 223 -70t76 -195q0 -124 -98 -216q-122 -113 -369 -113q-92 0 -180 16q0 -246 157 -289q47 -13 103 -14q150 0 276 60l-8 -146
q-166 -79 -317 -77q-200 0 -305 119q-105 120 -105 315zM444 1352l27 147l309 -194l-14 -84z" />
    <glyph glyph-name="eacute" unicode="&#xe9;" horiz-adv-x="937" 
d="M571 860q-208 0 -309 -285q16 -2 42 -11t110 -9q159 0 232 58t73 125q0 122 -148 122zM43 414q0 250 156 430t391 180q147 0 223 -70t76 -195q0 -124 -98 -216q-122 -113 -369 -113q-92 0 -180 16q0 -246 157 -289q47 -13 103 -14q150 0 276 60l-8 -146
q-166 -79 -317 -77q-200 0 -305 119q-105 120 -105 315zM424 1221l14 84l379 194l-24 -147z" />
    <glyph glyph-name="ecircumflex" unicode="&#xea;" horiz-adv-x="937" 
d="M571 860q-208 0 -309 -285q16 -2 42 -11t110 -9q159 0 232 58t73 125q0 122 -148 122zM43 414q0 250 156 430t391 180q147 0 223 -70t76 -195q0 -124 -98 -216q-122 -113 -369 -113q-92 0 -180 16q0 -246 157 -289q47 -13 103 -14q150 0 276 60l-8 -146
q-166 -79 -317 -77q-200 0 -305 119q-105 120 -105 315zM629 1403l-301 -168l12 74l309 217l234 -217l-13 -74z" />
    <glyph glyph-name="edieresis" unicode="&#xeb;" horiz-adv-x="937" 
d="M571 860q-208 0 -309 -285q16 -2 42 -11t110 -9q159 0 232 58t73 125q0 122 -148 122zM43 414q0 250 156 430t391 180q147 0 223 -70t76 -195q0 -124 -98 -216q-122 -113 -369 -113q-92 0 -180 16q0 -246 157 -289q47 -13 103 -14q150 0 276 60l-8 -146
q-166 -79 -317 -77q-200 0 -305 119q-105 120 -105 315zM369 1229l37 205h143l-35 -205h-145zM680 1229l37 205h145l-37 -205h-145z" />
    <glyph glyph-name="igrave" unicode="&#xec;" horiz-adv-x="438" 
d="M20 0l177 1004h186l-176 -1004h-187zM182 1352l27 147l309 -194l-14 -84z" />
    <glyph glyph-name="iacute" unicode="&#xed;" horiz-adv-x="438" 
d="M20 0l177 1004h186l-176 -1004h-187zM158 1221l14 84l379 194l-25 -147z" />
    <glyph glyph-name="icircumflex" unicode="&#xee;" horiz-adv-x="438" 
d="M20 0l177 1004h186l-176 -1004h-187zM362 1403l-301 -168l13 74l309 217l233 -217l-12 -74z" />
    <glyph glyph-name="idieresis" unicode="&#xef;" horiz-adv-x="438" 
d="M20 0l177 1004h186l-176 -1004h-187zM102 1229l37 205h144l-35 -205h-146zM414 1229l37 205h145l-37 -205h-145z" />
    <glyph glyph-name="eth" unicode="&#xf0;" horiz-adv-x="997" 
d="M508 702q-132 0 -210.5 -100.5t-78.5 -212.5t44 -178t143 -66t180.5 101t81.5 241q0 96 -43 155.5t-117 59.5zM907 700q0 -392 -136 -526.5t-231.5 -166.5t-175.5 -32q-154 0 -249 103t-95 262q0 82 32 176t134 225t314 131q90 0 140 -37.5t77 -74.5q2 12 2 16v37
q0 159 -31 234t-51 100q-147 -109 -279 -127l-41 113q124 20 250 106q-73 90 -202 111l79 86q133 0 254 -113q104 99 129 131l93 -24q-34 -41 -158 -173q107 -137 126 -307t19 -250z" />
    <glyph glyph-name="ntilde" unicode="&#xf1;" horiz-adv-x="1054" 
d="M641 1024q161 0 233 -84t72 -231q0 -84 -14 -156l-98 -553h-187l98 553q13 71 13 145t-42 118t-124 44q-170 0 -256 -131l-129 -729h-187l177 1004h157l-6 -107q131 127 293 127zM904 1278q-62 -51 -125 -51t-133 52q-28 19 -54 35t-51 17q-88 0 -135 -100l-91 18
q33 94 100 138t118 46q51 1 81 -15t80 -49q51 -34 84 -36q78 0 140 105l83 -19q-35 -90 -97 -141z" />
    <glyph glyph-name="ograve" unicode="&#xf2;" 
d="M584 860q-164 0 -258 -125q-93 -125 -93 -325q-1 -125 53 -196t145 -71t153 34q198 109 198 431q0 112 -53 182q-54 70 -145 70zM432 -20q-108 0 -178 32q-211 98 -211 406q0 108 40 221t114 199q160 186 403 186q177 0 275 -117t98 -305q0 -257 -154 -436
q-74 -86 -176 -136q-103 -50 -211 -50zM485 1352l27 147l309 -194l-14 -84z" />
    <glyph glyph-name="oacute" unicode="&#xf3;" 
d="M584 860q-164 0 -258 -125q-93 -125 -93 -325q-1 -125 53 -196t145 -71t153 34q198 109 198 431q0 112 -53 182q-54 70 -145 70zM432 -20q-108 0 -178 32q-211 98 -211 406q0 108 40 221t114 199q160 186 403 186q177 0 275 -117t98 -305q0 -257 -154 -436
q-74 -86 -176 -136q-103 -50 -211 -50zM461 1221l14 84l379 194l-25 -147z" />
    <glyph glyph-name="ocircumflex" unicode="&#xf4;" 
d="M584 860q-164 0 -258 -125q-93 -125 -93 -325q-1 -125 53 -196t145 -71t153 34q198 109 198 431q0 112 -53 182q-54 70 -145 70zM432 -20q-108 0 -178 32q-211 98 -211 406q0 108 40 221t114 199q160 186 403 186q177 0 275 -117t98 -305q0 -257 -154 -436
q-74 -86 -176 -136q-103 -50 -211 -50zM668 1403l-301 -168l12 74l309 217l234 -217l-13 -74z" />
    <glyph glyph-name="otilde" unicode="&#xf5;" 
d="M584 860q-164 0 -258 -125q-93 -125 -93 -325q-1 -125 53 -196t145 -71t153 34q198 109 198 431q0 112 -53 182q-54 70 -145 70zM432 -20q-108 0 -178 32q-211 98 -211 406q0 108 40 221t114 199q160 186 403 186q177 0 275 -117t98 -305q0 -257 -154 -436
q-74 -86 -176 -136q-103 -50 -211 -50zM900 1278q-62 -51 -125 -51t-133 52q-28 19 -54 35t-51 17q-87 0 -136 -100l-90 18q33 94 100 138t118 46q51 1 81 -15t80 -49q51 -34 84 -36q79 0 139 105l84 -19q-35 -90 -97 -141z" />
    <glyph glyph-name="odieresis" unicode="&#xf6;" 
d="M584 860q-164 0 -258 -125q-93 -125 -93 -325q-1 -125 53 -196t145 -71t153 34q198 109 198 431q0 112 -53 182q-54 70 -145 70zM432 -20q-108 0 -178 32q-211 98 -211 406q0 108 40 221t114 199q160 186 403 186q177 0 275 -117t98 -305q0 -257 -154 -436
q-74 -86 -176 -136q-103 -50 -211 -50zM408 1229l36 205h144l-35 -205h-145zM719 1229l37 205h145l-37 -205h-145z" />
    <glyph glyph-name="divide" unicode="&#xf7;" horiz-adv-x="1126" 
d="M360 41l35 192h185l-33 -192h-187zM119 502l26 151h848l-26 -151h-848zM512 901l35 193h184l-33 -193h-186z" />
    <glyph glyph-name="oslash" unicode="&#xf8;" horiz-adv-x="1079" 
d="M244 410q0 -114 28 -217l394 673q-53 15 -76 15q-150 0 -248 -139.5t-98 -331.5zM807 623q0 140 -33 180l-397 -676q53 -12 82 -12q151 0 249.5 146.5t98.5 361.5zM872 946q129 -133 129 -370t-115.5 -369.5t-221 -184t-232.5 -51.5q-66 0 -145 23l-47 -78h-152l84 135
q-125 131 -125 368t163 421t406 184q72 0 140 -25l49 82h156z" />
    <glyph glyph-name="ugrave" unicode="&#xf9;" horiz-adv-x="1011" 
d="M362 -20q-148 0 -221 70q-72 70 -71 220q0 72 14 150l102 584h187l-94 -533q-15 -98 -15 -135q0 -191 145 -192t230 114l131 746h186l-176 -1004h-170l6 111q-106 -131 -254 -131zM485 1352l27 147l309 -194l-14 -84z" />
    <glyph glyph-name="uacute" unicode="&#xfa;" horiz-adv-x="1011" 
d="M362 -20q-148 0 -221 70q-72 70 -71 220q0 72 14 150l102 584h187l-94 -533q-15 -98 -15 -135q0 -191 145 -192t230 114l131 746h186l-176 -1004h-170l6 111q-106 -131 -254 -131zM463 1221l14 84l379 194l-25 -147z" />
    <glyph glyph-name="ucircumflex" unicode="&#xfb;" horiz-adv-x="1011" 
d="M362 -20q-148 0 -221 70q-72 70 -71 220q0 72 14 150l102 584h187l-94 -533q-15 -98 -15 -135q0 -191 145 -192t230 114l131 746h186l-176 -1004h-170l6 111q-106 -131 -254 -131zM668 1403l-301 -168l12 74l309 217l234 -217l-13 -74z" />
    <glyph glyph-name="udieresis" unicode="&#xfc;" horiz-adv-x="1011" 
d="M362 -20q-148 0 -221 70q-72 70 -71 220q0 72 14 150l102 584h187l-94 -533q-15 -98 -15 -135q0 -191 145 -192t230 114l131 746h186l-176 -1004h-170l6 111q-106 -131 -254 -131zM410 1229l36 205h144l-35 -205h-145zM721 1229l37 205h145l-37 -205h-145z" />
    <glyph glyph-name="yacute" unicode="&#xfd;" horiz-adv-x="940" 
d="M172 -496h-199l303 541l-210 959h206l138 -746l381 746h206zM397 1221l15 84l379 194l-25 -147z" />
    <glyph glyph-name="thorn" unicode="&#xfe;" horiz-adv-x="1097" 
d="M614 860q-177 0 -260.5 -134.5t-83.5 -326.5t74 -232t142 -40t134 38t136.5 134t70.5 287q0 123 -55.5 198.5t-157.5 75.5zM365 897q127 127 294 127t263 -119t96 -303q0 -250 -111.5 -384t-215 -186t-230.5 -52q-168 0 -236 135l-106 -609h-187l359 2030h186z" />
    <glyph glyph-name="ydieresis" unicode="&#xff;" horiz-adv-x="940" 
d="M172 -496h-199l303 541l-210 959h206l138 -746l381 746h206zM342 1229l37 205h143l-35 -205h-145zM653 1229l37 205h146l-37 -205h-146z" />
    <glyph glyph-name="Ccaron" unicode="&#x10c;" horiz-adv-x="1157" 
d="M94 569q0 199 64 363q126 329 423 465q144 66 304 65q98 0 191 -24t155 -60l-53 -180q-72 28 -148 58t-190 30t-214 -58q-101 -58 -172 -156q-145 -199 -145 -495t193 -396q66 -34 158 -34t178 29t170 57l-13 -180q-177 -82 -383 -82q-110 0 -208 42t-166 120
q-144 161 -144 436zM854 1659l-236 203l15 84l244 -156l299 156l-15 -84z" />
    <glyph glyph-name="ccaron" unicode="&#x10d;" horiz-adv-x="856" 
d="M465 141q117 0 246 62l-6 -148q-122 -75 -295 -75q-174 0 -269 118q-94 118 -94 301q0 260 148 442q148 183 403 183q176 0 268 -59l-53 -166q-107 61 -209 61q-268 0 -344 -270q-22 -82 -22 -192t55 -183q55 -74 172 -74zM598 1229l-236 203l15 84l244 -156l299 156
l-15 -84z" />
    <glyph glyph-name="dotlessi" unicode="&#x131;" horiz-adv-x="438" 
d="M20 0l177 1004h186l-176 -1004h-187z" />
    <glyph glyph-name="OE" unicode="&#x152;" horiz-adv-x="1996" 
d="M818 1286q-108 0 -207 -58.5t-202.5 -209t-103.5 -445.5t123.5 -360.5t231.5 -65.5t207.5 58.5t203 209.5t103.5 447q0 295 -124 359.5t-232 64.5zM606 -29q-230 0 -370 161.5t-140 434.5q0 199 61.5 363t168 282.5t248 184t276.5 65.5t230.5 -44t189.5 -154l30 168h754
l-31 -175h-563l-74 -419h433l-31 -176h-432l-86 -486h579l-30 -176h-770l28 170q-135 -111 -245.5 -155t-225.5 -44z" />
    <glyph glyph-name="oe" unicode="&#x153;" horiz-adv-x="1683" 
d="M591 860q-171 0 -264.5 -123.5t-93.5 -326.5q0 -125 54.5 -196t150.5 -71q168 0 260.5 134t92.5 313q0 119 -52.5 194.5t-147.5 75.5zM1440 680q0 180 -175 180q-89 0 -156 -53t-110 -178h437q4 28 4 51zM963 365q0 -60 39.5 -149t190.5 -89t298 76l-12 -158
q-132 -65 -298 -65q-165 0 -249 55t-113 164q-66 -109 -174.5 -164t-212.5 -55q-191 0 -289 119.5t-98 310.5q0 257 156.5 435.5t406.5 178.5q178 0 239.5 -78t76.5 -131q72 106 175 157.5t199 51.5q152 0 242 -89t90 -249q0 -98 -16.5 -135t-20.5 -49h-620
q-10 -77 -10 -137z" />
    <glyph glyph-name="Scaron" unicode="&#x160;" horiz-adv-x="1101" 
d="M78 291q125 -144 392 -144q134 0 222 69t88 183t-164 194q-51 26 -171 85t-177 106q-57 48 -83 96q-25 48 -25 130t37 168q74 172 278 247q100 37 191 37q293 0 428 -98l-62 -199q-180 121 -348 121q-128 0 -219 -70q-92 -70 -90 -172q0 -77 69 -125q35 -25 138 -72
q104 -46 176 -80q245 -116 243 -325q0 -471 -581 -471q-129 0 -239 26t-169 66zM739 1659l-235 203l14 84l244 -156l299 156l-14 -84z" />
    <glyph glyph-name="scaron" unicode="&#x161;" horiz-adv-x="796" 
d="M485 879q-82 0 -138 -38t-56 -104t44 -96t134 -60q90 -29 131 -65q82 -73 82 -186q0 -218 -195 -313q-80 -37 -205 -37q-124 0 -198 32t-104 56l51 178q100 -100 264 -103q192 0 192 148q0 84 -98 125q-27 10 -59 20t-74 26q-152 61 -152 207q0 145 89 240
q106 115 309 115q140 0 248 -66l-50 -167q-78 88 -215 88zM500 1229l-236 203l15 84l243 -156l299 156l-14 -84z" />
    <glyph glyph-name="Ydieresis" unicode="&#x178;" horiz-adv-x="1118" 
d="M664 662l-117 -662h-201l117 662l-303 772h205l229 -596l438 596h205zM526 1659l37 205h144l-35 -205h-146zM838 1659l36 205h146l-37 -205h-145z" />
    <glyph glyph-name="florin" unicode="&#x192;" horiz-adv-x="669" 
d="M739 1343q-95 0 -152 -72t-120 -267h262l-33 -115h-270l-344 -1077q-55 -162 -132 -234t-134 -72h-33l-6 129q55 12 95 59.5t71 147.5l325 1047h-164l35 115h168l37 124q49 161 158 247.5t241 86.5q44 0 103 -22l-35 -113q-25 16 -72 16z" />
    <glyph glyph-name="dotlessj" unicode="&#x237;" horiz-adv-x="438" 
d="M-174 -496l6 142q79 8 111 47t51 157l203 1154h186l-215 -1223q-21 -126 -95 -189t-182 -77z" />
    <glyph glyph-name="circumflex" unicode="&#x2c6;" horiz-adv-x="823" 
d="M659 1403l-301 -168l13 74l309 217l233 -217l-12 -74z" />
    <glyph glyph-name="caron" unicode="&#x2c7;" horiz-adv-x="823" 
d="M629 1229l-236 203l15 84l243 -156l299 156l-14 -84z" />
    <glyph glyph-name="ring" unicode="&#x2da;" horiz-adv-x="536" 
d="M406 1348q0 -108 88 -109q40 0 79 40t39 94t-23.5 82t-64.5 28t-79.5 -39.5t-38.5 -95.5zM462 1180q-68 0 -108.5 47t-40.5 96q0 95 65.5 159t155.5 64q91 0 129.5 -47t38.5 -97t-15 -88t-44 -67.5t-71 -48t-110 -18.5z" />
    <glyph glyph-name="tilde" unicode="&#x2dc;" horiz-adv-x="974" 
d="M844 1333q77 0 139 105l84 -19q-35 -90 -97.5 -141t-122.5 -51t-111.5 35.5t-78 52t-51.5 16.5q-86 0 -135 -100l-90 18q48 136 127.5 160.5t109.5 24.5q45 0 119 -50.5t107 -50.5z" />
    <glyph glyph-name="endash" unicode="&#x2013;" horiz-adv-x="954" 
d="M98 487l31 177h715l-31 -177h-715z" />
    <glyph glyph-name="emdash" unicode="&#x2014;" horiz-adv-x="1124" 
d="M98 487l31 177h885l-31 -177h-885z" />
    <glyph glyph-name="quoteleft" unicode="&#x2018;" horiz-adv-x="380" 
d="M410 1536l41 -27l-97 -178l60 -18l-31 -176h-199l31 176z" />
    <glyph glyph-name="quoteright" unicode="&#x2019;" horiz-adv-x="346" 
d="M223 1137l-39 26l95 178l-58 19l31 176h199l-33 -176z" />
    <glyph glyph-name="quotesinglbase" unicode="&#x201a;" horiz-adv-x="440" 
d="M18 -223l-38 26l94 179l-58 18l31 176h199l-33 -176z" />
    <glyph glyph-name="quotedblleft" unicode="&#x201c;" horiz-adv-x="768" 
d="M797 1536l41 -27l-97 -178l60 -18l-31 -176h-199l31 176zM410 1536l41 -27l-97 -178l60 -18l-31 -176h-199l31 176z" />
    <glyph glyph-name="quotedblright" unicode="&#x201d;" horiz-adv-x="733" 
d="M223 1137l-39 26l95 178l-58 19l31 176h199l-33 -176zM610 1137l-39 26l95 178l-58 19l31 176h199l-33 -176z" />
    <glyph glyph-name="quotedblbase" unicode="&#x201e;" horiz-adv-x="864" 
d="M442 -223l-39 26l95 179l-58 18l31 176h199l-33 -176zM18 -223l-38 26l94 179l-58 18l31 176h199l-33 -176z" />
    <glyph glyph-name="dagger" unicode="&#x2020;" horiz-adv-x="821" 
d="M408 1243h227l-125 -369l285 64l-31 -174l-252 61v-309l-147 -516h-125l34 516l123 309l-286 -61l30 174l267 -64v369z" />
    <glyph glyph-name="daggerdbl" unicode="&#x2021;" horiz-adv-x="870" 
d="M422 -121h-227l122 363l-282 -62l31 172l266 -61l-23 270l119 273l-289 -62l31 172l266 -61v360h226l-123 -360l282 61l-28 -172l-269 62l23 -273l-119 -270l289 61l-29 -172l-266 62v-363z" />
    <glyph glyph-name="bullet" unicode="&#x2022;" horiz-adv-x="587" 
d="M234 346q-60 0 -106 56t-46 120q0 116 75.5 193.5t158.5 77.5q84 0 130 -55.5t46 -121.5t-20.5 -111.5t-55.5 -81.5t-78.5 -56.5t-103.5 -20.5z" />
    <glyph glyph-name="ellipsis" unicode="&#x2026;" horiz-adv-x="1296" 
d="M885 0l30 176h187l-31 -176h-186zM449 0l32 176h185l-31 -176h-186zM14 0l31 176h186l-30 -176h-187z" />
    <glyph glyph-name="perthousand" unicode="&#x2030;" horiz-adv-x="2244" 
d="M1902 627q-87 0 -156 -103.5t-69 -249.5q0 -90 32 -143t80 -53q94 0 159 102t65 248q0 92 -33 145.5t-78 53.5zM1761 -29q-87 0 -146 73t-59 197q0 224 107 358t254 134q98 0 156.5 -73.5t58.5 -195.5t-27.5 -211t-77 -151.5t-114.5 -96.5t-152 -34zM1239 627
q-89 0 -157 -103.5t-68 -249.5q0 -90 32.5 -143t79.5 -53q93 0 158.5 101.5t65.5 248.5q0 92 -33 145.5t-78 53.5zM1097 -29q-87 0 -144.5 73t-57.5 197q0 227 107.5 359.5t250.5 132.5q98 0 157.5 -73.5t59.5 -195.5t-28.5 -211t-77.5 -151.5t-114.5 -96.5t-152.5 -34z
M495 1337q-88 0 -156.5 -102.5t-68.5 -249.5q0 -90 32 -143.5t80 -53.5q92 0 157 102.5t65 248.5q0 92 -32 145t-77 53zM354 682q-87 0 -145.5 73t-58.5 197q0 225 107 358.5t253 133.5q98 0 156.5 -74t58.5 -196t-27.5 -211t-77 -151t-114.5 -96t-152 -34zM350 -25h-155
l1034 1459h153z" />
    <glyph glyph-name="guilsinglleft" unicode="&#x2039;" horiz-adv-x="632" 
d="M250 160l-215 422l362 422h224l-363 -422l215 -422h-223z" />
    <glyph glyph-name="guilsinglright" unicode="&#x203a;" horiz-adv-x="634" 
d="M229 160h-223l363 422l-213 422h223l213 -422z" />
    <glyph glyph-name="zerosuperior" unicode="&#x2070;" horiz-adv-x="776" 
d="M525 1315q-92 0 -164 -96.5t-72 -264.5q0 -96 35.5 -139t89.5 -43q92 0 159.5 88t67.5 260q0 98 -36 146.5t-80 48.5zM372 639q-102 0 -167.5 84.5t-65.5 206.5q0 222 120 369t284 147q115 0 181.5 -87t66.5 -210t-31 -212t-84 -155.5t-127.5 -104.5t-176.5 -38z" />
    <glyph glyph-name="foursuperior" unicode="&#x2074;" horiz-adv-x="641" 
d="M446 1208l-163 -225h125zM535 866l-37 -211h-150l39 211h-324l445 564h127l-80 -447h92l-20 -117h-92z" />
    <glyph glyph-name="fivesuperior" unicode="&#x2075;" horiz-adv-x="589" 
d="M270 780q168 0 168 152q0 35 -27.5 60.5t-119.5 25.5h-123l119 412h346l-43 -144h-217l-41 -145q252 -2 252 -185q0 -146 -97.5 -230.5t-213.5 -84.5q-83 0 -138.5 24.5t-60.5 41.5l59 133q16 -25 55.5 -42.5t81.5 -17.5z" />
    <glyph glyph-name="sixsuperior" unicode="&#x2076;" horiz-adv-x="618" 
d="M483 903q0 98 -89 98q-50 0 -90 -34.5t-40 -92.5t29 -80t57 -22q54 0 93.5 44t39.5 87zM435 1120q83 0 135.5 -45t52.5 -119q0 -136 -91.5 -226.5t-220.5 -90.5q-82 0 -135 51t-53 172t50 225.5t117.5 180t137.5 119t111 43.5l90 -58q-60 0 -175 -101t-141 -190
q39 39 122 39z" />
    <glyph glyph-name="sevensuperior" unicode="&#x2077;" horiz-adv-x="557" 
d="M248 655h-158l356 631h-274l25 144h495z" />
    <glyph glyph-name="eightsuperior" unicode="&#x2078;" horiz-adv-x="657" 
d="M252 846q0 -90 112 -90q60 0 96 42t36 98t-26.5 86t-61.5 40q-57 -9 -106.5 -56.5t-49.5 -119.5zM457 1331q-109 0 -109 -125q0 -62 68 -80q113 29 112 136q0 69 -71 69zM672 1298q0 -117 -115 -217q35 -23 60.5 -68t25.5 -95q0 -108 -86 -193.5t-216 -85.5t-181 56.5
t-51 129.5q0 138 145 248q-37 43 -37 108q0 124 63.5 194.5t184.5 70.5q122 0 164.5 -44t42.5 -104z" />
    <glyph glyph-name="ninesuperior" unicode="&#x2079;" horiz-adv-x="618" 
d="M297 1169q0 -86 86 -86q49 0 90 35.5t41 97.5t-28.5 79.5t-57.5 17.5q-55 0 -93 -44.5t-38 -99.5zM343 965q-83 0 -139.5 45t-56.5 150t89.5 195.5t222.5 90.5q86 0 138 -52t52 -168t-43 -219.5t-106.5 -181t-137 -124t-135.5 -46.5l-80 58q27 0 76 23.5t137 93
t109 174.5q-43 -39 -126 -39z" />
    <glyph glyph-name="zeroinferior" unicode="&#x2080;" horiz-adv-x="827" 
d="M553 467q0 99 -36 147t-80 48q-92 0 -165 -98t-71 -263q0 -96 36 -139t89 -43q92 0 160 88t67 260zM51 276q0 220 120 369q120 148 284 148q115 0 181 -87t66 -210t-30 -212q-64 -187 -212 -260q-74 -38 -176 -38t-168 84t-65 206z" />
    <glyph glyph-name="oneinferior" unicode="&#x2081;" horiz-adv-x="503" 
d="M76 2l100 565q-42 -26 -94 -35l14 123q30 4 79 41q48 36 71 80h116l-135 -774h-151z" />
    <glyph glyph-name="twoinferior" unicode="&#x2082;" horiz-adv-x="645" 
d="M516 683q8 -30 8 -85q0 -118 -262 -453h207l-27 -143h-462q252 300 312 390q60 89 74 126q13 37 13 68q0 84 -76 84q-60 0 -114 -41t-78 -80v133q92 108 241 111q130 0 164 -110z" />
    <glyph glyph-name="threeinferior" unicode="&#x2083;" horiz-adv-x="649" 
d="M194 129q56 0 103 30t47 111q0 41 -20 69t-80 28h-105l33 112h53q146 0 146 117q0 70 -86 71t-135 -34l-5 108q72 50 156 51q185 2 215 -112q8 -31 8 -59q0 -121 -92 -189q58 -54 59 -138q2 -147 -99 -228q-100 -80 -226 -80q-59 0 -117 20q-59 20 -72 41l62 135
q8 -23 54 -38q45 -15 101 -15z" />
    <glyph glyph-name="fourinferior" unicode="&#x2084;" horiz-adv-x="694" 
d="M356 555l-163 -225h124zM444 213l-36 -211h-150l39 211h-324l445 563h127l-80 -446h92l-20 -117h-93z" />
    <glyph glyph-name="fiveinferior" unicode="&#x2085;" horiz-adv-x="636" 
d="M174 127q168 0 168 152q0 35 -28 61t-119 25h-123l118 411h347l-43 -143h-218l-40 -146q252 -2 251 -184q0 -80 -28 -138q-57 -115 -177 -157q-56 -20 -105 -20q-122 0 -182 48q-15 11 -18 17l60 133q16 -25 56 -42t81 -17z" />
    <glyph glyph-name="sixinferior" unicode="&#x2086;" horiz-adv-x="667" 
d="M306 348q-50 0 -90 -35t-40 -92t29 -80q49 -39 103 -13q53 26 77 82q10 26 10 54t-19 57q-20 27 -70 27zM347 467q83 0 135 -45q52 -46 52 -120t-23 -128q-48 -109 -164 -163q-56 -25 -131 -25t-128 51t-53 172t50 225q96 200 255 299q70 43 111 43l90 -57
q-59 0 -175 -102t-141 -189q39 39 122 39z" />
    <glyph glyph-name="seveninferior" unicode="&#x2087;" horiz-adv-x="643" 
d="M174 2h-158l357 631h-275l25 143h495z" />
    <glyph glyph-name="eightinferior" unicode="&#x2088;" horiz-adv-x="712" 
d="M278 102q60 0 96 42t36 98t-26 87q-26 30 -62 40q-60 -10 -108 -57t-48 -103q0 -57 26 -82t86 -25zM371 678q-109 0 -109 -125q0 -64 68 -80q113 29 112 135q0 70 -71 70zM586 645q0 -117 -115 -217q35 -23 61 -68t25 -95q0 -109 -86 -194t-216 -85t-181 56t-51 130
q0 138 145 248q-37 43 -37 108q0 66 13 110q46 155 267 155q91 0 133 -44t42 -104z" />
    <glyph glyph-name="nineinferior" unicode="&#x2089;" horiz-adv-x="669" 
d="M207 516q0 -86 86 -86q49 0 90 35t41 97t-29 80t-57 17q-56 0 -94 -45q-37 -44 -37 -98zM253 311q-83 0 -139 45t-56 120q-1 133 89 225q91 92 222 92q86 -1 138 -53t52 -168t-43 -219q-87 -209 -244 -305q-74 -46 -135 -46l-80 57q63 0 182 94t140 197q-43 -39 -126 -39
z" />
    <glyph glyph-name="Euro" unicode="&#x20ac;" horiz-adv-x="1318" 
d="M827 227q127 0 299 78l-12 -201q-150 -69 -338 -69t-313 105.5t-160 299.5h-262l72 142h180q9 95 22 174h-168l74 141h137q93 236 270.5 369t374.5 133q198 0 328 -70l-59 -201q-147 78 -288 78q-264 0 -400 -309h471l-76 -141h-440q-23 -103 -23 -174h447l-72 -142h-356
q33 -111 99 -162t193 -51z" />
    <glyph glyph-name="trademark" unicode="&#x2122;" horiz-adv-x="1374" 
d="M670 1331h-181l-114 -641h-111l113 641h-184l18 103h489zM954 907l-100 334l-156 -551h-112l219 744h65l121 -367l248 367h68l-43 -744h-117l43 549l-221 -332h-15z" />
    <glyph glyph-name="M.sc" horiz-adv-x="1363" 
d="M961 0l45 803l-385 -551l-195 551l-238 -803h-198l354 1147h158l182 -539l369 539h155l-49 -1147h-198z" />
    <glyph glyph-name="L.sc" horiz-adv-x="831" 
d="M43 0l203 1147h188l-170 -967h471l-33 -180h-659z" />
    <glyph glyph-name="S.sc" horiz-adv-x="978" 
d="M874 889q-169 102 -314 102t-188.5 -55t-43.5 -93q0 -63 50 -97t127 -60q171 -57 261 -122t90 -213q0 -147 -115.5 -260.5t-378.5 -113.5q-125 0 -217 25t-135 55l62 219q41 -45 122.5 -81.5t195.5 -36.5t182.5 36.5t68.5 131.5t-92 133.5t-141 55.5q-135 47 -209 104.5
t-74 166.5q0 57 25.5 125t117 163t324.5 95q113 0 205 -27.5t131 -56.5z" />
    <glyph glyph-name="J.sc" horiz-adv-x="487" 
d="M-84 -147q59 0 86 35.5t41 113.5l203 1145h188l-211 -1192q-20 -119 -98 -178.5t-201 -59.5h-49l8 136h33z" />
    <glyph glyph-name="O.sc" horiz-adv-x="1269" 
d="M686 989q-86 0 -165 -41t-160.5 -149.5t-81.5 -325.5t102 -266t188 -49t165 41t161 147t82 327t-102.5 268.5t-188.5 47.5zM540 -23q-221 0 -345.5 130.5t-124.5 355.5q0 309 143 456.5t264 198.5t241 51q223 0 346.5 -131t123.5 -354q0 -308 -143.5 -456t-264 -199.5
t-240.5 -51.5z" />
    <glyph glyph-name="N.sc" horiz-adv-x="1173" 
d="M758 0l-379 829l-148 -829h-188l203 1147h188l357 -782l137 782h190l-203 -1147h-157z" />
    <glyph glyph-name="H.sc" horiz-adv-x="1228" 
d="M782 0l88 508h-548l-91 -508h-188l203 1147h188l-80 -457h549l82 457h189l-203 -1147h-189z" />
    <glyph glyph-name="R.sc" horiz-adv-x="1038" 
d="M514 614q205 0 229.5 92t24.5 150q0 134 -193 133h-165l-66 -375h170zM971 883q0 -264 -258 -400l168 -483h-199l-158 434h-213l-75 -434h-193l203 1147h393q332 0 332 -264z" />
    <glyph glyph-name="I.sc" horiz-adv-x="489" 
d="M43 0l203 1147h188l-203 -1147h-188z" />
    <glyph glyph-name="OE.sc" horiz-adv-x="1738" 
d="M682 989q-86 0 -164 -41t-160 -146.5t-82 -327.5t102.5 -269t188.5 -47t165 41t161 145.5t82 323.5q0 144 -70 232.5t-223 88.5zM70 463q0 309 192.5 507.5t468.5 198.5q193 0 328 -129l18 107h666l-31 -180h-475l-49 -279h366l-32 -180h-365l-57 -328h487l-31 -180h-682
l19 106q-180 -129 -377 -129t-321.5 130.5t-124.5 355.5z" />
    <glyph glyph-name="Q.sc" horiz-adv-x="1269" 
d="M702 989q-197 0 -310 -148t-113 -369t103.5 -267.5t161.5 -46.5q123 0 197 47l-118 123l131 131l123 -133q52 81 78 150.5t26 200.5q0 130 -69 221t-210 91zM70 463q0 309 143 456.5t264 198.5t241 51q223 0 346.5 -131t123.5 -369t-182 -466l84 -84l-132 -127l-92 90
q-155 -105 -351 -105t-320.5 130.5t-124.5 355.5z" />
    <glyph glyph-name="K.sc" horiz-adv-x="1024" 
d="M43 0l203 1147h188l-203 -1147h-188zM672 0l-287 606l487 541h211l-487 -541l285 -606h-209z" />
    <glyph glyph-name="F.sc" horiz-adv-x="884" 
d="M403 967l-49 -279h379l-31 -180h-380l-91 -508h-188l203 1147h680l-31 -180h-492z" />
    <glyph glyph-name="G.sc" horiz-adv-x="1114" 
d="M281 485q0 -145 73.5 -236t227.5 -91q84 0 163 22l43 234h-135l29 161h324l-91 -512q-103 -53 -225 -69.5t-196 -16.5t-157 35t-174 134t-91 319q0 310 143 456t266 197t285 51t297 -65l-51 -178q-142 63 -274 63q-231 0 -344 -145.5t-113 -358.5z" />
    <glyph glyph-name="E.sc" horiz-adv-x="944" 
d="M760 0h-717l203 1147h700l-31 -180h-507l-50 -279h398l-33 -180h-397l-58 -328h525z" />
    <glyph glyph-name="D.sc" horiz-adv-x="1200" 
d="M489 180q198 0 309 135t111 349q0 139 -69.5 221t-212.5 82h-224l-139 -787h225zM659 1147q208 0 333.5 -124t125.5 -341q0 -307 -189.5 -494.5t-471.5 -187.5h-414l203 1147h413z" />
    <glyph glyph-name="C.sc" horiz-adv-x="1019" 
d="M70 463q0 305 143 454.5t265 200.5t234 51q210 0 324 -67l-51 -178q-66 27 -130 46t-158 19t-173.5 -41t-162 -147t-82.5 -326q0 -219 104.5 -268t200.5 -49t276 65l-10 -180q-150 -66 -340 -66t-315 131.5t-125 354.5z" />
    <glyph glyph-name="V.sc" horiz-adv-x="1071" 
d="M535 0h-224l-205 1147h199l160 -905l473 905h199z" />
    <glyph glyph-name="W.sc" horiz-adv-x="1581" 
d="M1114 0h-176l-102 827l-400 -827h-184l-111 1147h199l74 -871l405 863h139l115 -848l371 856h198z" />
    <glyph glyph-name="B.sc" horiz-adv-x="1038" 
d="M451 166q135 0 201.5 46.5t66.5 168.5q0 84 -50.5 113.5t-127.5 29.5h-217l-62 -358h189zM547 680q74 0 126 40t52 148q0 72 -42 93.5t-108 21.5h-169l-54 -303h195zM532 1147q192 0 285.5 -46.5t93.5 -195.5q0 -148 -56 -208t-87 -85q150 -63 150 -219
q0 -215 -135.5 -304t-323.5 -89h-416l203 1147h286z" />
    <glyph glyph-name="AE.sc" horiz-adv-x="1409" 
d="M705 961l-316 -494h227zM1225 0h-690l51 283h-318l-182 -283h-195l744 1147h778l-33 -182h-475l-49 -277h367l-31 -180h-367l-57 -328h489z" />
    <glyph glyph-name="X.sc" horiz-adv-x="1046" 
d="M692 0l-203 438l-346 -438h-215l488 571l-273 576h219l191 -420l328 420h213l-469 -553l284 -594h-217z" />
    <glyph glyph-name="A.sc" horiz-adv-x="1015" 
d="M559 856l-194 -387h253zM698 0l-47 289h-383l-147 -289h-199l598 1147h185l190 -1147h-197z" />
    <glyph glyph-name="Y.sc" horiz-adv-x="991" 
d="M569 516l-90 -516h-192l92 516l-270 631h200l195 -461l358 461h201z" />
    <glyph glyph-name="Z.sc" horiz-adv-x="923" 
d="M276 180h461l-30 -180h-775l703 967h-461l33 180h772z" />
    <glyph glyph-name="U.sc" horiz-adv-x="1193" 
d="M303 410q0 -252 199 -252q102 0 160.5 32.5t112 109t85.5 261.5l103 586h190l-117 -658q-63 -370 -247.5 -441t-301.5 -71q-197 0 -290 98.5t-93 270.5q0 72 15 143l117 658h186l-103 -586q-16 -85 -16 -151z" />
    <glyph glyph-name="P.sc" horiz-adv-x="989" 
d="M516 561q206 0 231 106.5t25 177.5t-44 105.5t-153 34.5h-165l-76 -424h182zM569 1147q202 0 301 -54.5t99 -208.5q0 -268 -142.5 -383.5t-314.5 -115.5h-209l-67 -385h-193l203 1147h323z" />
    <glyph glyph-name="T.sc" horiz-adv-x="937" 
d="M629 967l-170 -967h-191l170 967h-315l33 180h821l-31 -180h-317z" />
    </font>
</defs>
</svg>
