<?xml version="1.0" standalone="no"?>
<!DOCTYPE svg PUBLIC "-//W3C//DTD SVG 1.1//EN" "http://www.w3.org/Graphics/SVG/1.1/DTD/svg11.dtd" >
<svg xmlns="http://www.w3.org/2000/svg">
<metadata>
Created by FontPrep 20130207 at Thu Jun  5 09:55:40 2014
 By Athan Reines
Copyright (c) 2011 by Pablo Impallari. www.impallari.com Igino Marini. www.ikern.com. All rights reserved.
</metadata>
<defs>
<font id="39b1c4c3d3eb485922a666b11b32b642" horiz-adv-x='1024' >
  <font-face 
    font-family="Cabin-Regular"
    font-weight="400"
    font-stretch="normal"
    units-per-em="2048"
    panose-1="2 11 8 3 5 2 2 2 0 4"
    ascent="1638"
    descent="-410"
    x-height="1004"
    cap-height="1434"
    bbox="-80 -512 2386 1974"
    underline-thickness="102"
    underline-position="-102"
    unicode-range="U+0020-2122"
  />
<missing-glyph horiz-adv-x="512" 
d="M332 512h-185v225h185v-225z" />
    <glyph glyph-name=".notdef" horiz-adv-x="512" 
d="M332 512h-185v225h185v-225z" />
    <glyph glyph-name=".null" horiz-adv-x="0" 
 />
    <glyph glyph-name="nonmarkingreturn" horiz-adv-x="681" 
 />
    <glyph glyph-name="space" unicode=" " horiz-adv-x="460" 
 />
    <glyph glyph-name="exclam" unicode="!" horiz-adv-x="495" 
d="M334 0h-172v176h172v-176zM375 1536l-62 -1126h-131l-61 1126h254z" />
    <glyph glyph-name="quotedbl" unicode="&#x22;" horiz-adv-x="823" 
d="M274 1536l-41 -614h-110l-41 614h192zM741 1536l-41 -614h-106l-41 614h188z" />
    <glyph glyph-name="numbersign" unicode="#" horiz-adv-x="1441" 
d="M913 866h-270l-98 -252h270zM1376 1038l-59 -172h-238l-98 -252h262l-78 -172h-250l-178 -465h-164l179 465h-273l-178 -465h-164l176 465h-245l75 172h236l98 252h-258l60 172h264l151 396h164l-151 -396h272l154 396h163l-151 -396h231z" />
    <glyph glyph-name="dollar" unicode="$" horiz-adv-x="1052" 
d="M506 348q232 0 231 129q0 59 -48 96t-120.5 64t-156.5 51.5t-205 81.5t-121 205q0 197 140.5 252t240.5 65l-35 240h184l-32 -240q221 -12 329 -75l-18 -197q-209 98 -342 98q-248 0 -248 -119q0 -55 50.5 -87.5t125 -56.5t161.5 -48.5t212 -88.5t125 -239
q0 -115 -87 -204t-308 -107l30 -234h-182l35 232q-240 12 -361 78l25 223q143 -119 375 -119z" />
    <glyph glyph-name="percent" unicode="%" horiz-adv-x="1720" 
d="M1155 346q0 -125 55.5 -196.5t133.5 -71.5t134 76.5t56 201.5t-55 198t-132 73q-80 0 -136 -78t-56 -203zM1124 67.5q-84 96.5 -84 278.5t90.5 284.5t220.5 102.5t214 -99t84 -276t-86 -282t-220 -105q-135 0 -219 96.5zM378 1337q-80 0 -136 -77.5t-56 -202.5t55.5 -197
t134.5 -72t134 77t55 208q0 182 -74.5 223t-112.5 41zM156 778q-84 96 -84 278t89.5 285t220.5 103q130 0 214 -100t84 -276t-85 -281t-220 -105t-219 96zM485 -25h-153l862 1459h152z" />
    <glyph glyph-name="ampersand" unicode="&#x26;" horiz-adv-x="1251" 
d="M252 346q0 -113 77 -183.5t241 -70.5t274 123l-426 426q-166 -117 -166 -295zM546 1298q-81 0 -141.5 -53t-60.5 -165t113 -249l108 84l41 35q109 94 109 195q0 74 -44 113.5t-125 39.5zM549 -47q-234 0 -354.5 102t-120.5 277q0 236 258 418q-154 186 -154 343t114 252
t274 95q159 0 231.5 -71t72.5 -187q0 -244 -335 -453l389 -399q66 84 80 389h165q-8 -319 -133 -514l178 -205h-188l-90 94q-90 -78 -178 -109.5t-209 -31.5z" />
    <glyph glyph-name="quotesingle" unicode="'" horiz-adv-x="372" 
d="M289 1536l-37 -614h-131l-37 614h205z" />
    <glyph glyph-name="parenleft" unicode="(" horiz-adv-x="534" 
d="M142 1136.5q56 205.5 182 399.5h161q-252 -410 -252 -908t252 -907h-161q-129 194 -183.5 402t-54.5 508t56 505.5z" />
    <glyph glyph-name="parenright" unicode=")" horiz-adv-x="534" 
d="M301 628q0 499 -252 908h162q125 -195 181.5 -399t56.5 -508q0 -432 -88.5 -624t-149.5 -284h-162q252 408 252 907z" />
    <glyph glyph-name="asterisk" unicode="*" horiz-adv-x="872" 
d="M645 874l-209 273l-205 -279l-65 66l221 240l-319 133l47 84l303 -177l-27 320h94l-32 -320l305 177l47 -86l-324 -129l232 -236z" />
    <glyph glyph-name="plus" unicode="+" horiz-adv-x="948" 
d="M852 487h-297v-278h-164v278h-297v177h297v262h164v-262h297v-177z" />
    <glyph glyph-name="comma" unicode="," horiz-adv-x="442" 
d="M119 176h205v-176l-160 -223l-47 26l71 179l-69 18v176z" />
    <glyph glyph-name="hyphen" unicode="-" horiz-adv-x="868" 
d="M752 487h-635v177h635v-177z" />
    <glyph glyph-name="period" unicode="." horiz-adv-x="417" 
d="M301 0h-184v176h184v-176z" />
    <glyph glyph-name="slash" unicode="/" horiz-adv-x="1089" 
d="M1018 1434l-774 -1608h-205l774 1608h205z" />
    <glyph glyph-name="zero" unicode="0" horiz-adv-x="1462" 
d="M451 1127q-115 -159 -115 -432t104.5 -410.5t286.5 -137.5t292.5 146.5t110.5 421.5t-109.5 423t-282 148t-287.5 -159zM129 700q0 333 130 491.5t242.5 214.5t240.5 56q257 0 424 -204t167 -538q0 -333 -169.5 -541t-442.5 -208q-268 0 -430 198t-162 531z" />
    <glyph glyph-name="one" unicode="1" horiz-adv-x="727" 
d="M520 0h-205v1153q-111 -92 -213 -125l-32 182q135 44 206.5 116.5t94.5 107.5h149v-1434z" />
    <glyph glyph-name="two" unicode="2" horiz-adv-x="1073" 
d="M963 0h-848q358 508 477 729t119 326t-66.5 165t-183.5 60q-190 0 -334 -190l-25 174q34 66 148 132t243 66q225 0 319.5 -116t94.5 -277q0 -216 -159.5 -468.5t-280.5 -424.5h496v-176z" />
    <glyph glyph-name="three" unicode="3" horiz-adv-x="1120" 
d="M235 10q-122 39 -153 70l47 180q168 -92 232.5 -102.5t118.5 -10.5q131 0 214.5 71.5t83.5 217.5q0 198 -121.5 232t-218.5 34h-149l20 156h76q186 0 264 59.5t78 176.5q0 193 -244 192q-174 0 -276 -84l-35 166q33 33 118 63.5t217 30.5q239 0 336 -110t97 -258
q0 -86 -41 -157t-145 -142q238 -80 237 -357q0 -214 -111.5 -309.5t-207 -126.5t-205.5 -31t-232 39z" />
    <glyph glyph-name="four" unicode="4" horiz-adv-x="1144" 
d="M645 565v520l-313 -520h313zM1024 389h-174v-389h-205v389h-616l659 1045h162v-869h174v-176z" />
    <glyph glyph-name="five" unicode="5" horiz-adv-x="1107" 
d="M246 -2.5q-113 26.5 -142 53.5l48 182q147 -86 292 -86t244.5 95.5t99.5 228.5t-101 194.5t-331 61.5h-174l86 707h652l-19 -177h-477l-41 -356q327 0 472.5 -100.5t145.5 -319.5t-119.5 -327.5t-219.5 -145.5t-202 -37q-101 0 -214 26.5z" />
    <glyph glyph-name="six" unicode="6" horiz-adv-x="1163" 
d="M626 694q-126 0 -210 -79t-84 -206t76 -197.5t198 -70.5t195 85.5t73 211.5q0 173 -92 214.5t-156 41.5zM127 492q0 201 62.5 372.5t155.5 297.5t200.5 198t195.5 74l133 -78q-197 -89 -325.5 -224t-198.5 -401q94 129 287 129t314.5 -109t121.5 -308q0 -198 -139.5 -335
t-353.5 -137q-213 0 -333 128t-120 393z" />
    <glyph glyph-name="seven" unicode="7" horiz-adv-x="1028" 
d="M80 1257v177h928l-621 -1434h-205l543 1257h-645z" />
    <glyph glyph-name="eight" unicode="8" horiz-adv-x="1247" 
d="M334 392q0 -245 280 -245q132 0 218 74.5t86 182.5t-81 182.5t-210 105.5q-135 -27 -214 -101.5t-79 -198.5zM383 1105q0 -81 61.5 -142.5t165.5 -100.5q119 35 179.5 103.5t60.5 149.5t-59.5 126t-170 45t-174 -50t-63.5 -131zM121 387q0 238 274 383q-190 147 -190 336
q0 247 155.5 300.5t268.5 53.5q210 0 312.5 -90t102.5 -233q0 -109 -47 -175t-192 -169q166 -57 242.5 -148.5t76.5 -252.5t-138.5 -291t-378.5 -130q-234 0 -360 119.5t-126 296.5z" />
    <glyph glyph-name="nine" unicode="9" horiz-adv-x="1167" 
d="M540 739q130 0 212 81t82 206q0 124 -76.5 195t-198.5 71q-123 0 -195.5 -86.5t-72.5 -210.5q0 -174 91.5 -215t157.5 -41zM578 1462q209 0 334.5 -119.5t125.5 -396.5q0 -225 -62.5 -401t-153.5 -297t-194.5 -184.5t-185.5 -63.5l-149 78q209 97 347.5 238.5
t170.5 371.5q-41 -55 -119 -86t-166 -31q-205 0 -319.5 104.5t-114.5 310.5t102.5 305.5t194 135t189.5 35.5z" />
    <glyph glyph-name="colon" unicode=":" horiz-adv-x="417" 
d="M301 0h-184v176h184v-176zM301 725h-184v176h184v-176z" />
    <glyph glyph-name="semicolon" unicode=";" horiz-adv-x="442" 
d="M119 176h205v-178l-160 -221l-47 26l71 179l-69 18v176zM324 725h-205v176h205v-176z" />
    <glyph glyph-name="less" unicode="&#x3c;" horiz-adv-x="829" 
d="M705 160h-195l-442 422l442 422h195l-443 -422z" />
    <glyph glyph-name="equal" unicode="=" horiz-adv-x="1028" 
d="M893 328h-758v155h758v-155zM893 651h-758v156h758v-156z" />
    <glyph glyph-name="greater" unicode="&#x3e;" horiz-adv-x="827" 
d="M760 582l-443 -422h-194l442 422l-442 422h194z" />
    <glyph glyph-name="question" unicode="?" horiz-adv-x="903" 
d="M500 0h-187v176h187v-176zM463 410h-121q-6 82 -6 118t22.5 91t57.5 105t73.5 98t96 131t57.5 199t-76.5 182.5t-173.5 66.5t-177.5 -46t-102.5 -93l-52 137q39 59 127 98t192 39q194 0 313.5 -118t119.5 -259q0 -140 -123 -299l-104 -133q-126 -162 -123 -262v-55z" />
    <glyph glyph-name="at" unicode="@" horiz-adv-x="1478" 
d="M603 217q-93 1 -93 143q0 68 35 143t123 166t192 91t119 -45q-24 -158 -115.5 -280t-152 -170t-108.5 -48zM1008 86q93 0 170 53.5t102 77.5q-98 -176 -281.5 -285.5t-403.5 -109.5q-221 0 -358 139t-137 387q0 164 61.5 307.5t168 249t246 167t277.5 61.5
q257 0 393 -140t136 -381q0 -136 -21.5 -204t-55 -111t-102.5 -74t-124 -30q-76 0 -75 108q0 49 26.5 149.5t46 174t39.5 151.5q-104 109 -250 109q-94 0 -187 -51.5t-167 -132t-120 -184t-46 -205.5t45 -166t143 -64t205.5 69.5t161.5 167.5l-6 -63q0 -66 26.5 -118
t86.5 -52z" />
    <glyph glyph-name="A" unicode="A" 
d="M844 563l-213 598l-213 -598h426zM1247 0h-205l-137 387h-549l-137 -387h-205l514 1434h205z" />
    <glyph glyph-name="B" unicode="B" horiz-adv-x="1222" 
d="M358 662v-486h201q208 0 272 32t90.5 77t26.5 120q0 136 -73.5 196.5t-212.5 60.5h-304zM543 1260h-185v-422h242q112 0 152.5 29.5t57.5 74.5t17 118q0 126 -73.5 163t-210.5 37zM164 0v1434h323q287 0 414 -75t127 -280q0 -120 -20.5 -177.5t-96.5 -137.5
q133 -51 186.5 -133t53.5 -212q0 -242 -139 -330.5t-357 -88.5h-491z" />
    <glyph glyph-name="C" unicode="C" 
d="M828 -29q-347 0 -547.5 206t-200.5 538t201 539.5t516 207.5q219 0 397 -84l-20 -180l-117 41q-117 47 -249 47q-246 0 -380.5 -157.5t-134.5 -410.5t133 -412t375 -159q62 0 119 11l51 10q16 2 55 16l47 15q10 2 53 18l48 16l20 -180q-178 -82 -366 -82z" />
    <glyph glyph-name="D" unicode="D" horiz-adv-x="1488" 
d="M358 1257v-1081h336q235 0 367.5 144.5t132.5 395.5t-131.5 396t-368.5 145h-336zM164 0v1434h530q316 0 514.5 -193t198.5 -523t-196 -524t-517 -194h-530z" />
    <glyph glyph-name="E" unicode="E" horiz-adv-x="1134" 
d="M1057 0h-893v1434h874v-177h-680v-419h541v-176h-541v-486h699v-176z" />
    <glyph glyph-name="F" unicode="F" horiz-adv-x="1071" 
d="M1038 1257h-680v-419h525v-176h-525v-662h-194v1434h874v-177z" />
    <glyph glyph-name="G" unicode="G" horiz-adv-x="1376" 
d="M782 -29q-304 0 -503 206.5t-199 541t200.5 539t518.5 204.5q242 0 426 -82l-19 -170q-214 76 -370 76t-252.5 -42t-193.5 -154t-97 -373q0 -404 204.5 -487t346.5 -83t233 39v357h-225v176h420v-639q-127 -71 -280 -90t-210 -19z" />
    <glyph glyph-name="H" unicode="H" horiz-adv-x="1527" 
d="M1364 0h-195v657h-811v-657h-194v1434h194v-592h811v592h195v-1434z" />
    <glyph glyph-name="I" unicode="I" horiz-adv-x="522" 
d="M358 0h-194v1434h194v-1434z" />
    <glyph glyph-name="J" unicode="J" horiz-adv-x="522" 
d="M18 -352h-32l-21 114h8q109 0 150 52t41 180v1440h194v-1500q0 -286 -340 -286z" />
    <glyph glyph-name="K" unicode="K" horiz-adv-x="1181" 
d="M358 0h-194v1434h194v-1434zM1174 0h-205l-531 760l531 674h205l-531 -674z" />
    <glyph glyph-name="L" unicode="L" horiz-adv-x="1026" 
d="M1016 0h-852v1434h194v-1258h658v-176z" />
    <glyph glyph-name="M" unicode="M" horiz-adv-x="1662" 
d="M1565 0h-205l-135 1083l-389 -743l-398 743l-135 -1083h-205l193 1434h166l377 -711l372 711h168z" />
    <glyph glyph-name="N" unicode="N" horiz-adv-x="1441" 
d="M1278 0h-166l-754 1133v-1133h-194v1434h211l706 -1074v1074h197v-1434z" />
    <glyph glyph-name="O" unicode="O" horiz-adv-x="1572" 
d="M1280 715q0 251 -128 411t-363 160t-365.5 -158t-130.5 -411t130.5 -411.5t363 -158.5t363 158.5t130.5 409.5zM786.5 1462q311.5 0 509 -205.5t197.5 -541.5t-198 -540t-509 -204t-508.5 204.5t-197.5 539.5t197.5 541t509 206z" />
    <glyph glyph-name="P" unicode="P" horiz-adv-x="1171" 
d="M369 1260v-584h274q150 0 213.5 79t63.5 230t-74 213t-260 62h-217zM369 502v-502h-205v1434h459q236 0 367.5 -92t131.5 -350t-134.5 -374t-307.5 -116h-311z" />
    <glyph glyph-name="Q" unicode="Q" horiz-adv-x="1572" 
d="M293 719q0 -257 128 -414.5t365 -157.5q197 0 310 82l-211 172l102 125l215 -190q98 154 98 393t-138.5 398t-373 159t-365 -155t-130.5 -412zM786.5 1462q311.5 0 509 -205.5t197.5 -539.5q0 -264 -152 -490l123 -100l-102 -121l-133 111q-205 -145 -443 -146
q-312 0 -509 204.5t-197 539.5t197.5 541t509 206z" />
    <glyph glyph-name="R" unicode="R" horiz-adv-x="1234" 
d="M627 1276h-258v-528h309q104 0 174 68t70 195q0 128 -74 196.5t-221 68.5zM369 559v-559h-205v1434h465q249 0 372 -99.5t123 -320.5q0 -135 -68.5 -240.5t-193.5 -163.5l334 -610h-209l-317 559h-301z" />
    <glyph glyph-name="S" unicode="S" horiz-adv-x="1196" 
d="M920 370q0 104 -87 162.5t-284 124.5l-143 48q-174 57 -249 142t-75 202q0 154 121.5 283.5t388.5 129.5t457 -98l-21 -207q-258 129 -412 129q-211 0 -266 -78t-55 -133q0 -90 77 -139.5t176 -81.5t143.5 -42.5t164.5 -61.5l70 -37q54 -28 71 -45l52 -54q47 -49 62 -106
t22 -137q0 -162 -117 -279t-429 -119q-311 -2 -483 90l27 228q193 -143 440 -143t298 83t51 139z" />
    <glyph glyph-name="T" unicode="T" horiz-adv-x="1091" 
d="M1061 1257h-418v-1257h-194v1257h-418v177h1030v-177z" />
    <glyph glyph-name="U" unicode="U" horiz-adv-x="1482" 
d="M147 608v826h195v-732q0 -249 82 -402t315.5 -153t317.5 151.5t84 403.5v732h194v-826q0 -303 -148.5 -470t-445.5 -167t-445.5 167t-148.5 470z" />
    <glyph glyph-name="V" unicode="V" horiz-adv-x="1318" 
d="M1311 1434l-549 -1434h-205l-549 1434h205l449 -1211l444 1211h205z" />
    <glyph glyph-name="W" unicode="W" horiz-adv-x="1988" 
d="M1968 1434l-420 -1434h-215l-338 1176l-350 -1176h-215l-401 1434h204l318 -1213l358 1184h176l363 -1182l315 1211h205z" />
    <glyph glyph-name="X" unicode="X" horiz-adv-x="1226" 
d="M1217 0h-205l-414 586l-375 -586h-205l482 715l-482 719h226l368 -560l398 560h204l-512 -695z" />
    <glyph glyph-name="Y" unicode="Y" horiz-adv-x="1161" 
d="M682 0h-203v662l-485 772h205l381 -596l381 596h204l-483 -772v-662z" />
    <glyph glyph-name="Z" unicode="Z" horiz-adv-x="1124" 
d="M1018 176v-176h-1000l770 1257h-677v177h999l-772 -1258h680z" />
    <glyph glyph-name="bracketleft" unicode="[" horiz-adv-x="669" 
d="M670 -276h-527v1812h527v-139h-357v-1534h357v-139z" />
    <glyph glyph-name="backslash" unicode="\" horiz-adv-x="1075" 
d="M1036 -174h-190l-774 1608h190z" />
    <glyph glyph-name="bracketright" unicode="]" horiz-adv-x="669" 
d="M0 1536h526v-1812h-526v139h356v1534h-356v139z" />
    <glyph glyph-name="asciicircum" unicode="^" horiz-adv-x="1046" 
d="M944 895l-422 442l-422 -442v217l422 442l422 -442v-217z" />
    <glyph glyph-name="underscore" unicode="_" horiz-adv-x="1159" 
d="M1153 -250h-1147v176h1147v-176z" />
    <glyph glyph-name="grave" unicode="`" horiz-adv-x="620" 
d="M502 1221l-383 131v147l383 -194v-84z" />
    <glyph glyph-name="a" unicode="a" horiz-adv-x="983" 
d="M238 281q0 -154 155 -154q74 0 142.5 37t113.5 98v240q-221 -8 -316 -58.5t-95 -162.5zM924 -20q-121 0 -161 24.5t-59.5 53t-37.5 69.5q-127 -147 -308 -147q-141 0 -225 81t-84 197t102.5 239.5t497.5 131.5q0 135 -52 183t-175 48t-256 -90l-27 150q135 104 335 104
t280 -108t80 -373v-205q0 -119 20 -165t94 -46h19l-29 -147h-14z" />
    <glyph glyph-name="b" unicode="b" horiz-adv-x="1136" 
d="M383.5 763q-86.5 -97 -86.5 -264t85 -261.5t213 -94.5q129 0 208.5 105t79.5 257t-80.5 253.5t-206.5 101.5t-212.5 -97zM123 0v1536h184v-641q106 129 308 129t329 -152.5t127 -369.5t-131 -369.5t-324 -152.5q-76 0 -168.5 40t-140.5 107l-20 -127h-164z" />
    <glyph glyph-name="c" unicode="c" horiz-adv-x="929" 
d="M567 -20q-233 0 -366 146.5t-133 378.5t129 375.5t368 143.5q201 0 309 -59l-28 -166q-126 61 -276 61t-232 -92t-82 -264t82 -267.5t232 -95.5t278 62l24 -148q-112 -75 -305 -75z" />
    <glyph glyph-name="d" unicode="d" horiz-adv-x="1136" 
d="M254 506q0 -157 77 -260t207 -103t221 91t91 259t-93 267.5t-223 99.5q-125 0 -202.5 -98.5t-77.5 -255.5zM1014 0h-164l-21 127q-44 -62 -180.5 -125.5t-307 19t-223 228t-52.5 251.5q0 221 128.5 372.5t329.5 151.5t305 -127v639h185v-1536z" />
    <glyph glyph-name="e" unicode="e" horiz-adv-x="1048" 
d="M551 860q-223 0 -283 -231h529q0 111 -61.5 171t-184.5 60zM198.5 877.5q135.5 146.5 345.5 146.5q209 0 326 -115t117 -309q0 -57 -8 -98h-727q33 -358 377 -359q154 0 289 60l24 -146q-178 -77 -320 -77t-244 40.5t-208.5 149.5t-106.5 335t135.5 372.5z" />
    <glyph glyph-name="f" unicode="f" horiz-adv-x="677" 
d="M649 860h-270v-860h-184v860h-175l25 144h150v253q0 125 60 202t182 77t200 -27l-29 -155q-58 18 -108 18t-70 -7t-35.5 -41.5t-15.5 -197.5v-122h270v-144z" />
    <glyph glyph-name="g" unicode="g" horiz-adv-x="1019" 
d="M229 -214q0 -62 80 -108.5t224 -46.5t225.5 48.5t81.5 111.5q-1 107 -269 156q-35 0 -182 24q-70 -20 -115 -71.5t-45 -113.5zM484 877q-112 0 -173 -69.5t-61 -183.5t67 -182.5t175 -68.5t171.5 73.5t63.5 188.5t-65.5 178.5t-177.5 63.5zM53 -209q0 160 178 225
q-102 49 -102 127q0 35 27.5 77t91.5 73q-174 125 -174 328q0 175 108.5 289t300.5 114q135 0 256 -74q106 57 244 58h16l-22 -123h-47q-63 0 -119 -15q92 -111 92 -256t-112 -264t-293 -119q-80 0 -144 19q-49 -28 -49 -54t11.5 -39.5t50 -25t178.5 -36.5q139 -25 305 -68
t176 -224q0 -131 -138 -223t-367 -92q-226 0 -347 87.5t-121 215.5z" />
    <glyph glyph-name="h" unicode="h" horiz-adv-x="1110" 
d="M995 0h-184v537q0 178 -53 250.5t-187 72.5q-180 0 -262 -131v-729h-186v1536h186v-641q100 129 291 129q395 0 395 -487v-537z" />
    <glyph glyph-name="i" unicode="i" horiz-adv-x="434" 
d="M309 0h-184v1004h184v-1004zM309 1229h-184v205h184v-205z" />
    <glyph glyph-name="j" unicode="j" horiz-adv-x="434" 
d="M309 1229h-184v205h184v-205zM125 -150v1154h184v-1223q0 -226 -252 -266l-61 -11l-21 142q91 8 120.5 46.5t29.5 157.5z" />
    <glyph glyph-name="k" unicode="k" horiz-adv-x="917" 
d="M307 0h-184v1536h184v-985l369 453h225l-414 -463l424 -541h-225l-379 510v-510z" />
    <glyph glyph-name="l" unicode="l" horiz-adv-x="483" 
d="M383 -20q-135 0 -197.5 68.5t-62.5 172.5v1315h184v-1208q0 -131 21.5 -159t53.5 -35t87 -7l-27 -147h-59z" />
    <glyph glyph-name="m" unicode="m" horiz-adv-x="1796" 
d="M1681 0h-184v590q0 141 -55.5 205.5t-179.5 64.5q-266 0 -267 -278v-582h-184v553q0 172 -60.5 239.5t-175.5 67.5q-193 0 -266 -131v-729h-184v1004h143l21 -107q82 74 149.5 100.5t151.5 26.5q229 0 340 -201q104 201 366 201q385 0 385 -432v-592z" />
    <glyph glyph-name="n" unicode="n" horiz-adv-x="1144" 
d="M1030 0h-184v553q0 162 -60.5 234.5t-201.5 72.5q-201 0 -275 -131v-729h-184v1004h143l21 -107q143 127 332 127q410 0 409 -471v-553z" />
    <glyph glyph-name="o" unicode="o" horiz-adv-x="1126" 
d="M563.5 860q-147.5 0 -228.5 -93t-81 -265t81 -265.5t229 -93.5t228 96.5t80 264.5t-80 262q-81 94 -228.5 94zM563.5 1024q225.5 0 361.5 -149t136 -373q0 -226 -134 -374t-363 -148t-363.5 146t-134.5 375t136 376t361.5 147z" />
    <glyph glyph-name="p" unicode="p" horiz-adv-x="1140" 
d="M299 498q0 -166 87.5 -260.5t214.5 -94.5t205.5 100t78.5 260t-77.5 258.5t-201.5 98.5q-127 0 -217 -98t-90 -264zM309 -496h-184v1500h143l21 -144q70 84 145.5 124t185.5 40q206 0 329.5 -153.5t123.5 -376.5t-117 -368.5t-331 -145.5q-130 0 -209.5 56t-106.5 91
v-623z" />
    <glyph glyph-name="q" unicode="q" horiz-adv-x="1140" 
d="M256 502q0 -241 107 -300t171 -59q134 0 221 96t87 260t-90 262.5t-218 98.5q-123 0 -200.5 -98.5t-77.5 -259.5zM516 -20q-213 0 -330.5 143t-117.5 370t124.5 379t321.5 152q117 0 192.5 -40t145.5 -124l20 144h144v-1500h-185v623q-48 -64 -140 -105.5t-175 -41.5z
" />
    <glyph glyph-name="r" unicode="r" horiz-adv-x="657" 
d="M551 838q-93 0 -155 -52.5t-74 -76.5v-709h-197v1004h151l23 -166q94 106 171 154t169 48h16l-41 -202h-63z" />
    <glyph glyph-name="s" unicode="s" horiz-adv-x="847" 
d="M410 -20q-219 0 -344 88l22 178q41 -37 126 -70t187 -33q201 0 201 125q0 113 -201 166q-143 33 -199.5 75t-84 91t-31.5 123q0 129 92 215t285 86q137 0 272 -66l-22 -167q-106 88 -246 88q-195 0 -195 -136q0 -63 46.5 -94t138.5 -57t142 -48t122 -80t72 -185
q0 -196 -134 -247.5t-249 -51.5z" />
    <glyph glyph-name="t" unicode="t" horiz-adv-x="690" 
d="M471 -20q-133 0 -197.5 69.5t-64.5 169.5v641h-172l16 144h156v247l184 19v-266h264v-144h-264v-528q0 -72 4 -113t23.5 -61.5t62.5 -25.5t121 -5h47l-14 -147h-166z" />
    <glyph glyph-name="u" unicode="u" horiz-adv-x="1073" 
d="M948 0h-164l-20 111q-94 -131 -279 -131q-371 0 -370 440v584h184v-533q0 -328 233 -328q160 0 232 115v746h184v-1004z" />
    <glyph glyph-name="v" unicode="v" horiz-adv-x="1007" 
d="M989 1004l-381 -1004h-207l-383 1004h205l281 -801l278 801h207z" />
    <glyph glyph-name="w" unicode="w" horiz-adv-x="1484" 
d="M1462 1004l-303 -1004h-207l-209 741l-211 -741h-206l-301 1004h217l192 -801l213 770h191l215 -770l192 801h217z" />
    <glyph glyph-name="x" unicode="x" horiz-adv-x="970" 
d="M948 0h-207l-254 395l-258 -395h-206l350 500l-342 504h207l251 -398l232 398h215l-330 -488z" />
    <glyph glyph-name="y" unicode="y" horiz-adv-x="1034" 
d="M1020 1004l-614 -1500h-205l231 541l-418 959h205l313 -746l283 746h205z" />
    <glyph glyph-name="z" unicode="z" horiz-adv-x="964" 
d="M903 143v-143h-858l535 860h-514v144h847l-534 -861h524z" />
    <glyph glyph-name="braceleft" unicode="{" horiz-adv-x="612" 
d="M326 408l-7 -193q0 -111 8.5 -176.5t38 -102t87 -51t155.5 -20.5v-141q-236 8 -337 83t-101 222l16 297q0 111 -32.5 181.5t-114.5 121.5q78 53 112.5 123.5t34.5 181.5l-16 295q0 145 99.5 222t338.5 85v-141q-200 -4 -239 -64.5t-44.5 -126t-5.5 -160.5l7 -176
q0 -78 -35.5 -130.5t-134.5 -108.5q103 -56 136.5 -102.5t33.5 -118.5z" />
    <glyph glyph-name="bar" unicode="|" horiz-adv-x="468" 
d="M326 -428h-183v1964h183v-1964z" />
    <glyph glyph-name="braceright" unicode="}" horiz-adv-x="612" 
d="M426 326l16 -297q0 -147 -101 -222t-337 -83v141q111 2 170 22.5t85 63.5t30 108.5t4 155.5l-6 193q0 73 35.5 120.5t134.5 100.5q-103 60 -136.5 110t-33.5 129l6 176q0 111 -8.5 176.5t-38 102.5t-87 51.5t-155.5 20.5v141q240 -8 339 -85t99 -222l-16 -295
q0 -111 35 -181.5t112 -123.5q-82 -51 -114.5 -122t-32.5 -181z" />
    <glyph glyph-name="asciitilde" unicode="~" horiz-adv-x="931" 
d="M600 367q-25 0 -59.5 16t-79.5 35.5t-78 36t-53 16.5q-109 0 -146 -100l-73 18q23 87 82 135.5t129 48.5q27 0 63.5 -15t83.5 -34.5t80 -35t59 -15.5q86 0 142 105l69 -19q-23 -88 -82 -140t-137 -52z" />
    <glyph glyph-name="Zcaron" horiz-adv-x="1124" 
d="M1018 176v-176h-1000l770 1257h-677v177h999l-772 -1258h680zM881 1860l-301 -203l-301 203v84l301 -156l301 156v-84z" />
    <glyph glyph-name="Zcaron" unicode="&#x17d;" horiz-adv-x="1124" 
d="M1018 176v-176h-1000l770 1257h-677v177h999l-772 -1258h680zM881 1860l-301 -203l-301 203v84l301 -156l301 156v-84z" />
    <glyph glyph-name="zcaron" horiz-adv-x="964" 
d="M903 143v-143h-858l535 860h-514v144h847l-534 -861h524zM786 1432l-301 -203l-301 203v84l301 -156l301 156v-84z" />
    <glyph glyph-name="zcaron" unicode="&#x17e;" horiz-adv-x="964" 
d="M903 143v-143h-858l535 860h-514v144h847l-534 -861h524zM786 1432l-301 -203l-301 203v84l301 -156l301 156v-84z" />
    <glyph glyph-name="uni00A0" unicode="&#xa0;" horiz-adv-x="460" 
 />
    <glyph glyph-name="exclamdown" unicode="&#xa1;" horiz-adv-x="458" 
d="M143 1024h172v-176h-172v176zM102 -512l62 1126h131l61 -1126h-254z" />
    <glyph glyph-name="cent" unicode="&#xa2;" horiz-adv-x="976" 
d="M625 1087q-107 0 -169.5 -29.5t-126 -106.5t-63.5 -243q0 -165 90 -267.5t232 -102.5t268 65l16 -159q-35 -23 -84 -41.5t-165 -24.5l30 -241h-184l35 245q-190 24 -312 167t-122 356t115.5 361t318.5 175l-35 291h184l-32 -287q160 -11 251 -65l-16 -160
q-124 67 -231 67z" />
    <glyph glyph-name="sterling" unicode="&#xa3;" horiz-adv-x="1024" 
d="M496 999v-190h393l-31 -176h-375q-14 -178 -28.5 -249t-69.5 -208h535v-176h-850q104 147 149.5 284.5t67.5 348.5h-195l29 176h178v235q0 191 74.5 304.5t283.5 113.5q141 0 219 -50t107 -126l-131 -121q-57 115 -175 115t-149.5 -58.5t-31.5 -222.5z" />
    <glyph glyph-name="currency" unicode="&#xa4;" horiz-adv-x="1282" 
d="M973 714q0 172 -87 282t-244 110t-245 -110t-88 -284.5t88 -283.5t243.5 -109t244 111.5t88.5 283.5zM125 712q0 226 164 396l-160 209l57 49l160 -211q156 78 298 78t290 -80l164 213l57 -49l-160 -211q162 -168 162 -391t-164 -400l162 -206l-59 -50l-162 211
q-143 -78 -294 -78t-292 78l-162 -211l-57 50l158 208q-162 169 -162 395z" />
    <glyph glyph-name="yen" unicode="&#xa5;" horiz-adv-x="1380" 
d="M791 537v-127h364l-43 -111h-321v-299h-197v299h-365l43 111h322v127h-365l43 110h320l-531 787h191l440 -629l441 629h190l-530 -787h362l-43 -110h-321z" />
    <glyph glyph-name="brokenbar" unicode="&#xa6;" horiz-adv-x="475" 
d="M328 -430h-181v764h181v-764zM328 631h-181v905h181v-905z" />
    <glyph glyph-name="section" unicode="&#xa7;" horiz-adv-x="933" 
d="M215 700q0 -166 332 -251q74 20 117 79.5t43 135.5q0 165 -289 233q-126 -9 -164.5 -77t-38.5 -120zM766 131q0 -51 -20.5 -108.5t-62.5 -100.5t-107.5 -68.5t-153.5 -25.5t-170 22.5t-123 57.5l27 129q138 -84 252 -84q226 0 227 170q0 72 -41 111.5t-103.5 64.5
t-135 46.5t-135 59t-103.5 100t-41 171.5q0 238 223 305q-80 57 -105.5 109t-25.5 118q0 148 86 238t257 90t296 -82l-27 -129q-138 88 -248 88t-163.5 -51.5t-53.5 -119.5t40 -106t100.5 -65t231.5 -89t171 -304q0 -203 -213 -293q78 -60 96.5 -100.5t21.5 -71.5t3 -82z
" />
    <glyph glyph-name="dieresis" unicode="&#xa8;" horiz-adv-x="864" 
d="M322 1229h-144v205h144v-205zM686 1229h-143v205h143v-205z" />
    <glyph glyph-name="copyright" unicode="&#xa9;" horiz-adv-x="1474" 
d="M773 403q-89 0 -148.5 25t-102.5 69t-66.5 106.5t-23.5 179.5t90.5 209.5t233.5 92.5q98 0 184 -38l-14 -123q-92 39 -177 39t-132.5 -60.5t-47.5 -159t47.5 -159t131.5 -60.5t178 41l14 -121q-78 -41 -167 -41zM737 1327q-129 0 -227 -42t-166 -118.5t-102.5 -183
t-34.5 -236t33.5 -235.5t101.5 -183t167 -119t228 -42t227.5 43t166 120t101.5 183.5t34 233t-35 233t-101.5 183.5t-165 120t-227.5 43zM100 749q0 151 47.5 274.5t132.5 211.5t201.5 136t256 48t256 -48t200.5 -137t131 -213t47 -273.5t-47 -272.5t-131 -212t-200.5 -138
t-256 -49t-257.5 49t-201.5 137t-131 212t-47.5 275z" />
    <glyph glyph-name="ordfeminine" unicode="&#xaa;" horiz-adv-x="714" 
d="M229 1069q0 -66 82 -65q56 -1 103 34v129q-72 -2 -128.5 -27.5t-56.5 -70.5zM571 889q-98 0 -137 63q-63 -63 -188 -63q-76 0 -127 46.5t-51 116.5t63 139.5t281 78.5q-4 86 -109 86q-66 0 -170 -41l-12 123q111 47 223 47q223 0 223 -221v-164q0 -61 9.5 -73.5
t44.5 -12.5h20l-14 -125h-56z" />
    <glyph glyph-name="guillemotleft" unicode="&#xab;" horiz-adv-x="1153" 
d="M537 160h-205l-301 422l301 422h205l-301 -422zM1071 160h-207l-301 422l301 422h207l-303 -422z" />
    <glyph glyph-name="logicalnot" unicode="&#xac;" horiz-adv-x="1220" 
d="M1077 309h-112v400h-830v122h942v-522z" />
    <glyph glyph-name="uni00AD" unicode="&#xad;" horiz-adv-x="868" 
d="M752 471h-635v193h635v-193z" />
    <glyph glyph-name="registered" unicode="&#xae;" horiz-adv-x="1474" 
d="M713 987h-86v-203h82q125 0 125 103q0 49 -26.5 74.5t-94.5 25.5zM627 670v-240h-127v657h241q111 0 168.5 -46t57.5 -154t-111 -182l145 -275h-129l-133 240h-112zM343 324.5q138 -158.5 394 -158.5t393.5 161t137.5 422.5t-140.5 420.5t-391 159t-391 -158.5
t-140.5 -423t138 -423zM100 749q0 151 47.5 274.5t132.5 211.5t201.5 136t256 48t256 -48t200.5 -137t131 -213t47 -273.5t-47 -272.5t-131 -212t-200.5 -138t-256 -49t-257.5 49t-201.5 137t-131 212t-47.5 275z" />
    <glyph glyph-name="degree" unicode="&#xb0;" horiz-adv-x="681" 
d="M210 1428.5q-50 -64.5 -50 -162.5t50 -162t134 -64t129 66.5t45 135.5t-11 110t-46.5 91t-118.5 50q-82 0 -132 -64.5zM338 987q-127 0 -197.5 79t-70.5 200q0 191 104.5 235.5t197.5 44.5t166.5 -81t73.5 -200q0 -120 -73 -199q-74 -79 -201 -79z" />
    <glyph glyph-name="plusminus" unicode="&#xb1;" horiz-adv-x="1019" 
d="M889 86h-758v137h758v-137zM889 670h-314v-295h-131v295h-313v137h313v283h131v-283h314v-137z" />
    <glyph glyph-name="uni00B2" unicode="&#xb2;" horiz-adv-x="622" 
d="M559 655h-508q216 291 268 385.5t60 125t8 64.5t-30.5 63.5t-86.5 29.5q-104 0 -190 -121l-19 133q23 39 86 75t139 36q132 0 188 -58.5t56 -150.5q0 -139 -217 -438h246v-144z" />
    <glyph glyph-name="uni00B3" unicode="&#xb3;" horiz-adv-x="634" 
d="M124 661q-71 22 -85 39l37 136q66 -53 180 -54q160 0 160 107q0 61 -32 96t-120 35h-106l12 113h55q158 0 158 98q0 90 -123 90q-100 0 -145 -35l-23 109q53 51 187 51t196 -60t62 -158t-80 -143q111 -66 111 -187t-89.5 -190t-186.5 -69t-168 22z" />
    <glyph glyph-name="acute" unicode="&#xb4;" horiz-adv-x="620" 
d="M502 1352l-383 -131v84l383 194v-147z" />
    <glyph glyph-name="uni00B5" unicode="&#xb5;" horiz-adv-x="1210" 
d="M1053 -20q-162 0 -219 149q-68 -78 -126.5 -115t-136.5 -37t-126 15.5t-115 62.5v-551h-180v1500h182v-529q0 -172 54 -253t196 -81q78 0 129 27t108 92v744h178v-656q0 -117 19.5 -169t77.5 -52h45l-33 -147h-53z" />
    <glyph glyph-name="paragraph" unicode="&#xb6;" horiz-adv-x="1273" 
d="M1188 1296h-154v-1296h-98v1296h-207v-1296h-84v498q-273 15 -425 149.5t-152 326.5t158.5 326t430.5 134h531v-138z" />
    <glyph glyph-name="periodcentered" unicode="&#xb7;" horiz-adv-x="487" 
d="M371 436h-254v266h254v-266z" />
    <glyph glyph-name="cedilla" unicode="&#xb8;" horiz-adv-x="620" 
d="M569 -111l-180 -272l-94 -10l139 270z" />
    <glyph glyph-name="uni00B9" unicode="&#xb9;" horiz-adv-x="442" 
d="M317 655h-153v566q-66 -29 -105 -35l-12 123q37 4 90 44.5t64 76.5h116v-775z" />
    <glyph glyph-name="ordmasculine" unicode="&#xba;" horiz-adv-x="757" 
d="M379 1364q-72 0 -113 -50t-41 -127t41 -126t113 -49t112.5 49t40.5 126t-40 127q-41 50 -113 50zM690 1190q0 -127 -85 -214t-225 -87t-226 86t-86 213t84 212t224.5 85t227 -84t86.5 -211z" />
    <glyph glyph-name="guillemotright" unicode="&#xbb;" horiz-adv-x="1153" 
d="M592 582l-301 -422h-207l303 422l-303 422h207zM1122 582l-301 -422h-205l302 422l-302 422h205z" />
    <glyph glyph-name="onequarter" unicode="&#xbc;" horiz-adv-x="1468" 
d="M350 655h-153v566q-66 -29 -105 -35l-12 123q39 4 90 45q51 40 63 76h117v-775zM1104 1434l-774 -1608h-205l774 1608h205zM1147 330v225l-152 -225h152zM1399 213h-101v-211h-151v211h-359l383 563h127v-446h101v-117z" />
    <glyph glyph-name="onehalf" unicode="&#xbd;" horiz-adv-x="1492" 
d="M344 655h-154v566q-66 -29 -104 -35l-12 123q39 4 90 45q51 40 63 76h117v-775zM1098 1434l-774 -1608h-205l774 1608h205zM1421 0h-508q226 305 281 407t55 152q-1 51 -31 80t-85 29q-104 0 -191 -121l-18 133q23 39 85 75q63 36 139 36q187 0 231 -128q13 -38 14 -81
q0 -139 -217 -439h245v-143z" />
    <glyph glyph-name="threequarters" unicode="&#xbe;" horiz-adv-x="1812" 
d="M291 1020h-107l13 113h55q158 0 158 98q0 90 -123 90q-100 0 -146 -35l-22 109q53 51 186 51t196 -60q62 -60 62 -158t-80 -143q111 -66 111 -186t-89 -190t-204 -70t-204 41q-24 10 -31 20l36 136q66 -53 181 -54q160 0 159 107q0 61 -31 96q-32 35 -120 35zM1452 1434
l-774 -1608h-205l774 1608h205zM1491 330v225l-152 -225h152zM1743 213h-101v-211h-151v211h-358l383 563h126v-446h101v-117z" />
    <glyph glyph-name="questiondown" unicode="&#xbf;" horiz-adv-x="919" 
d="M440 1024h187v-176h-187v176zM477 614h121q6 -84 6 -120t-22.5 -90t-57.5 -104t-73.5 -98t-96 -131t-57.5 -199t76.5 -182.5t171.5 -66.5q96 0 178 45.5t104 93.5l52 -137q-39 -59 -127 -98t-192 -39t-182.5 34t-164.5 116t-86 224.5t123 301.5l102 133q128 164 125 262
v55z" />
    <glyph glyph-name="Agrave" unicode="&#xc0;" 
d="M844 563l-213 598l-213 -598h426zM1247 0h-205l-137 387h-549l-137 -387h-205l514 1434h205zM823 1649l-383 131v147l383 -194v-84z" />
    <glyph glyph-name="Aacute" unicode="&#xc1;" 
d="M844 563l-213 598l-213 -598h426zM1247 0h-205l-137 387h-549l-137 -387h-205l514 1434h205zM823 1780l-383 -131v84l383 194v-147z" />
    <glyph glyph-name="Acircumflex" unicode="&#xc2;" 
d="M844 563l-213 598l-213 -598h426zM1247 0h-205l-137 387h-549l-137 -387h-205l514 1434h205zM934 1663l-301 168l-301 -168v74l301 217l301 -217v-74z" />
    <glyph glyph-name="Atilde" unicode="&#xc3;" 
d="M844 563l-213 598l-213 -598h426zM1247 0h-205l-137 387h-549l-137 -387h-205l514 1434h205zM768 1655q-44 0 -215 88q-33 16 -55 16q-109 0 -146 -100l-73 18q37 140 147 173q66 22 115 2t96 -40t83 -35t56 -16q86 0 142 105l69 -19q-23 -88 -82 -140t-137 -52z" />
    <glyph glyph-name="Adieresis" unicode="&#xc4;" 
d="M844 563l-213 598l-213 -598h426zM1247 0h-205l-137 387h-549l-137 -387h-205l514 1434h205zM522 1657h-143v205h143v-205zM887 1657h-144v205h144v-205z" />
    <glyph glyph-name="Aring" unicode="&#xc5;" 
d="M844 563l-213 598l-213 -598h426zM1247 0h-205l-137 387h-549l-137 -387h-205l514 1434h205zM510 1789q0 -54 37 -88t86 -34t86 34t37 88t-36 88t-87 34t-87 -34t-36 -88zM633 1608q-100 0 -157 53q-56 53 -56 131t59 130t161 52t152 -54t51 -127t-48 -129t-148 -56h-14z
" />
    <glyph glyph-name="AE" unicode="&#xc6;" horiz-adv-x="1771" 
d="M803 557v694l-350 -694h350zM1696 0h-893v369h-438l-189 -369h-190l700 1434h989v-179h-639v-417h494v-176h-494v-486h660v-176z" />
    <glyph glyph-name="Ccedilla" unicode="&#xc7;" 
d="M828 -29q-188 -1 -319 53q-267 108 -376 388q-53 137 -53 304q0 333 201 539q201 207 516 207q219 0 397 -84l-20 -180l-117 41q-117 47 -249 47t-225 -43q-189 -87 -256 -299q-34 -104 -34 -226q0 -250 134 -410q134 -161 374 -161q62 0 119 11l51 10q16 2 55 16l47 15
q10 2 53 18l48 16l20 -180q-178 -82 -366 -82zM766 -111l-180 -272l-94 -10l139 270z" />
    <glyph glyph-name="Egrave" unicode="&#xc8;" horiz-adv-x="1134" 
d="M1057 0h-893v1434h874v-177h-680v-419h541v-176h-541v-486h699v-176zM760 1649l-383 131v147l383 -194v-84z" />
    <glyph glyph-name="Eacute" unicode="&#xc9;" horiz-adv-x="1134" 
d="M1057 0h-893v1434h874v-177h-680v-419h541v-176h-541v-486h699v-176zM758 1780l-383 -131v84l383 194v-147z" />
    <glyph glyph-name="Ecircumflex" unicode="&#xca;" horiz-adv-x="1134" 
d="M1057 0h-893v1434h874v-177h-680v-419h541v-176h-541v-486h699v-176zM866 1663l-301 168l-301 -168v74l301 217l301 -217v-74z" />
    <glyph glyph-name="Edieresis" unicode="&#xcb;" horiz-adv-x="1134" 
d="M1057 0h-893v1434h874v-177h-680v-419h541v-176h-541v-486h699v-176zM455 1657h-144v205h144v-205zM819 1657h-143v205h143v-205z" />
    <glyph glyph-name="Igrave" unicode="&#xcc;" horiz-adv-x="522" 
d="M358 0h-194v1434h194v-1434zM455 1649l-383 131v147l383 -194v-84z" />
    <glyph glyph-name="Iacute" unicode="&#xcd;" horiz-adv-x="522" 
d="M358 0h-194v1434h194v-1434zM457 1780l-383 -131v84l383 194v-147z" />
    <glyph glyph-name="Icircumflex" unicode="&#xce;" horiz-adv-x="522" 
d="M358 0h-194v1434h194v-1434zM569 1663l-301 168l-301 -168v74l301 217l301 -217v-74z" />
    <glyph glyph-name="Idieresis" unicode="&#xcf;" horiz-adv-x="522" 
d="M358 0h-194v1434h194v-1434zM154 1657h-144v205h144v-205zM518 1657h-143v205h143v-205z" />
    <glyph glyph-name="Eth" unicode="&#xd0;" horiz-adv-x="1488" 
d="M700 1257h-340v-485h273v-131h-273v-463h340q242 0 370 143.5t128 395.5t-128.5 396t-369.5 144zM176 0v641h-199v131h199v662h524q312 0 509.5 -192t197.5 -522t-193 -525t-514 -195h-524z" />
    <glyph glyph-name="Ntilde" unicode="&#xd1;" horiz-adv-x="1441" 
d="M1278 0h-166l-754 1133v-1133h-194v1434h211l706 -1074v1074h197v-1434zM856 1655q-44 0 -215 88q-33 16 -55 16q-109 0 -146 -100l-73 18q48 180 211 185q28 0 64 -16t83 -34q47 -20 83 -35t56 -16q86 0 142 105l69 -19q-23 -88 -82 -140t-137 -52z" />
    <glyph glyph-name="Ograve" unicode="&#xd2;" horiz-adv-x="1572" 
d="M1280 716q0 250 -128 410t-363 160t-366 -159q-130 -159 -130 -411q0 -251 130 -410t362 -159t364 159q131 160 131 410zM1296 1256q197 -206 197 -542q0 -335 -198 -539t-510 -204t-508 205q-197 205 -197 541q0 335 200 541q196 204 507 204q312 0 509 -206zM979 1649
l-383 131v147l383 -194v-84z" />
    <glyph glyph-name="Oacute" unicode="&#xd3;" horiz-adv-x="1572" 
d="M1280 716q0 250 -128 410t-363 160t-366 -159q-130 -159 -130 -411q0 -251 130 -410t362 -159t364 159q131 160 131 410zM1296 1256q197 -206 197 -542q0 -335 -198 -539t-510 -204t-508 205q-197 205 -197 541q0 335 200 541q196 204 507 204q312 0 509 -206zM977 1780
l-383 -131v84l383 194v-147z" />
    <glyph glyph-name="Ocircumflex" unicode="&#xd4;" horiz-adv-x="1572" 
d="M1280 716q0 250 -128 410t-363 160t-366 -159q-130 -159 -130 -411q0 -251 130 -410t362 -159t364 159q131 160 131 410zM1296 1256q197 -206 197 -542q0 -335 -198 -539t-510 -204t-508 205q-197 205 -197 541q0 335 200 541q196 204 507 204q312 0 509 -206zM1087 1663
l-301 168l-301 -168v74l301 217l301 -217v-74z" />
    <glyph glyph-name="Otilde" unicode="&#xd5;" horiz-adv-x="1572" 
d="M1280 716q0 250 -128 410t-363 160t-366 -159q-130 -159 -130 -411q0 -251 130 -410t362 -159t364 159q131 160 131 410zM1296 1256q197 -206 197 -542q0 -335 -198 -539t-510 -204t-508 205q-197 205 -197 541q0 335 200 541q196 204 507 204q312 0 509 -206zM922 1655
q-49 0 -215 88q-33 16 -56 16q-109 0 -145 -100l-74 18q37 139 148 173q66 22 115 2t96 -40t83 -35t56 -16q86 0 141 105l70 -19q-23 -88 -82 -140t-137 -52z" />
    <glyph glyph-name="Odieresis" unicode="&#xd6;" horiz-adv-x="1572" 
d="M1280 716q0 250 -128 410t-363 160t-366 -159q-130 -159 -130 -411q0 -251 130 -410t362 -159t364 159q131 160 131 410zM1296 1256q197 -206 197 -542q0 -335 -198 -539t-510 -204t-508 205q-197 205 -197 541q0 335 200 541q196 204 507 204q312 0 509 -206zM676 1657
h-144v205h144v-205zM1040 1657h-143v205h143v-205z" />
    <glyph glyph-name="multiply" unicode="&#xd7;" horiz-adv-x="899" 
d="M774 317l-74 -73l-251 252l-250 -252l-74 73l252 250l-252 250l74 74l250 -252l251 252l74 -74l-254 -250z" />
    <glyph glyph-name="Oslash" unicode="&#xd8;" horiz-adv-x="1572" 
d="M781 1280q-227 0 -353.5 -158t-126.5 -407q0 -201 113 -396l616 904q-135 57 -249 57zM789 156q230 0 356.5 155.5t126.5 411.5t-119 399l-621 -907q141 -59 257 -59zM297 154q-217 231 -217 564t197.5 538.5t508.5 205.5q176 0 353 -86l63 90h189l-125 -182
q227 -227 227 -564t-197 -541t-527 -204q-171 0 -345 88l-86 -124h-191z" />
    <glyph glyph-name="Ugrave" unicode="&#xd9;" horiz-adv-x="1486" 
d="M147 608v826h195v-732q0 -251 71 -381q92 -172 326 -173t332 176q67 122 70 378v732h194v-826q0 -303 -148 -470q-147 -167 -445 -167t-446 167t-149 470zM934 1649l-383 131v147l383 -194v-84z" />
    <glyph glyph-name="Uacute" unicode="&#xda;" horiz-adv-x="1486" 
d="M147 608v826h195v-732q0 -251 71 -381q92 -172 326 -173t332 176q67 122 70 378v732h194v-826q0 -303 -148 -470q-147 -167 -445 -167t-446 167t-149 470zM934 1780l-383 -131v84l383 194v-147z" />
    <glyph glyph-name="Ucircumflex" unicode="&#xdb;" horiz-adv-x="1486" 
d="M147 608v826h195v-732q0 -251 71 -381q92 -172 326 -173t332 176q67 122 70 378v732h194v-826q0 -303 -148 -470q-147 -167 -445 -167t-446 167t-149 470zM1042 1663l-301 168l-301 -168v74l301 217l301 -217v-74z" />
    <glyph glyph-name="Udieresis" unicode="&#xdc;" horiz-adv-x="1486" 
d="M147 608v826h195v-732q0 -251 71 -381q92 -172 326 -173t332 176q67 122 70 378v732h194v-826q0 -303 -148 -470q-147 -167 -445 -167t-446 167t-149 470zM633 1657h-144v205h144v-205zM997 1657h-143v205h143v-205z" />
    <glyph glyph-name="Yacute" unicode="&#xdd;" horiz-adv-x="1161" 
d="M682 0h-203v662l-485 772h205l381 -596l381 596h204l-483 -772v-662zM797 1780l-383 -131v84l383 194v-147z" />
    <glyph glyph-name="Thorn" unicode="&#xde;" horiz-adv-x="1167" 
d="M369 1014v-584h274q150 0 213.5 79t63.5 230t-74 213t-260 62h-217zM369 256v-256h-205v1434h205v-246h254q236 0 367.5 -92t131.5 -350t-134.5 -374t-307.5 -116h-311z" />
    <glyph glyph-name="germandbls" unicode="&#xdf;" horiz-adv-x="1140" 
d="M701 -20q-57 0 -132 6v157q201 0 260.5 16.5t85 46.5t25.5 86t-25.5 104t-64.5 90t-84 78t-84 70t-64.5 64.5t-25.5 64.5t33.5 77t109.5 137t76 205t-53.5 150.5t-156.5 39.5q-104 0 -157 -52t-53 -198v-1401h-184v1139h-174l24 144h150v178q0 166 116 260t283 94
t279 -82.5t112 -261t-100 -288.5t-100 -128t24.5 -41.5t165.5 -138t141 -286.5q0 -103 -38.5 -162.5t-102 -96.5t-146.5 -54t-140 -17z" />
    <glyph glyph-name="agrave" unicode="&#xe0;" horiz-adv-x="983" 
d="M238 281q0 -154 155 -154q75 0 143 37t113 98v240q-221 -8 -316 -58t-95 -163zM924 -20q-121 0 -161 24t-60 53q-19 29 -37 70q-127 -147 -308 -147q-141 0 -225 80t-84 198q0 116 56 184q144 175 544 187q0 135 -52 183t-175 48t-256 -90l-27 150q135 104 334 104
t279 -107t82 -374v-205q0 -119 20 -165t94 -46h19l-29 -147h-14zM684 1221l-383 131v147l383 -194v-84z" />
    <glyph glyph-name="aacute" unicode="&#xe1;" horiz-adv-x="983" 
d="M238 281q0 -154 155 -154q75 0 143 37t113 98v240q-221 -8 -316 -58t-95 -163zM924 -20q-121 0 -161 24t-60 53q-19 29 -37 70q-127 -147 -308 -147q-141 0 -225 80t-84 198q0 116 56 184q144 175 544 187q0 135 -52 183t-175 48t-256 -90l-27 150q135 104 334 104
t279 -107t82 -374v-205q0 -119 20 -165t94 -46h19l-29 -147h-14zM682 1352l-383 -131v84l383 194v-147z" />
    <glyph glyph-name="acircumflex" unicode="&#xe2;" horiz-adv-x="983" 
d="M238 281q0 -154 155 -154q75 0 143 37t113 98v240q-221 -8 -316 -58t-95 -163zM924 -20q-121 0 -161 24t-60 53q-19 29 -37 70q-127 -147 -308 -147q-141 0 -225 80t-84 198q0 116 56 184q144 175 544 187q0 135 -52 183t-175 48t-256 -90l-27 150q135 104 334 104
t279 -107t82 -374v-205q0 -119 20 -165t94 -46h19l-29 -147h-14zM793 1235l-301 168l-302 -168v74l302 217l301 -217v-74z" />
    <glyph glyph-name="atilde" unicode="&#xe3;" horiz-adv-x="983" 
d="M238 281q0 -154 155 -154q75 0 143 37t113 98v240q-221 -8 -316 -58t-95 -163zM924 -20q-121 0 -161 24t-60 53q-19 29 -37 70q-127 -147 -308 -147q-141 0 -225 80t-84 198q0 116 56 184q144 175 544 187q0 135 -52 183t-175 48t-256 -90l-27 150q135 104 334 104
t279 -107t82 -374v-205q0 -119 20 -165t94 -46h19l-29 -147h-14zM621 1227q-49 0 -215 88q-33 16 -56 16q-109 0 -145 -100l-74 18q37 139 148 173q66 22 115 2q212 -89 235 -91q86 0 141 105l70 -19q-23 -88 -82 -140t-137 -52z" />
    <glyph glyph-name="adieresis" unicode="&#xe4;" horiz-adv-x="983" 
d="M238 281q0 -154 155 -154q75 0 143 37t113 98v240q-221 -8 -316 -58t-95 -163zM924 -20q-121 0 -161 24t-60 53q-19 29 -37 70q-127 -147 -308 -147q-141 0 -225 80t-84 198q0 116 56 184q144 175 544 187q0 135 -52 183t-175 48t-256 -90l-27 150q135 104 334 104
t279 -107t82 -374v-205q0 -119 20 -165t94 -46h19l-29 -147h-14zM381 1229h-143v205h143v-205zM745 1229h-143v205h143v-205z" />
    <glyph glyph-name="aring" unicode="&#xe5;" horiz-adv-x="983" 
d="M238 281q0 -154 155 -154q75 0 143 37t113 98v240q-221 -8 -316 -58t-95 -163zM924 -20q-121 0 -161 24t-60 53q-19 29 -37 70q-127 -147 -308 -147q-141 0 -225 80t-84 198q0 116 56 184q144 175 544 187q0 135 -52 183t-175 48t-256 -90l-27 150q135 104 334 104
t279 -107t82 -374v-205q0 -119 20 -165t94 -46h19l-29 -147h-14zM371 1361q0 -54 37 -88t86 -34t86 34q36 34 36 88t-35 88q-36 34 -87 34t-87 -34t-36 -88zM494 1180q-100 0 -157 53q-56 53 -56 131t59 130t162 52t152 -54t50 -127q2 -73 -48 -129t-148 -56h-14z" />
    <glyph glyph-name="ae" unicode="&#xe6;" horiz-adv-x="1634" 
d="M682 401q0 65 -4 101q-284 0 -364.5 -88t-80.5 -156q0 -131 160 -131q121 0 205 72.5t84 201.5zM1397 629q0 231 -221 231t-283 -231h504zM1573 614q0 -46 -8 -112h-688q0 -184 92 -279.5t245 -95.5q72 0 125.5 17t149.5 59l35 -142q-178 -82 -334 -81q-303 0 -412 231
q-53 -117 -165.5 -178.5t-263.5 -61.5t-227.5 71t-76.5 200q0 356 617 387q-18 125 -72.5 178t-166.5 53t-253 -59l-16 143q172 80 297 80t193.5 -39t105 -86t49.5 -121q38 121 141 183.5t242 62.5q180 0 285.5 -106.5t105.5 -303.5z" />
    <glyph glyph-name="ccedilla" unicode="&#xe7;" horiz-adv-x="929" 
d="M567 -20q-234 0 -367 147q-134 147 -133 378t129 375t369 144q201 0 309 -59l-28 -166q-126 61 -276 61t-232 -92t-82 -264t82 -267t232 -95t278 61l24 -148q-112 -75 -305 -75zM668 -111l-181 -272l-94 -10l139 270z" />
    <glyph glyph-name="egrave" unicode="&#xe8;" horiz-adv-x="1048" 
d="M551 860q-223 0 -283 -231h529q1 111 -61 171t-185 60zM987 600q0 -57 -8 -98h-727q33 -358 377 -359q154 0 289 60l24 -146q-178 -77 -320 -77q-265 1 -412 149q-147 149 -147 376t135 373t344 146q210 0 327 -115q118 -116 118 -309zM713 1221l-383 131v147l383 -194
v-84z" />
    <glyph glyph-name="eacute" unicode="&#xe9;" horiz-adv-x="1048" 
d="M551 860q-223 0 -283 -231h529q1 111 -61 171t-185 60zM987 600q0 -57 -8 -98h-727q33 -358 377 -359q154 0 289 60l24 -146q-178 -77 -320 -77q-265 1 -412 149q-147 149 -147 376t135 373t344 146q210 0 327 -115q118 -116 118 -309zM715 1352l-383 -131v84l383 194
v-147z" />
    <glyph glyph-name="ecircumflex" unicode="&#xea;" horiz-adv-x="1048" 
d="M551 860q-223 0 -283 -231h529q1 111 -61 171t-185 60zM987 600q0 -57 -8 -98h-727q33 -358 377 -359q154 0 289 60l24 -146q-178 -77 -320 -77q-265 1 -412 149q-147 149 -147 376t135 373t344 146q210 0 327 -115q118 -116 118 -309zM823 1235l-301 168l-301 -168v74
l301 217l301 -217v-74z" />
    <glyph glyph-name="edieresis" unicode="&#xeb;" horiz-adv-x="1048" 
d="M551 860q-223 0 -283 -231h529q1 111 -61 171t-185 60zM987 600q0 -57 -8 -98h-727q33 -358 377 -359q154 0 289 60l24 -146q-178 -77 -320 -77q-265 1 -412 149q-147 149 -147 376t135 373t344 146q210 0 327 -115q118 -116 118 -309zM412 1229h-144v205h144v-205z
M776 1229h-143v205h143v-205z" />
    <glyph glyph-name="igrave" unicode="&#xec;" horiz-adv-x="434" 
d="M309 0h-184v1004h184v-1004zM410 1221l-383 131v147l383 -194v-84z" />
    <glyph glyph-name="iacute" unicode="&#xed;" horiz-adv-x="434" 
d="M309 0h-184v1004h184v-1004zM412 1352l-383 -131v84l383 194v-147z" />
    <glyph glyph-name="icircumflex" unicode="&#xee;" horiz-adv-x="434" 
d="M309 0h-184v1004h184v-1004zM522 1235l-301 168l-301 -168v74l301 217l301 -217v-74z" />
    <glyph glyph-name="idieresis" unicode="&#xef;" horiz-adv-x="434" 
d="M309 0h-184v1004h184v-1004zM109 1229h-144v205h144v-205zM473 1229h-143v205h143v-205z" />
    <glyph glyph-name="eth" unicode="&#xf0;" horiz-adv-x="1058" 
d="M764 426q0 123 -66.5 199.5t-179.5 76.5t-184.5 -79.5t-71.5 -196.5t71 -199t184 -82q112 0 179.5 79t67.5 202zM185.5 99.5q-128.5 124.5 -128.5 309.5t116 324t304 139t289 -112q-28 174 -86.5 268t-89.5 119q-158 -109 -289 -127l-61 113q133 18 262 106
q-123 111 -248 111l65 86q147 0 306 -113q63 57 120 131l95 -24q-47 -68 -142 -173q131 -118 212 -322t81 -385q0 -182 -44 -288t-143 -196.5t-294 -90.5q-196 0 -324.5 124.5z" />
    <glyph glyph-name="ntilde" unicode="&#xf1;" horiz-adv-x="1144" 
d="M1030 0h-184v553q0 163 -60 235t-202 72q-201 0 -275 -131v-729h-184v1004h143l21 -107q143 127 332 127q410 0 409 -471v-553zM709 1227q-49 0 -215 88q-33 16 -56 16q-109 0 -145 -100l-74 18q37 139 148 173q66 22 115 2t96 -40q46 -20 82 -35t57 -16q86 0 141 105
l70 -19q-23 -88 -82 -140t-137 -52z" />
    <glyph glyph-name="ograve" unicode="&#xf2;" horiz-adv-x="1126" 
d="M873 504q0 168 -81 262q-80 94 -228 94t-229 -93t-81 -265t81 -265t229 -93t229 96q80 96 80 264zM1061 502q0 -226 -134 -374t-363 -148t-365 147q-135 147 -134 376t138 375t361 146q225 0 361 -149q136 -148 136 -373zM754 1221l-383 131v147l383 -194v-84z" />
    <glyph glyph-name="oacute" unicode="&#xf3;" horiz-adv-x="1126" 
d="M873 504q0 168 -81 262q-80 94 -228 94t-229 -93t-81 -265t81 -265t229 -93t229 96q80 96 80 264zM1061 502q0 -226 -134 -374t-363 -148t-365 147q-135 147 -134 376t138 375t361 146q225 0 361 -149q136 -148 136 -373zM754 1352l-383 -131v84l383 194v-147z" />
    <glyph glyph-name="ocircumflex" unicode="&#xf4;" horiz-adv-x="1126" 
d="M873 504q0 168 -81 262q-80 94 -228 94t-229 -93t-81 -265t81 -265t229 -93t229 96q80 96 80 264zM1061 502q0 -226 -134 -374t-363 -148t-365 147q-135 147 -134 376t138 375t361 146q225 0 361 -149q136 -148 136 -373zM864 1235l-301 168l-301 -168v74l301 217
l301 -217v-74z" />
    <glyph glyph-name="otilde" unicode="&#xf5;" horiz-adv-x="1126" 
d="M873 504q0 168 -81 262q-80 94 -228 94t-229 -93t-81 -265t81 -265t229 -93t229 96q80 96 80 264zM1061 502q0 -226 -134 -374t-363 -148t-365 147q-135 147 -134 376t138 375t361 146q225 0 361 -149q136 -148 136 -373zM698 1227q-44 0 -215 88q-33 16 -55 16
q-109 0 -145 -100l-74 18q48 180 211 185q28 0 64 -16t83 -34q47 -20 83 -35t57 -16q86 0 141 105l70 -19q-22 -88 -82 -140t-138 -52z" />
    <glyph glyph-name="odieresis" unicode="&#xf6;" horiz-adv-x="1126" 
d="M873 504q0 168 -81 262q-80 94 -228 94t-229 -93t-81 -265t81 -265t229 -93t229 96q80 96 80 264zM1061 502q0 -226 -134 -374t-363 -148t-365 147q-135 147 -134 376t138 375t361 146q225 0 361 -149q136 -148 136 -373zM453 1229h-144v205h144v-205zM817 1229h-143v205
h143v-205z" />
    <glyph glyph-name="divide" unicode="&#xf7;" horiz-adv-x="1212" 
d="M688 41h-182v192h182v-192zM1077 502h-942v151h942v-151zM688 901h-182v193h182v-193z" />
    <glyph glyph-name="oslash" unicode="&#xf8;" horiz-adv-x="1167" 
d="M560 883q-52 0 -110.5 -29t-121 -106.5t-62.5 -233.5q0 -155 94 -319l330 673q-78 15 -130 15zM612 117q52 0 111 29.5t120.5 108.5t61.5 235q0 155 -35.5 226t-60.5 89l-334 -676q85 -12 137 -12zM612 -27q-94 0 -202 23l-39 -78h-146l66 135q-223 166 -223 447
q0 229 142.5 377.5t373.5 148.5q74 0 172 -25l39 82h151l-69 -135q227 -172 227 -450q0 -227 -103.5 -336t-199 -149t-189.5 -40z" />
    <glyph glyph-name="ugrave" unicode="&#xf9;" horiz-adv-x="1073" 
d="M948 0h-164l-20 111q-94 -131 -279 -131q-371 0 -370 440v584h184v-533q0 -328 233 -328q160 0 232 115v746h184v-1004zM762 1221l-383 131v147l383 -194v-84z" />
    <glyph glyph-name="uacute" unicode="&#xfa;" horiz-adv-x="1073" 
d="M948 0h-164l-20 111q-94 -131 -279 -131q-371 0 -370 440v584h184v-533q0 -328 233 -328q160 0 232 115v746h184v-1004zM762 1352l-383 -131v84l383 194v-147z" />
    <glyph glyph-name="ucircumflex" unicode="&#xfb;" horiz-adv-x="1073" 
d="M948 0h-164l-20 111q-94 -131 -279 -131q-371 0 -370 440v584h184v-533q0 -328 233 -328q160 0 232 115v746h184v-1004zM872 1235l-301 168l-301 -168v74l301 217l301 -217v-74z" />
    <glyph glyph-name="udieresis" unicode="&#xfc;" horiz-adv-x="1073" 
d="M948 0h-164l-20 111q-94 -131 -279 -131q-371 0 -370 440v584h184v-533q0 -328 233 -328q160 0 232 115v746h184v-1004zM461 1229h-144v205h144v-205zM825 1229h-143v205h143v-205z" />
    <glyph glyph-name="yacute" unicode="&#xfd;" horiz-adv-x="1034" 
d="M1020 1004l-614 -1500h-205l231 541l-418 959h205l313 -746l283 746h205zM709 1352l-383 -131v84l383 194v-147z" />
    <glyph glyph-name="thorn" unicode="&#xfe;" horiz-adv-x="1187" 
d="M293 501q0 -167 75.5 -270.5t234.5 -103.5t246 103.5t87 270.5t-87 263t-247 96t-234.5 -96t-74.5 -263zM307 -494h-184v2030h184v-639q127 127 334 127t344 -149t137 -373.5t-135 -373t-357 -148.5q-223 0 -323 135v-609z" />
    <glyph glyph-name="ydieresis" unicode="&#xff;" horiz-adv-x="1034" 
d="M1020 1004l-614 -1500h-205l231 541l-418 959h205l313 -746l283 746h205zM403 1229h-143v205h143v-205zM768 1229h-143v205h143v-205z" />
    <glyph glyph-name="Ccaron" unicode="&#x10c;" 
d="M828 -29q-188 -1 -319 53q-267 108 -376 388q-53 137 -53 304q0 333 201 539q201 207 516 207q219 0 397 -84l-20 -180l-117 41q-117 47 -249 47t-225 -43q-189 -87 -256 -299q-34 -104 -34 -226q0 -250 134 -410q134 -161 374 -161q62 0 119 11l51 10q16 2 55 16l47 15
q10 2 53 18l48 16l20 -180q-178 -82 -366 -82zM1122 1860l-301 -203l-301 203v84l301 -156l301 156v-84z" />
    <glyph glyph-name="ccaron" unicode="&#x10d;" horiz-adv-x="929" 
d="M567 -20q-234 0 -367 147q-134 147 -133 378t129 375t369 144q201 0 309 -59l-28 -166q-126 61 -276 61t-232 -92t-82 -264t82 -267t232 -95t278 61l24 -148q-112 -75 -305 -75zM850 1432l-301 -203l-301 203v84l301 -156l301 156v-84z" />
    <glyph glyph-name="dotlessi" unicode="&#x131;" horiz-adv-x="434" 
d="M309 0h-184v1004h184v-1004z" />
    <glyph glyph-name="OE" unicode="&#x152;" horiz-adv-x="2193" 
d="M773 1286q-232 0 -359 -156t-127 -413t127 -413.5t359 -156.5t359.5 157.5t127.5 412.5t-127.5 412t-359.5 157zM2118 0h-840v170q-141 -109 -259.5 -154t-258.5 -45t-266.5 53.5t-219 151.5t-142.5 235.5t-50 389.5t194 456.5t498 204.5q127 0 245 -45t259 -153v168h821
v-175h-635v-419h488v-176h-488v-486h654v-176z" />
    <glyph glyph-name="oe" unicode="&#x153;" horiz-adv-x="1847" 
d="M572 860q-154 0 -236 -93t-82 -266t81 -265.5t237 -92.5t235.5 101.5t79.5 262.5t-80.5 257t-234.5 96zM1348 860q-219 0 -269 -231h518q-8 111 -73 171t-176 60zM1075 502q0 -205 99 -290t248 -85t294 76l21 -158q-147 -65 -325 -65t-283 54t-152 165
q-45 -104 -157 -161.5t-240 -57.5q-240 0 -377 150.5t-137 379.5t140.5 371.5t371.5 142.5q123 0 234.5 -55t156.5 -154q80 146 202.5 177.5t199.5 31.5t158 -28.5t169 -114t88 -275.5q0 -63 -8 -104h-703z" />
    <glyph glyph-name="Scaron" unicode="&#x160;" horiz-adv-x="1196" 
d="M920 370q0 150 -219 232q-69 27 -152 55l-143 48q-174 57 -249 142t-75 202q0 155 107 269q135 144 409 144q198 0 365 -61q51 -18 86 -37l-21 -207q-258 129 -412 129q-212 0 -293 -117q-28 -39 -28 -94q0 -90 77 -140q111 -72 240 -103q130 -31 244 -82l70 -37
q54 -28 71 -45l52 -54q47 -49 62 -106t22 -137q0 -163 -97 -258q-138 -138 -449 -140t-483 90l27 228q193 -143 439 -143t324 124q26 42 26 98zM899 1860l-301 -203l-301 203v84l301 -156l301 156v-84z" />
    <glyph glyph-name="scaron" unicode="&#x161;" horiz-adv-x="847" 
d="M410 -20q-219 0 -344 88l22 178q41 -37 126 -70t187 -33q201 0 201 125q0 113 -201 166q-140 32 -198 75q-58 42 -85 91q-28 49 -32 123q0 129 92 215t285 86q137 0 272 -66l-22 -167q-106 88 -246 88q-195 0 -195 -136q0 -64 47 -95q48 -30 139 -56t141 -48t93 -57
q101 -82 101 -208q0 -196 -194 -271q-74 -28 -189 -28zM709 1432l-301 -203l-302 203v84l302 -156l301 156v-84z" />
    <glyph glyph-name="Ydieresis" unicode="&#x178;" horiz-adv-x="1161" 
d="M682 0h-203v662l-485 772h205l381 -596l381 596h204l-483 -772v-662zM496 1657h-144v205h144v-205zM860 1657h-143v205h143v-205z" />
    <glyph glyph-name="florin" unicode="&#x192;" horiz-adv-x="718" 
d="M668 1343q-114 0 -169 -72t-87 -267h303l-13 -115h-313l-176 -1077q-21 -143 -92.5 -224.5t-136.5 -81.5h-27l-27 129q117 25 146 207l164 1047h-193l14 115h197l18 124q23 155 128.5 244.5t248.5 89.5q35 1 107 -22l-15 -113q-27 16 -77 16z" />
    <glyph glyph-name="uni0237" unicode="&#x237;" horiz-adv-x="434" 
d="M125 -150v1154h184v-1223q0 -226 -252 -266l-61 -11l-21 142q91 8 120.5 46.5t29.5 157.5z" />
    <glyph glyph-name="circumflex" unicode="&#x2c6;" horiz-adv-x="913" 
d="M758 1235l-301 168l-301 -168v74l301 217l301 -217v-74z" />
    <glyph glyph-name="caron" unicode="&#x2c7;" horiz-adv-x="913" 
d="M758 1432l-301 -203l-301 203v84l301 -156l301 156v-84z" />
    <glyph glyph-name="ring" unicode="&#x2da;" horiz-adv-x="598" 
d="M176 1361q0 -54 37 -88t86 -34t86 34t37 88t-36 88t-87 34t-87 -34t-36 -88zM299 1180q-100 0 -156.5 53t-56.5 131t59.5 130t165.5 52q142 0 170.5 -74.5t28.5 -109.5q0 -70 -49 -126t-148 -56h-14z" />
    <glyph glyph-name="tilde" unicode="&#x2dc;" horiz-adv-x="1081" 
d="M678 1227q-25 0 -61.5 16.5t-78.5 35.5t-75 35.5t-55 16.5q-109 0 -146 -100l-74 18q36 134 109 159.5t101 25.5t65 -15.5t84 -35t83 -35t56 -15.5q86 0 141 105l70 -19q-23 -88 -82 -140t-137 -52z" />
    <glyph glyph-name="endash" unicode="&#x2013;" horiz-adv-x="1028" 
d="M911 487h-794v177h794v-177z" />
    <glyph glyph-name="emdash" unicode="&#x2014;" horiz-adv-x="1216" 
d="M1100 487h-983v177h983v-177z" />
    <glyph glyph-name="quoteleft" unicode="&#x2018;" horiz-adv-x="380" 
d="M293 1137h-205v176l160 223l47 -27l-72 -178l70 -18v-176z" />
    <glyph glyph-name="quoteright" unicode="&#x2019;" horiz-adv-x="346" 
d="M88 1536h205v-176l-160 -223l-47 26l72 178l-70 19v176z" />
    <glyph glyph-name="quotesinglbase" unicode="&#x201a;" horiz-adv-x="442" 
d="M119 176h205v-176l-160 -223l-47 26l71 179l-69 18v176z" />
    <glyph glyph-name="quotedblleft" unicode="&#x201c;" horiz-adv-x="811" 
d="M723 1137h-205v176l160 223l47 -27l-72 -178l70 -18v-176zM293 1137h-205v176l160 223l47 -27l-72 -178l70 -18v-176z" />
    <glyph glyph-name="quotedblright" unicode="&#x201d;" horiz-adv-x="776" 
d="M88 1536h205v-176l-160 -223l-47 26l72 178l-70 19v176zM518 1536h205v-176l-160 -223l-47 26l72 178l-70 19v176z" />
    <glyph glyph-name="quotedblbase" unicode="&#x201e;" horiz-adv-x="913" 
d="M590 176h205v-176l-160 -223l-47 26l71 179l-69 18v176zM119 176h205v-176l-160 -223l-47 26l71 179l-69 18v176z" />
    <glyph glyph-name="dagger" unicode="&#x2020;" horiz-adv-x="868" 
d="M797 764l-324 61l84 -309l-63 -516h-119l-64 516l84 309l-323 -61v174l319 -64l-69 369h225l-70 -369l320 64v-174z" />
    <glyph glyph-name="daggerdbl" unicode="&#x2021;" horiz-adv-x="942" 
d="M834 180l-320 62l70 -363h-226l70 363l-319 -62v172l327 -61l-88 270l88 273l-327 -62v172l319 -61l-70 360h226l-70 -360l320 61v-172l-328 62l88 -273l-88 -270l328 61v-172z" />
    <glyph glyph-name="bullet" unicode="&#x2022;" horiz-adv-x="626" 
d="M471 412q-66 -66 -156 -66t-157.5 67.5t-67.5 155t67 156t155.5 68.5t156.5 -67.5t68 -157.5t-66 -156z" />
    <glyph glyph-name="ellipsis" unicode="&#x2026;" horiz-adv-x="1384" 
d="M1268 0h-185v176h185v-176zM784 0h-184v176h184v-176zM301 0h-184v176h184v-176z" />
    <glyph glyph-name="perthousand" unicode="&#x2030;" horiz-adv-x="2459" 
d="M2084 627q-80 0 -136 -78t-56 -203t55.5 -196.5t134.5 -71.5t134 76.5t55 207.5q0 183 -74.5 224t-112.5 41zM1862 67.5q-84 96.5 -84 278.5t90 284.5t220 102.5t214 -99t84 -276t-86 -282t-220 -105t-218 96.5zM1157 346q0 -125 55.5 -196.5t133.5 -71.5t134 76.5
t56 201.5t-55 198t-132 73q-80 0 -136 -78t-56 -203zM1126 67.5q-84 96.5 -84 278.5t90.5 284.5t220.5 102.5t214 -99t84 -276t-86 -282t-220 -105q-135 0 -219 96.5zM380 1337q-80 0 -136 -77.5t-56 -202.5t55.5 -197t134.5 -72t134 77t55 208q0 182 -74.5 223t-112.5 41z
M158 778q-84 96 -84 278t89.5 285t220.5 103q130 0 214 -100t84 -276t-85 -281t-220 -105t-219 96zM487 -25h-153l862 1459h152z" />
    <glyph glyph-name="guilsinglleft" unicode="&#x2039;" horiz-adv-x="659" 
d="M578 160h-224l-325 422l325 422h224l-326 -422z" />
    <glyph glyph-name="guilsinglright" unicode="&#x203a;" horiz-adv-x="661" 
d="M633 582l-326 -422h-223l326 422l-326 422h223z" />
    <glyph glyph-name="uni2070" unicode="&#x2070;" horiz-adv-x="833" 
d="M219 1033q0 -134 53.5 -197.5t142.5 -63.5t145 67t56 203t-56 204.5t-138 68.5t-142.5 -74t-60.5 -208zM161.5 746q-93.5 107 -93.5 284t102 296.5t251 119.5q150 0 247.5 -112.5t97.5 -291.5t-98.5 -291t-255.5 -112t-250.5 107z" />
    <glyph glyph-name="uni2074" unicode="&#x2074;" horiz-adv-x="675" 
d="M369 983v225l-152 -225h152zM621 866h-101v-211h-151v211h-359l383 564h127v-447h101v-117z" />
    <glyph glyph-name="uni2075" unicode="&#x2075;" horiz-adv-x="628" 
d="M49 707l35 133q72 -59 178 -60q160 0 160 125q0 113 -203 113h-127l51 412h383l-16 -144h-252l-20 -145q174 -2 252.5 -57.5t78.5 -176.5t-88 -193.5t-212 -72.5t-220 66z" />
    <glyph glyph-name="uni2076" unicode="&#x2076;" horiz-adv-x="659" 
d="M351 1001q-60 0 -99 -30.5t-39 -84.5t40 -84t93 -30t90 38t37 84t-31 76.5t-91 30.5zM136.5 711.5q-70.5 72.5 -70.5 241.5t91 283t153.5 154t111.5 40l100 -58q-33 0 -83 -29.5t-126 -102t-88 -159.5q37 39 144 39t176 -56t69 -163t-80.5 -184.5t-203.5 -77.5
t-193.5 72.5z" />
    <glyph glyph-name="uni2077" unicode="&#x2077;" horiz-adv-x="593" 
d="M47 1286v144h547l-348 -775h-158l285 631h-326z" />
    <glyph glyph-name="uni2078" unicode="&#x2078;" horiz-adv-x="708" 
d="M209 876q0 -58 36.5 -89t104.5 -31t107 32t39 90t-39.5 95t-98.5 49q-61 -8 -105 -48t-44 -98zM352 1331q-108 0 -108 -96q0 -84 104 -109q112 27 112 116t-108 89zM63 860q0 123 130 213q-82 57 -82 176q0 86 58 141.5t188 55.5t186.5 -50t56.5 -130q0 -111 -102 -185
q66 -27 106.5 -80t40.5 -109q0 -109 -80.5 -181t-219.5 -72q-140 0 -211 63.5t-71 157.5z" />
    <glyph glyph-name="uni2079" unicode="&#x2079;" horiz-adv-x="663" 
d="M311 1083q61 0 100.5 30t39.5 89q0 111 -125 111q-61 0 -96 -37t-35 -84t27.5 -78t88.5 -31zM596 1149q0 -194 -86 -303t-149.5 -150t-122.5 -41l-97 58q74 0 182.5 94t116.5 197q-38 -39 -148 -39t-178.5 56t-68.5 164t82.5 184.5t204.5 76.5q121 0 192.5 -74t71.5 -223
z" />
    <glyph glyph-name="uni2080" unicode="&#x2080;" horiz-adv-x="882" 
d="M244 380q0 -134 53 -198t142 -63q89 0 146 67q56 68 56 203t-56 204q-57 69 -139 69t-142 -74t-60 -208zM186 92q-94 107 -94 284t102 297t252 120q149 0 247 -113t98 -292t-99 -290q-99 -112 -255 -112q-155 0 -251 106z" />
    <glyph glyph-name="uni2081" unicode="&#x2081;" horiz-adv-x="485" 
d="M348 2h-153v565q-66 -29 -105 -35l-12 123q35 4 88 44t65 77h117v-774z" />
    <glyph glyph-name="uni2082" unicode="&#x2082;" horiz-adv-x="679" 
d="M586 2h-508q219 296 277 402q59 106 59 157t-31 80t-86 29q-104 0 -191 -121l-18 133q23 39 85 75t139 36q77 -1 120 -17q125 -48 125 -189q0 -142 -217 -442h246v-143z" />
    <glyph glyph-name="uni2083" unicode="&#x2083;" horiz-adv-x="690" 
d="M283 129q160 0 159 107q0 61 -31 96q-32 35 -120 35h-107l13 112h55q158 0 158 99q0 90 -123 90q-100 0 -146 -35l-22 108q53 51 186 51t196 -59q62 -60 62 -158t-80 -143q111 -66 111 -186t-88 -190t-204 -70t-205 41q-24 10 -31 20l36 135q66 -53 181 -53z" />
    <glyph glyph-name="uni2084" unicode="&#x2084;" horiz-adv-x="731" 
d="M395 330v225l-151 -225h151zM647 213h-100v-211h-152v211h-358l383 563h127v-446h100v-117z" />
    <glyph glyph-name="uni2085" unicode="&#x2085;" horiz-adv-x="679" 
d="M285 127q160 0 159 125q0 113 -202 113h-127l51 411h383l-17 -143h-251l-21 -146q174 -2 253 -57t79 -175t-87 -194q-87 -73 -214 -73t-219 65l34 133q72 -59 179 -59z" />
    <glyph glyph-name="uni2086" unicode="&#x2086;" horiz-adv-x="710" 
d="M500 241q0 47 -31 77t-91 30t-99 -31t-39 -85t40 -84t93 -30t90 39q37 38 37 84zM162 58q-70 72 -70 241q0 168 128 330q54 67 116 107t113 40l100 -57q-33 0 -83 -30t-96 -74q-106 -101 -118 -187q38 39 144 39t176 -56t69 -164q0 -108 -81 -185q-81 -76 -204 -76
q-124 0 -194 72z" />
    <glyph glyph-name="uni2087" unicode="&#x2087;" horiz-adv-x="679" 
d="M86 633v143h547l-348 -774h-158l285 631h-326z" />
    <glyph glyph-name="uni2088" unicode="&#x2088;" horiz-adv-x="761" 
d="M236 222q0 -58 36 -89t105 -31t107 33t38 90t-39 95t-98 49q-61 -8 -105 -48q-44 -41 -44 -99zM378 678q-108 0 -108 -96q0 -84 105 -109q113 27 112 113q-1 92 -109 92zM90 207q0 123 129 213q-82 57 -82 176q1 86 59 141t188 55t186 -50t57 -130q0 -111 -103 -184
q66 -27 107 -80q41 -54 41 -110q0 -110 -80 -181t-220 -71t-211 63t-71 158z" />
    <glyph glyph-name="uni2089" unicode="&#x2089;" horiz-adv-x="708" 
d="M332 430q61 0 100 30t39 89q0 111 -125 110q-61 -1 -96 -37t-35 -83t28 -78t89 -31zM312 311q-110 1 -178 57t-68 164t82 184q82 77 204 77q121 0 193 -74t71 -223q0 -196 -117 -343q-53 -69 -117 -110t-124 -41l-96 57q33 0 83 26t97 67q111 97 119 198
q-39 -39 -149 -39z" />
    <glyph glyph-name="Euro" unicode="&#x20ac;" horiz-adv-x="1439" 
d="M311 717v39h-182l45 141h156q58 235 228 368.5t394 133.5t371 -70l-25 -201q-186 78 -335 78q-299 0 -394 -309h529l-49 -141h-500v-39q0 -55 10 -135h498l-49 -142h-406q121 -213 361 -213q150 0 335 78l25 -201q-147 -70 -358 -70t-371 106.5t-238 299.5h-288l49 142
h202q-8 78 -8 135z" />
    <glyph glyph-name="trademark" unicode="&#x2122;" horiz-adv-x="1488" 
d="M377 1331v-641h-105v641h-209v103h531l-12 -103h-205zM1001 907h-12l-188 334l-68 -551h-106l96 744h59l215 -367l213 367h60l98 -744h-111l-63 549z" />
    <glyph glyph-name="B.sc" horiz-adv-x="1093" 
d="M588 524h-246v-358h195q143 0 213.5 37t70.5 137q0 184 -233 184zM518 983h-176v-303h211q174 0 174 151q0 90 -53.5 121t-155.5 31zM152 0v1147h299q246 0 354 -61t108 -228q0 -166 -100 -246q111 -39 159 -103.5t48 -167.5q0 -189 -122.5 -265t-303.5 -76h-442z" />
    <glyph glyph-name="C.sc" horiz-adv-x="1099" 
d="M714 -23q-162 0 -273 43t-191 121t-125 188.5t-45 309.5t169 364.5t437 165.5q199 0 340 -67l-20 -178q-428 152 -572.5 -5.5t-144.5 -345t104.5 -301.5t294.5 -114q131 0 318 65l20 -180q-150 -66 -312 -66z" />
    <glyph glyph-name="D.sc" horiz-adv-x="1288" 
d="M604 967h-262v-787h262q193 0 294 104.5t101 289t-101 289t-294 104.5zM152 0v1147h452q270 0 437 -154t167 -420q0 -265 -167.5 -419t-436.5 -154h-452z" />
    <glyph glyph-name="E.sc" horiz-adv-x="1003" 
d="M928 0h-776v1147h759v-180h-565v-279h445v-180h-445v-328h582v-180z" />
    <glyph glyph-name="F.sc" horiz-adv-x="940" 
d="M897 967h-555v-279h430v-180h-430v-508h-190v1147h745v-180z" />
    <glyph glyph-name="G.sc" horiz-adv-x="1193" 
d="M676 -23q-261 0 -428.5 165.5t-167.5 433.5t170 430.5t440 162.5q209 0 363 -65l-19 -178q-178 63 -340 63q-201 0 -303 -113.5t-102 -301.5t107.5 -302t318.5 -114q100 0 186 22v234h-166v161h359v-512q-118 -54 -242.5 -70t-175.5 -16z" />
    <glyph glyph-name="H.sc" horiz-adv-x="1323" 
d="M1171 0h-190v508h-639v-508h-190v1147h190v-457h639v457h190v-1147z" />
    <glyph glyph-name="I.sc" horiz-adv-x="493" 
d="M342 0h-190v1147h190v-1147z" />
    <glyph glyph-name="J.sc" horiz-adv-x="493" 
d="M57 -283h-43l-18 136h24q76 0 104 34.5t28 114.5v1145h190v-1192q0 -238 -285 -238z" />
    <glyph glyph-name="K.sc" horiz-adv-x="1075" 
d="M342 0h-190v1147h190v-1147zM1049 0h-209l-441 606l441 541h209l-441 -541z" />
    <glyph glyph-name="A.sc" horiz-adv-x="1093" 
d="M702 469l-155 387l-156 -387h311zM1077 0h-198l-113 289h-438l-111 -289h-201l437 1147h190z" />
    <glyph glyph-name="M.sc" horiz-adv-x="1458" 
d="M1364 0h-201l-110 803l-322 -551l-325 551l-111 -803h-201l166 1147h160l311 -539l307 539h160z" />
    <glyph glyph-name="N.sc" horiz-adv-x="1257" 
d="M1106 0h-160l-604 829v-829h-190v1147h196l565 -782v782h193v-1147z" />
    <glyph glyph-name="O.sc" horiz-adv-x="1361" 
d="M289 573.5q0 -188.5 102 -302t287.5 -113.5t289 113t103.5 301t-102.5 302.5t-288.5 114.5t-288.5 -113.5t-102.5 -302zM680 1169q264 0 433 -165.5t169 -432.5q0 -266 -170 -430t-433 -164t-431 164t-168 431.5t168 432t432 164.5z" />
    <glyph glyph-name="AE.sc" horiz-adv-x="1519" 
d="M686 467v494l-270 -494h270zM1444 0h-758v283h-358l-152 -283h-192l594 1147h849v-182h-530v-277h410v-180h-410v-328h547v-180z" />
    <glyph glyph-name="P.sc" horiz-adv-x="1044" 
d="M532 985h-184v-424h213q123 0 177.5 52.5t54.5 166.5t-57 159.5t-204 45.5zM348 385v-385h-196v1147h368q239 0 354 -74.5t115 -284.5t-119.5 -306.5t-277.5 -96.5h-244z" />
    <glyph glyph-name="Q.sc" horiz-adv-x="1361" 
d="M289 573.5q0 -188.5 102 -302t289 -113.5q133 0 223 47l-164 123l105 131l170 -133q68 94 68 265t-106.5 284.5t-294.5 113.5t-290 -113.5t-102 -302zM680 1169q264 0 433 -165.5t169 -430.5q0 -207 -121 -370l107 -84l-107 -127l-117 90q-160 -104 -364 -105
q-264 0 -432 164t-168 431.5t168 432t432 164.5z" />
    <glyph glyph-name="R.sc" horiz-adv-x="1099" 
d="M545 989h-197v-375h217q106 0 166 49.5t60 141.5q0 184 -246 184zM348 434v-434h-196v1147h417q420 0 420 -332q0 -225 -215 -332l281 -483h-203l-262 434h-242z" />
    <glyph glyph-name="S.sc" horiz-adv-x="1046" 
d="M766 301q0 90 -84 131t-161 64.5t-171 52.5l-98 43q-72 31 -120 86.5t-48 135.5q0 158 112.5 256.5t304.5 98.5q260 0 408 -84l-20 -196q-209 102 -367 102t-197.5 -51t-39.5 -94t26.5 -69.5t80.5 -47t134 -43t158 -52.5q148 -56 220.5 -126.5t72.5 -203.5t-99 -230
t-369 -97q-269 0 -407 80l25 219q145 -118 392 -118t247 143z" />
    <glyph glyph-name="T.sc" horiz-adv-x="962" 
d="M928 967h-350v-967h-193v967h-350v180h893v-180z" />
    <glyph glyph-name="U.sc" horiz-adv-x="1284" 
d="M643 -23q-252 0 -379 136.5t-127 375.5v658h191v-586q0 -205 70.5 -304t244.5 -99q261 0 287 158.5t26 244.5v586h191v-658q0 -242 -126 -377t-378 -135z" />
    <glyph glyph-name="V.sc" horiz-adv-x="1148" 
d="M1135 1147l-451 -1147h-217l-455 1147h201l362 -905l359 905h201z" />
    <glyph glyph-name="W.sc" horiz-adv-x="1710" 
d="M1683 1147l-356 -1147h-190l-279 827l-287 -827h-194l-342 1147h201l258 -871l288 863h152l297 -848l252 856h200z" />
    <glyph glyph-name="X.sc" horiz-adv-x="1105" 
d="M1083 0h-213l-325 438l-305 -438h-211l417 571l-409 576h221l299 -420l303 420h211l-420 -553z" />
    <glyph glyph-name="Y.sc" horiz-adv-x="1032" 
d="M614 0h-196v516l-416 631h203l311 -461l311 461h203l-416 -631v-516z" />
    <glyph glyph-name="Z.sc" horiz-adv-x="989" 
d="M881 180v-180h-850l612 967h-534v180h849l-612 -967h535z" />
    <glyph glyph-name="OE.sc" horiz-adv-x="1886" 
d="M285 573.5q0 -187.5 100.5 -301.5t286.5 -114t287.5 112t101.5 301q0 190 -99 304t-287 114t-289 -114t-101 -301.5zM1810 0h-735v106q-201 -129 -401 -129q-261 0 -427.5 164.5t-166.5 431t166.5 431.5t427.5 165q201 0 401 -129v107h719v-180h-528v-279h407v-180h-407
v-328h544v-180z" />
    <glyph glyph-name="L.sc" horiz-adv-x="901" 
d="M877 0h-725v1147h190v-967h535v-180z" />
    </font>
</defs>
</svg>
